<svg width="100" height="100" viewBox="0 0 100 100" fill="none" xmlns="http://www.w3.org/2000/svg">
<mask id="path-2-outside-1_257_4" maskUnits="userSpaceOnUse" x="2" y="19" width="44" height="69" fill="black">
<rect fill="white" x="2" y="19" width="44" height="69"/>
<path d="M4.6 86L17.56 21.2H30.2L43.16 86H32.2L29.64 71.04H18.36L15.72 86H4.6ZM19.56 63.52H28.36L23.96 36.32L19.56 63.52Z"/>
</mask>
<path d="M4.6 86L17.56 21.2H30.2L43.16 86H32.2L29.64 71.04H18.36L15.72 86H4.6ZM19.56 63.52H28.36L23.96 36.32L19.56 63.52Z" fill="white"/>
<path d="M4.6 86L2.63884 85.6078L2.16039 88H4.6V86ZM17.56 21.2V19.2H15.9204L15.5988 20.8078L17.56 21.2ZM30.2 21.2L32.1612 20.8078L31.8396 19.2H30.2V21.2ZM43.16 86V88H45.5996L45.1212 85.6078L43.16 86ZM32.2 86L30.2287 86.3373L30.5132 88H32.2V86ZM29.64 71.04L31.6113 70.7027L31.3268 69.04H29.64V71.04ZM18.36 71.04V69.04H16.682L16.3904 70.6924L18.36 71.04ZM15.72 86V88H17.398L17.6896 86.3476L15.72 86ZM19.56 63.52L17.5857 63.2006L17.2105 65.52H19.56V63.52ZM28.36 63.52V65.52H30.7095L30.3343 63.2006L28.36 63.52ZM23.96 36.32L25.9343 36.0006L21.9857 36.0006L23.96 36.32ZM4.6 86L6.56116 86.3922L19.5212 21.5922L17.56 21.2L15.5988 20.8078L2.63884 85.6078L4.6 86ZM17.56 21.2V23.2H30.2V21.2V19.2H17.56V21.2ZM30.2 21.2L28.2388 21.5922L41.1988 86.3922L43.16 86L45.1212 85.6078L32.1612 20.8078L30.2 21.2ZM43.16 86V84H32.2V86V88H43.16V86ZM32.2 86L34.1713 85.6627L31.6113 70.7027L29.64 71.04L27.6687 71.3773L30.2287 86.3373L32.2 86ZM29.64 71.04V69.04H18.36V71.04V73.04H29.64V71.04ZM18.36 71.04L16.3904 70.6924L13.7504 85.6524L15.72 86L17.6896 86.3476L20.3296 71.3876L18.36 71.04ZM15.72 86V84H4.6V86V88H15.72V86ZM19.56 63.52V65.52H28.36V63.52V61.52H19.56V63.52ZM28.36 63.52L30.3343 63.2006L25.9343 36.0006L23.96 36.32L21.9857 36.6394L26.3857 63.8394L28.36 63.52ZM23.96 36.32L21.9857 36.0006L17.5857 63.2006L19.56 63.52L21.5343 63.8394L25.9343 36.6394L23.96 36.32Z" fill="#148865" mask="url(#path-2-outside-1_257_4)"/>
<path d="M52.04 88V19.96H69.26C75.196 19.96 79.816 20.716 83.12 22.228C86.424 23.684 88.748 26.008 90.092 29.2C91.436 32.336 92.108 36.424 92.108 41.464V66.16C92.108 71.256 91.436 75.428 90.092 78.676C88.748 81.868 86.424 84.22 83.12 85.732C79.872 87.244 75.308 88 69.428 88H52.04ZM67.076 77.584H69.428C71.724 77.584 73.376 77.248 74.384 76.576C75.392 75.904 76.008 74.896 76.232 73.552C76.512 72.208 76.652 70.528 76.652 68.512V38.86C76.652 36.844 76.484 35.22 76.148 33.988C75.868 32.756 75.224 31.86 74.216 31.3C73.208 30.74 71.584 30.46 69.344 30.46H67.076V77.584Z" fill="#148865"/>
</svg>
