<?xml version="1.0" encoding="UTF-8"?>
<svg version="1.1" xmlns="http://www.w3.org/2000/svg" width="256" height="256">
<path d="M0 0 C3 1 3 1 4.15087891 2.84179688 C4.50585449 3.62619141 4.86083008 4.41058594 5.2265625 5.21875 C5.814375 6.49298828 5.814375 6.49298828 6.4140625 7.79296875 C6.81367188 8.68628906 7.21328125 9.57960938 7.625 10.5 C8.42806703 12.26115648 9.23267312 14.02161226 10.0390625 15.78125 C10.39178223 16.56564453 10.74450195 17.35003906 11.10791016 18.15820312 C11.86156766 19.97095019 11.86156766 19.97095019 13 21 C14.65222508 21.2955718 16.30559129 21.58580418 17.96337891 21.84838867 C45.66954606 26.32429774 69.59299235 41.99350837 86.1875 64.625 C95.45375271 77.75416624 102.73600023 93.88400293 104 110 C104.85207031 109.91878906 105.70414063 109.83757812 106.58203125 109.75390625 C110.74862371 110.05390091 113.32447318 111.65781206 116.6875 113.9375 C121.12178739 116.88927112 121.12178739 116.88927112 126 119 C126 119.99 126 120.98 126 122 C125.26394531 122.39832031 124.52789062 122.79664062 123.76953125 123.20703125 C122.79371094 123.73683594 121.81789062 124.26664062 120.8125 124.8125 C119.84957031 125.33457031 118.88664063 125.85664062 117.89453125 126.39453125 C115.01641196 127.9324781 115.01641196 127.9324781 112.51171875 129.69921875 C109.48925084 131.26450929 107.35749548 131.23424387 104 131 C103.87044922 132.4540625 103.87044922 132.4540625 103.73828125 133.9375 C101.48630103 156.47150135 92.76156349 175.82791681 78 193 C77.24332031 193.88171875 76.48664063 194.7634375 75.70703125 195.671875 C60.15801763 212.44501532 37.79042518 220.20433847 16 225 C15.01 225 14.02 225 13 225 C12.82621826 225.53874756 12.65243652 226.07749512 12.47338867 226.63256836 C10.601043 232.35297509 8.51974864 237.9637378 6.3125 243.5625 C5.99216797 244.38041016 5.67183594 245.19832031 5.34179688 246.04101562 C4.56321746 248.02813622 3.78190155 250.01418427 3 252 C1.14306641 251.78442383 1.14306641 251.78442383 -1 251 C-2.24853516 249.0222168 -2.24853516 249.0222168 -3.2890625 246.44921875 C-3.67320313 245.52302734 -4.05734375 244.59683594 -4.453125 243.64257812 C-4.83984375 242.66740234 -5.2265625 241.69222656 -5.625 240.6875 C-6.40813662 238.77444569 -7.19196527 236.86167449 -7.9765625 234.94921875 C-8.31768066 234.09674561 -8.65879883 233.24427246 -9.01025391 232.3659668 C-9.50017822 231.19481323 -9.50017822 231.19481323 -10 230 C-10.27553711 229.27176025 -10.55107422 228.54352051 -10.83496094 227.79321289 C-12.44509347 225.31491795 -13.8333533 225.09558444 -16.6640625 224.359375 C-17.6137793 224.09769531 -18.56349609 223.83601562 -19.54199219 223.56640625 C-21.06808105 223.16228516 -21.06808105 223.16228516 -22.625 222.75 C-32.80600683 219.85468728 -41.81746484 216.23227315 -51 211 C-52.50240234 210.15308594 -52.50240234 210.15308594 -54.03515625 209.2890625 C-76.57229429 195.78579836 -92.60426386 171.26047048 -99 146 C-99.90770239 141.36463643 -100.51505689 136.69743404 -101 132 C-102.00160156 131.75507813 -103.00320312 131.51015625 -104.03515625 131.2578125 C-108.21830505 130.06262713 -111.72272856 128.09993189 -115.4375 125.875 C-116.07365234 125.50246094 -116.70980469 125.12992187 -117.36523438 124.74609375 C-118.91423889 123.83765501 -120.45771891 122.91980703 -122 122 C-122 121.01 -122 120.02 -122 119 C-120.50292969 117.75732422 -120.50292969 117.75732422 -118.421875 116.5546875 C-117.67292969 116.11769531 -116.92398438 115.68070312 -116.15234375 115.23046875 C-115.35957031 114.78316406 -114.56679687 114.33585937 -113.75 113.875 C-112.97269531 113.41996094 -112.19539063 112.96492188 -111.39453125 112.49609375 C-107.9408426 110.50653294 -104.92988127 108.82010127 -101 108 C-100.731875 106.8140625 -100.46375 105.628125 -100.1875 104.40625 C-97.48599551 93.032987 -93.75880307 83.15869019 -88 73 C-87.47921875 72.03964844 -86.9584375 71.07929687 -86.421875 70.08984375 C-73.09898463 47.24579687 -50.16321699 31.99099211 -25.5 23.91796875 C-22 23 -22 23 -18.75 22.73828125 C-15.07980428 22.3778156 -13.12412102 22.02481279 -10 20 C-5.66826079 13.91931574 -2.80125212 6.88562811 0 0 Z " fill="#23233C" transform="translate(125,2)"/>
<path d="M0 0 C4.33272699 1.66562254 7.13520713 4.87451869 10.3125 8.125 C10.89789551 8.71684082 11.48329102 9.30868164 12.08642578 9.91845703 C15.5092179 13.40225129 18.76780305 16.97077677 21.91796875 20.703125 C25.65393298 24.82460149 29.67633442 28.6771938 33.67138672 32.54638672 C37.33161819 36.13899267 40.33414842 39.61315563 43 44 C41.824375 43.7215625 41.824375 43.7215625 40.625 43.4375 C38.02910225 42.74037734 38.02910225 42.74037734 36 44 C44.06043679 53.4846493 52.70748244 62.46012293 61.25390625 71.50390625 C61.96168213 72.25357666 62.66945801 73.00324707 63.39868164 73.77563477 C64.76220078 75.21899748 66.12718664 76.66097654 67.49389648 78.10131836 C70.51904051 81.30257188 73.52278456 84.52366774 76.45703125 87.80859375 C76.94405518 88.35056396 77.4310791 88.89253418 77.93286133 89.45092773 C79 91 79 91 79.1875 94.0625 C78.00928642 96.97702834 76.58650422 98.84333751 74.4765625 101.14453125 C71.38564828 105.02861658 69.27534116 109.60569851 67 114 C65 114 65 114 63.484375 112.49609375 C62.91203125 111.81675781 62.3396875 111.13742188 61.75 110.4375 C61.13125 109.71046875 60.5125 108.9834375 59.875 108.234375 C59.25625 107.49703125 58.6375 106.7596875 58 106 C56.91818906 104.72787046 55.83498058 103.45692728 54.75 102.1875 C54.29109375 101.64480469 53.8321875 101.10210937 53.359375 100.54296875 C51.99651804 98.94777284 51.99651804 98.94777284 50.328125 97.42578125 C49 96 49 96 49 94 C46.36 94.66 43.72 95.32 41 96 C41.39268066 96.41773682 41.78536133 96.83547363 42.18994141 97.26586914 C44.00319511 99.19661401 45.81410505 101.12954272 47.625 103.0625 C48.24246094 103.71927734 48.85992187 104.37605469 49.49609375 105.05273438 C53.44882513 109.2759158 57.26583913 113.58220045 61 118 C59.2404334 121.83006063 57.06497046 123.96900011 53.875 126.75 C52.96492187 127.54921875 52.05484375 128.3484375 51.1171875 129.171875 C50.41851562 129.77515625 49.71984375 130.3784375 49 131 C46.50638429 129.79618552 44.31856917 128.54571278 42 127 C42 128.65 42 130.3 42 132 C40.1875 131.8125 40.1875 131.8125 38 131 C37.5875 130.29875 37.175 129.5975 36.75 128.875 C34.67021554 125.45821125 32.18608866 123.38215998 29.1328125 120.84375 C24.0833121 116.47861412 19.61007742 111.50055125 15.0625 106.625 C14.46759766 105.99078125 13.87269531 105.3565625 13.25976562 104.703125 C9.39146832 100.56003062 5.66165991 96.32690804 2 92 C-1.83937481 93.77030817 -3.99790272 95.94251048 -6.8125 99.125 C-7.25118408 99.61709961 -7.68986816 100.10919922 -8.1418457 100.61621094 C-10.68181324 103.472571 -13.18418141 106.36155547 -15.6875 109.25 C-18.40805748 112.38469386 -21.28201374 115.30386103 -24.2421875 118.2109375 C-26.74113924 120.75431504 -29.04903745 123.44632629 -31.35546875 126.1640625 C-33 128 -33 128 -35.9375 130.5 C-38.90882722 134.10160875 -38.38720739 136.4309528 -38 141 C-52.35281612 138.11632918 -64.54864891 123.705519 -72.38623047 112.15893555 C-79.33792263 101.61596863 -86.51470605 88.86765117 -86 76 C-85.01 75.505 -85.01 75.505 -84 75 C-83.34 75.33 -82.68 75.66 -82 76 C-82 76.66 -82 77.32 -82 78 C-81.34 78 -80.68 78 -80 78 C-79.67 79.98 -79.34 81.96 -79 84 C-78.28585938 83.28457031 -77.57171875 82.56914062 -76.8359375 81.83203125 C-75.01445661 80.00990944 -73.18555004 78.19636133 -71.3515625 76.38671875 C-65.19350777 70.29042101 -59.25479445 64.11635769 -53.875 57.3125 C-51.09819656 53.88777576 -48.13263313 50.86437791 -44.625 48.1875 C-41.78305386 45.81921155 -39.53478902 43.25933719 -37.1328125 40.45703125 C-30.64900004 32.98758429 -23.87256396 25.80027371 -16.8125 18.875 C-12.08485788 14.23275548 -7.85764719 9.38054315 -3.7421875 4.1796875 C-2 2 -2 2 0 0 Z " fill="#1F1B35" transform="translate(125,63)"/>
<path d="M0 0 C0.01417969 0.60328125 0.02835937 1.2065625 0.04296875 1.828125 C0.35282776 7.15397897 0.35282776 7.15397897 3.1875 11.5625 C6.53813897 13.27504881 8.28744199 13.61875967 12 13 C14.97071986 11.70732203 14.97071986 11.70732203 17 9 C17.70186779 6.0015795 17.92775564 3.0736691 18 0 C42.15375847 2.9607833 60.5948915 13.43968385 76.3125 31.8125 C85.20036378 43.46840611 91.08498194 56.359711 92 71 C87.38 71 82.76 71 78 71 C76.02408447 74.95183105 75.31731534 77.6369141 75 82 C75.99 83.485 75.99 83.485 77 85 C77 85.99 77 86.98 77 88 C73.35818477 87.42667654 71.71572695 86.06870972 69.1875 83.4375 C68.48625 82.71046875 67.785 81.9834375 67.0625 81.234375 C64.63812057 78.60796395 62.30850533 75.91082199 59.98046875 73.19921875 C57.58145537 70.53522559 55.05106024 68.01663878 52.5 65.5 C49.4677001 62.50823209 46.49845652 59.50847937 43.75 56.25 C39.61414316 51.39137206 35.01500356 46.99062451 30.48510742 42.50463867 C26.67976607 38.72207527 23.0247153 34.88752074 19.5625 30.78515625 C16.55633961 27.350618 13.26387436 24.187576 10 21 C6.3798322 22.47193636 4.75740416 24.3329936 2.4375 27.4375 C-2.89542549 34.16820396 -8.95676678 40.09282809 -15.08422852 46.09741211 C-20.45548504 51.37767684 -25.60019759 56.7689393 -30.32104492 62.64404297 C-32.78194452 65.70359209 -35.35630051 68.16008847 -38.41772461 70.60913086 C-40.18728233 72.16462697 -41.66374921 73.83537178 -43.19140625 75.62890625 C-47.67629567 80.81721517 -52.40080384 85.76482315 -57.12695312 90.73242188 C-60.3095684 94.09235865 -63.41684412 97.46378574 -66.37109375 101.02734375 C-67.23863281 102.00832031 -68.10617188 102.98929687 -69 104 C-69.66 104 -70.32 104 -71 104 C-71.33 102.02 -71.66 100.04 -72 98 C-72.66 98 -73.32 98 -74 98 C-74 97.34 -74 96.68 -74 96 C-74.99 96 -75.98 96 -77 96 C-77.29659476 101.45169413 -76.37098244 105.73378098 -74.375 110.75 C-74.10139648 111.4510083 -73.82779297 112.1520166 -73.54589844 112.87426758 C-65.98751872 131.79841978 -53.72087654 147.71123971 -36 158 C-35.07703125 158.53753906 -34.1540625 159.07507813 -33.203125 159.62890625 C-22.74245326 165.52411532 -12.80361216 168.75493256 -1 171 C-1 172.98 -1 174.96 -1 177 C-22.88956547 176.91708498 -43.83945984 164.0129344 -59 149 C-66.57341533 141.23980787 -72.04534272 132.55461874 -77 123 C-77.48339844 122.07445312 -77.96679688 121.14890625 -78.46484375 120.1953125 C-82.80730362 111.29920929 -86.41279315 100.98347872 -86 91 C-87.65 91.99 -89.3 92.98 -91 94 C-91 93.01 -91 92.02 -91 91 C-92.670625 90.814375 -92.670625 90.814375 -94.375 90.625 C-98 90 -98 90 -100 88 C-99.34 88 -98.68 88 -98 88 C-97.67 86.35 -97.34 84.7 -97 83 C-96.01 83 -95.02 83 -94 83 C-96.64 82.01 -99.28 81.02 -102 80 C-101 78 -101 78 -99.02734375 76.88671875 C-94.83249233 75.65803324 -90.90961734 75.74705601 -86.5625 75.8125 C-85.68174805 75.81894531 -84.80099609 75.82539062 -83.89355469 75.83203125 C-76.56791701 75.91724405 -69.29606962 76.32354321 -62 77 C-61.61781233 78.65614657 -61.28604898 80.32457024 -61 82 C-62.58272601 83.58272601 -64.38034003 83.34735747 -66.5625 83.5625 C-67.80193359 83.68818359 -67.80193359 83.68818359 -69.06640625 83.81640625 C-69.70449219 83.87699219 -70.34257813 83.93757813 -71 84 C-71 84.66 -71 85.32 -71 86 C-71.99 86.99 -71.99 86.99 -73 88 C-64.20281871 87.52786766 -64.20281871 87.52786766 -56.625 83.6875 C-54.79171592 81.15769784 -54.79171592 81.15769784 -54.9375 78.4375 C-56.23280033 75.46592865 -57.48438643 74.05671226 -60 72 C-63.25358683 71.09179635 -63.25358683 71.09179635 -66.75 70.75 C-67.92046875 70.60046875 -69.0909375 70.4509375 -70.296875 70.296875 C-71.18890625 70.19890625 -72.0809375 70.1009375 -73 70 C-72.33885419 51.15734447 -59.99956667 33.82876403 -47 21 C-34.61249489 9.91932365 -17.08966886 -0.52441222 0 0 Z " fill="#E57143" transform="translate(117,43)"/>
<path d="M0 0 C8.64882812 0.7862571 16.10984879 3.47461329 24 7 C22.7260411 9.03833424 21.38938077 11.03852126 20 13 C19.34 13 18.68 13 18 13 C17.25042843 16.47147842 17.25042843 16.47147842 17 20 C17.38671875 19.36191406 17.7734375 18.72382812 18.171875 18.06640625 C18.69265625 17.24011719 19.2134375 16.41382812 19.75 15.5625 C20.26046875 14.73878906 20.7709375 13.91507813 21.296875 13.06640625 C23 11 23 11 25.078125 10.08984375 C25.71234375 10.06019531 26.3465625 10.03054687 27 10 C27.66 10.66 28.32 11.32 29 12 C30.485 11.814375 30.485 11.814375 32 11.625 C37.89850969 11.44067157 41.91403003 16.2782575 46 20 C46.62003906 20.53882812 47.24007812 21.07765625 47.87890625 21.6328125 C59.75014243 32.59511412 69.57234064 49.80043668 71 66 C71 66.99 71 67.98 71 69 C66.38 69 61.76 69 57 69 C55.02408447 72.95183105 54.31731534 75.6369141 54 80 C54.99 81.485 54.99 81.485 56 83 C56 83.99 56 84.98 56 86 C52.35818477 85.42667654 50.71572695 84.06870972 48.1875 81.4375 C47.48625 80.71046875 46.785 79.9834375 46.0625 79.234375 C43.63812057 76.60796395 41.30850533 73.91082199 38.98046875 71.19921875 C36.58145588 68.53522615 34.05106591 66.01663276 31.5 63.5 C28.42594766 60.46716171 25.4200074 57.42060574 22.625 54.125 C17.46603093 48.06606335 11.66073493 42.58412348 6 37 C6.99 36.505 6.99 36.505 8 36 C8 35.34 8 34.68 8 34 C7.46375 33.79375 6.9275 33.5875 6.375 33.375 C2.10710054 30.90411084 -1.42872254 27.71383238 -3 23 C-4.63044124 21.34362312 -4.63044124 21.34362312 -6.5625 19.8125 C-7.20316406 19.28269531 -7.84382812 18.75289062 -8.50390625 18.20703125 C-8.99761719 17.80871094 -9.49132812 17.41039063 -10 17 C-9.1875 15.0625 -9.1875 15.0625 -8 13 C-7.01 12.67 -6.02 12.34 -5 12 C-2.75697084 8.30559903 -1.36242898 4.08728693 0 0 Z " fill="#DC673A" transform="translate(138,45)"/>
<path d="M0 0 C1.11346788 2.80033839 1.03510273 3.90143703 0.00390625 6.796875 C-0.70958984 8.25867188 -0.70958984 8.25867188 -1.4375 9.75 C-1.91058594 10.73484375 -2.38367187 11.7196875 -2.87109375 12.734375 C-3.24363281 13.48203125 -3.61617187 14.2296875 -4 15 C-0.81360234 15.22821192 2.37397656 15.42892029 5.5625 15.625 C6.90538086 15.72167969 6.90538086 15.72167969 8.27539062 15.8203125 C13.74961942 16.14114642 17.80707095 15.71145406 23 14 C25.36328125 13.83984375 25.36328125 13.83984375 27.3125 13.9375 C30.82284548 14.28120517 30.82284548 14.28120517 33 13 C35.125 13.4375 35.125 13.4375 37 14 C37.28875 13.21625 37.5775 12.4325 37.875 11.625 C39 9 39 9 41 7 C41.99 7.33 42.98 7.66 44 8 C43.39671875 8.66386719 42.7934375 9.32773438 42.171875 10.01171875 C41.37265625 10.89472656 40.5734375 11.77773437 39.75 12.6875 C38.96109375 13.55761719 38.1721875 14.42773438 37.359375 15.32421875 C35.81871403 17.07149154 34.32211283 18.85890677 32.87890625 20.6875 C30.99831492 23.00207394 28.93406241 24.71269574 26.61767578 26.57373047 C24.83595221 28.14463737 23.34462663 29.82449842 21.8046875 31.6328125 C17.32131579 36.82001393 12.59793301 41.76615083 7.87304688 46.73242188 C4.6904316 50.09235865 1.58315588 53.46378574 -1.37109375 57.02734375 C-2.23863281 58.00832031 -3.10617188 58.98929688 -4 60 C-4.66 60 -5.32 60 -6 60 C-6.33 58.02 -6.66 56.04 -7 54 C-7.66 54 -8.32 54 -9 54 C-9 53.34 -9 52.68 -9 52 C-9.99 52 -10.98 52 -12 52 C-12.29659476 57.45169413 -11.37098244 61.73378098 -9.375 66.75 C-9.10139648 67.4510083 -8.82779297 68.1520166 -8.54589844 68.87426758 C-0.98751872 87.79841978 11.27912346 103.71123971 29 114 C29.92296875 114.53753906 30.8459375 115.07507813 31.796875 115.62890625 C42.25754674 121.52411532 52.19638784 124.75493256 64 127 C64 128.98 64 130.96 64 133 C42.11043453 132.91708498 21.16054016 120.0129344 6 105 C-1.57341533 97.23980787 -7.04534272 88.55461874 -12 79 C-12.48339844 78.07445312 -12.96679688 77.14890625 -13.46484375 76.1953125 C-17.80730362 67.29920929 -21.41279315 56.98347872 -21 47 C-22.65 47.99 -24.3 48.98 -26 50 C-26 49.01 -26 48.02 -26 47 C-27.670625 46.814375 -27.670625 46.814375 -29.375 46.625 C-33 46 -33 46 -35 44 C-34.34 44 -33.68 44 -33 44 C-32.67 42.35 -32.34 40.7 -32 39 C-31.01 39 -30.02 39 -29 39 C-31.64 38.01 -34.28 37.02 -37 36 C-36 34 -36 34 -34.02734375 32.88671875 C-29.83249233 31.65803324 -25.90961734 31.74705601 -21.5625 31.8125 C-20.68174805 31.81894531 -19.80099609 31.82539062 -18.89355469 31.83203125 C-11.56791701 31.91724405 -4.29606962 32.32354321 3 33 C3.38218767 34.65614657 3.71395102 36.32457024 4 38 C2.41727399 39.58272601 0.61965997 39.34735747 -1.5625 39.5625 C-2.38878906 39.64628906 -3.21507812 39.73007813 -4.06640625 39.81640625 C-4.70449219 39.87699219 -5.34257813 39.93757813 -6 40 C-6 40.66 -6 41.32 -6 42 C-6.66 42.66 -7.32 43.32 -8 44 C0.79718129 43.52786766 0.79718129 43.52786766 8.375 39.6875 C10.20828408 37.15769784 10.20828408 37.15769784 10.0625 34.4375 C8.76719967 31.46592865 7.51561357 30.05671226 5 28 C1.74641317 27.09179635 1.74641317 27.09179635 -1.75 26.75 C-2.92046875 26.60046875 -4.0909375 26.4509375 -5.296875 26.296875 C-6.18890625 26.19890625 -7.0809375 26.1009375 -8 26 C-7.67331085 16.68935924 -4.13499141 8.26998281 0 0 Z " fill="#A0381F" transform="translate(52,87)"/>
<path d="M0 0 C0.99 0.66 1.98 1.32 3 2 C1.44551348 6.66345956 -2.30756995 8.91012969 -6 12 C-7.3303125 13.2375 -7.3303125 13.2375 -8.6875 14.5 C-11 16 -11 16 -13.625 15.9375 C-16.12730746 14.94974706 -17.20935219 13.95343397 -19 12 C-19.99 11.67 -20.98 11.34 -22 11 C-20.78822701 14.5472961 -20.78822701 14.5472961 -18.5 17.4375 C-16.37282845 19.6533037 -15.84043149 22.09081407 -15 25 C-10.01294034 23.61470565 -8.75932075 21.22013761 -6 17 C-3.7700882 14.86662118 -1.41826924 12.91559529 1 11 C1 11.66 1 12.32 1 13 C1.99 12.34 2.98 11.68 4 11 C4.2502157 7.91634129 4.2502157 7.91634129 4 5 C7 6 7 6 8.66015625 8.6328125 C11.13750546 14.85868718 11.08614677 22.0542804 9.30859375 28.51171875 C6.30220822 35.11570369 0.66369015 39.26118496 -5.80078125 42.265625 C-10.78143938 43.92879326 -15.48850532 43.91400612 -20.42578125 42.1171875 C-26.86782356 38.84744501 -32.32765184 33.8320213 -35 27 C-35.82881541 19.1744405 -36.11522499 11.3690963 -31 5 C-21.50038883 -4.97558334 -12.14348736 -6.6813565 0 0 Z " fill="#E9EBE4" transform="translate(139,104)"/>
<path d="M0 0 C0 0.66 0 1.32 0 2 C-0.66 2 -1.32 2 -2 2 C-1.01 3.32 -0.02 4.64 1 6 C-0.08796875 6.47308594 -1.1759375 6.94617187 -2.296875 7.43359375 C-11.84246196 11.68951161 -19.93079403 16.28169249 -28 23 C-28.97710937 23.76054688 -29.95421875 24.52109375 -30.9609375 25.3046875 C-45.13755379 37.18497899 -53.03744403 55.42692571 -57 73 C-55.80375 72.95875 -54.6075 72.9175 -53.375 72.875 C-47.9560334 72.90367178 -44.38460379 73.90999276 -40.0625 77.3125 C-38 80 -38 80 -37.875 82.5 C-39.5204429 86.15653978 -40.63851708 87.67281951 -44 90 C-48.33082306 90.7191791 -52.61448716 90.92936949 -57 91 C-57 92.65 -57 94.3 -57 96 C-57.33 96 -57.66 96 -58 96 C-58 94.02 -58 92.04 -58 90 C-57.01 89.67 -56.02 89.34 -55 89 C-55.33 88.01 -55.66 87.02 -56 86 C-51.05 85.505 -51.05 85.505 -46 85 C-46 83.68 -46 82.36 -46 81 C-54.19031301 80.24063323 -62.34003964 79.87267168 -70.5625 79.8125 C-71.41875977 79.79960938 -72.27501953 79.78671875 -73.15722656 79.7734375 C-77.55885537 79.76648115 -80.99655718 79.92868909 -85 82 C-79.33251843 84.83374078 -74.30267439 85.63223832 -68 86 C-68 86.33 -68 86.66 -68 87 C-72.29 87 -76.58 87 -81 87 C-81.33 88.32 -81.66 89.64 -82 91 C-86.14298667 90.40165275 -89.18194377 88.99335715 -92.8125 86.9375 C-93.78832031 86.38964844 -94.76414062 85.84179688 -95.76953125 85.27734375 C-96.50558594 84.85582031 -97.24164063 84.43429688 -98 84 C-98 83.01 -98 82.02 -98 81 C-96.50292969 79.75732422 -96.50292969 79.75732422 -94.421875 78.5546875 C-93.67292969 78.11769531 -92.92398438 77.68070312 -92.15234375 77.23046875 C-91.35957031 76.78316406 -90.56679687 76.33585937 -89.75 75.875 C-88.97269531 75.41996094 -88.19539063 74.96492188 -87.39453125 74.49609375 C-83.9408426 72.50653294 -80.92988127 70.82010127 -77 70 C-76.89042969 69.44014404 -76.78085938 68.88028809 -76.66796875 68.3034668 C-76.14804474 65.75589199 -75.57488354 63.22321245 -75 60.6875 C-74.82855469 59.80642578 -74.65710938 58.92535156 -74.48046875 58.01757812 C-72.97462542 51.62988786 -72.97462542 51.62988786 -70.02734375 49.72509766 C-67.8125 48.89453125 -67.8125 48.89453125 -64 48 C-65.79672622 56.38472237 -67.89894324 64.68756669 -70 73 C-67.69 73 -65.38 73 -63 73 C-63.04253906 71.99195312 -63.08507813 70.98390625 -63.12890625 69.9453125 C-62.52651288 51.50842437 -49.02888706 31.96594956 -35.94140625 19.66796875 C-26.96005795 11.95159908 -12.6192979 0 0 0 Z " fill="#242032" transform="translate(101,40)"/>
<path d="M0 0 C0.66 0 1.32 0 2 0 C2 6.93 2 13.86 2 21 C-2.95 22.485 -2.95 22.485 -8 24 C-16.01438934 27.88125427 -21.46761352 33.86062471 -24.6875 42.125 C-27.39265908 48.69467206 -32.22205067 53.93267497 -36.6796875 59.37988281 C-38.42352809 61.51969903 -40.12148639 63.69329048 -41.8125 65.875 C-42.34746094 66.56464844 -42.88242188 67.25429687 -43.43359375 67.96484375 C-48.11094412 73.7271394 -48.11094412 73.7271394 -52 80 C-52.66 80 -53.32 80 -54 80 C-54.495 79.01 -54.495 79.01 -55 78 C-58.1268791 79.38132461 -60.19920392 80.97903763 -62.5625 83.4375 C-63.14128906 84.03433594 -63.72007813 84.63117188 -64.31640625 85.24609375 C-64.87199219 85.82488281 -65.42757812 86.40367187 -66 87 C-66.9977247 88.00227014 -67.99695588 89.00305341 -69 90 C-72 89 -72 89 -73.75 86.1875 C-75.31819418 82.18860484 -75.31819418 82.18860484 -74 79 C-71.9609375 76.703125 -71.9609375 76.703125 -69.375 74.25 C-66.30527226 71.2757942 -63.32596955 68.32352854 -60.5625 65.0625 C-56.89322698 60.76866987 -52.88113108 56.84863388 -48.84375 52.90625 C-46.01862663 50.08513745 -43.42479143 47.08274312 -40.81201172 44.06591797 C-37.89338356 40.73832009 -34.85256827 37.52884484 -31.8125 34.3125 C-27.07087637 29.2796363 -22.35742906 24.22441835 -17.6875 19.125 C-13.24605407 14.2787716 -8.67072996 9.61129359 -3.9609375 5.0234375 C-1.84229733 2.95921759 -1.84229733 2.95921759 0 0 Z " fill="#90F4EF" transform="translate(124,73)"/>
<path d="M0 0 C3.50695348 1.75347674 5.16741701 2.92065853 7.8125 5.625 C8.50859375 6.3365625 9.2046875 7.048125 9.921875 7.78125 C11.86135636 9.85197445 13.72046625 11.96766318 15.5625 14.125 C17.73481519 16.65690478 19.92601687 18.87890032 22.5 21 C25.66658671 23.62134661 28.27223417 26.48752335 30.93359375 29.61328125 C33.47726225 32.55124241 36.10763349 35.40092345 38.75 38.25 C41.8342177 41.5769436 44.91809066 44.90358051 47.97265625 48.2578125 C52.34695683 53.06061599 56.7492165 57.79946886 61.3828125 62.35546875 C64.40970744 65.43354307 67.19886737 68.71752715 70 72 C70.48855469 72.56074219 70.97710937 73.12148437 71.48046875 73.69921875 C76.07906583 79.05301066 76.07906583 79.05301066 77 82 C76.625 85.25 76.625 85.25 76 88 C71.69671391 86.01848687 68.06034054 83.23674609 64.2421875 80.4609375 C62.16674295 78.81802949 62.16674295 78.81802949 60 79 C59.67 79.66 59.34 80.32 59 81 C55.21664297 79.73888099 54.59793712 78.32372257 52.375 75.0625 C48.88228929 70.10427112 45.1097789 65.62767397 40.98046875 61.19140625 C39 59 39 59 37.42578125 56.77734375 C36.03047699 54.7089774 36.03047699 54.7089774 33 54 C31.47483949 50.88336765 30.27480437 47.7362467 29.0625 44.48828125 C25.49188491 35.15725979 20.36659338 28.90648828 11.125 24.6875 C6.78063277 23.73173921 2.43115133 23.33277421 -2 23 C-1.01 22.67 -0.02 22.34 1 22 C0.67 14.74 0.34 7.48 0 0 Z " fill="#0673A1" transform="translate(125,72)"/>
<path d="M0 0 C4.33272699 1.66562254 7.13520713 4.87451869 10.3125 8.125 C10.89789551 8.71684082 11.48329102 9.30868164 12.08642578 9.91845703 C15.5092179 13.40225129 18.76780305 16.97077677 21.91796875 20.703125 C25.65393298 24.82460149 29.67633442 28.6771938 33.67138672 32.54638672 C37.33161819 36.13899267 40.33414842 39.61315563 43 44 C35.31775701 44 35.31775701 44 31.796875 41.328125 C29.78059481 39.28106191 27.87614203 37.17565916 26 35 C25.195625 34.195625 24.39125 33.39125 23.5625 32.5625 C22.716875 31.716875 21.87125 30.87125 21 30 C20.32066406 29.33226563 19.64132813 28.66453125 18.94140625 27.9765625 C14.6138082 23.70004908 10.45376445 19.35876696 6.5078125 14.7265625 C5.06727105 13.07703058 3.56673075 11.52920426 2 10 C-1.27418868 11.09139623 -1.83548146 11.72910317 -3.9375 14.3125 C-7.56048488 18.59700653 -11.45768119 22.52259863 -15.47241211 26.43481445 C-18.88306744 29.7874983 -22.0412873 33.29971243 -25.16992188 36.91601562 C-28.27095325 40.44728614 -31.51492581 43.84192087 -34.75 47.25 C-39.52253194 52.29516937 -44.26890843 57.35846861 -48.9375 62.5 C-52.82339188 66.764577 -56.83336215 70.86069388 -60.94140625 74.91015625 C-63.54612664 77.55441699 -65.96105172 80.33235692 -68.36328125 83.16015625 C-69.94674816 84.94013934 -71.61833573 86.5185493 -73.375 88.125 C-76.21833525 91.23912908 -76.80254789 92.8535056 -77 97 C-78.32 97 -79.64 97 -81 97 C-81.84770456 94.81716075 -82.67807547 92.63003921 -83.5 90.4375 C-83.9640625 89.21933594 -84.428125 88.00117188 -84.90625 86.74609375 C-86.01223121 82.9581081 -86.20185162 79.92096767 -86 76 C-85.01 75.505 -85.01 75.505 -84 75 C-83.34 75.33 -82.68 75.66 -82 76 C-82 76.66 -82 77.32 -82 78 C-81.34 78 -80.68 78 -80 78 C-79.67 79.98 -79.34 81.96 -79 84 C-78.28585938 83.28457031 -77.57171875 82.56914062 -76.8359375 81.83203125 C-75.01445661 80.00990944 -73.18555004 78.19636133 -71.3515625 76.38671875 C-65.19350777 70.29042101 -59.25479445 64.11635769 -53.875 57.3125 C-51.09819656 53.88777576 -48.13263313 50.86437791 -44.625 48.1875 C-41.78305386 45.81921155 -39.53478902 43.25933719 -37.1328125 40.45703125 C-30.64900004 32.98758429 -23.87256396 25.80027371 -16.8125 18.875 C-12.08485788 14.23275548 -7.85764719 9.38054315 -3.7421875 4.1796875 C-2 2 -2 2 0 0 Z " fill="#201C34" transform="translate(125,63)"/>
<path d="M0 0 C6.11797383 4.89437906 11.26771726 10.5298074 16.49560547 16.33837891 C19.05523063 19.16551439 21.65577764 21.95465299 24.25 24.75 C28.5821173 29.42999209 32.84684391 34.15952582 37 39 C35.44997253 42.88397689 32.99523379 45.02979619 29.875 47.75 C28.96492188 48.54921875 28.05484375 49.3484375 27.1171875 50.171875 C26.41851562 50.77515625 25.71984375 51.3784375 25 52 C17.88518461 48.87642251 12.89912077 41.98728237 7.921875 36.2109375 C5.60630829 33.5470945 3.24505244 30.92797207 0.875 28.3125 C0.06804687 27.42175781 -0.73890625 26.53101563 -1.5703125 25.61328125 C-3.21310808 23.84635159 -4.89038102 22.1109579 -6.59765625 20.40625 C-8.60617712 18.39446325 -10.48173854 16.35886825 -12.3125 14.1875 C-12.82425781 13.58292969 -13.33601562 12.97835937 -13.86328125 12.35546875 C-14.42595703 11.68451172 -14.42595703 11.68451172 -15 11 C-11.15304854 7.77352458 -7.0859098 5.01313638 -2.890625 2.26953125 C-1.07270473 1.13698792 -1.07270473 1.13698792 0 0 Z " fill="#097EA3" transform="translate(149,142)"/>
<path d="M0 0 C1.66666667 1.66666667 3.33333333 3.33333333 5 5 C7.95178633 7.01585408 10.47891813 8.3479478 14 9 C7.78450215 22.45713921 -7.15450503 34.34831646 -17.6953125 44.6328125 C-19.97584794 46.97519296 -22.00299048 49.41401071 -24 52 C-27.52238047 50.43632643 -30.27123994 48.30504111 -33.25 45.875 C-34.14203125 45.15054688 -35.0340625 44.42609375 -35.953125 43.6796875 C-36.62859375 43.12539062 -37.3040625 42.57109375 -38 42 C-37.5262515 37.68476905 -34.73829979 35.18292305 -31.875 32.1875 C-31.37581055 31.65415039 -30.87662109 31.12080078 -30.36230469 30.57128906 C-27.17705656 27.18426051 -23.91258029 23.88506714 -20.59765625 20.625 C-18.27802553 18.26566899 -16.13427767 15.76582513 -13.96875 13.265625 C-11.56008601 10.49374977 -9.13403524 7.73842886 -6.6875 5 C-5.84574219 4.05125 -5.00398438 3.1025 -4.13671875 2.125 C-2 0 -2 0 0 0 Z " fill="#A2F3EB" transform="translate(105,142)"/>
<path d="M0 0 C1.83203125 0.7890625 1.83203125 0.7890625 3.83203125 2.7890625 C4.82203125 2.4590625 5.81203125 2.1290625 6.83203125 1.7890625 C16.83203125 21.6262718 16.83203125 21.6262718 16.83203125 32.7890625 C12.21203125 32.7890625 7.59203125 32.7890625 2.83203125 32.7890625 C0.85611572 36.74089355 0.14934659 39.4259766 -0.16796875 43.7890625 C0.49203125 44.7790625 1.15203125 45.7690625 1.83203125 46.7890625 C1.83203125 47.7790625 1.83203125 48.7690625 1.83203125 49.7890625 C-1.80978398 49.21573904 -3.4522418 47.85777222 -5.98046875 45.2265625 C-6.68171875 44.49953125 -7.38296875 43.7725 -8.10546875 43.0234375 C-10.52316028 40.40427168 -12.84771815 37.71648432 -15.1640625 35.0078125 C-18.57163289 31.23490806 -22.25461004 27.73806976 -25.91015625 24.20703125 C-28.16796875 21.7890625 -28.16796875 21.7890625 -29.16796875 18.7890625 C-26.85796875 19.4490625 -24.54796875 20.1090625 -22.16796875 20.7890625 C-22.06484375 21.5728125 -21.96171875 22.3565625 -21.85546875 23.1640625 C-21.39201853 26.11951431 -21.39201853 26.11951431 -18.16796875 27.7890625 C-18.16796875 28.4490625 -18.16796875 29.1090625 -18.16796875 29.7890625 C-17.17796875 30.1190625 -16.18796875 30.4490625 -15.16796875 30.7890625 C-13.73828125 32.20703125 -13.73828125 32.20703125 -12.29296875 33.9765625 C-11.77734375 34.60046875 -11.26171875 35.224375 -10.73046875 35.8671875 C-10.21484375 36.50140625 -9.69921875 37.135625 -9.16796875 37.7890625 C-8.21070262 38.93578756 -7.25246807 40.08170536 -6.29296875 41.2265625 C-5.59171875 42.0721875 -4.89046875 42.9178125 -4.16796875 43.7890625 C-3.50796875 40.4890625 -2.84796875 37.1890625 -2.16796875 33.7890625 C-2.82796875 33.7890625 -3.48796875 33.7890625 -4.16796875 33.7890625 C-4.35359375 33.0053125 -4.53921875 32.2215625 -4.73046875 31.4140625 C-6.45864744 27.05604666 -8.9241315 23.70933308 -11.70703125 19.9609375 C-13.16796875 17.7890625 -13.16796875 17.7890625 -13.16796875 15.7890625 C-13.82796875 15.7890625 -14.48796875 15.7890625 -15.16796875 15.7890625 C-14.16796875 12.7890625 -14.16796875 12.7890625 -12.16796875 10.7890625 C-12.05066406 9.99242188 -11.93335938 9.19578125 -11.8125 8.375 C-10.9725441 5.00499512 -9.73401005 4.27027407 -6.85546875 2.4140625 C-6.07558594 1.89070313 -5.29570312 1.36734375 -4.4921875 0.828125 C-2.16796875 -0.2109375 -2.16796875 -0.2109375 0 0 Z " fill="#B64623" transform="translate(192.16796875,81.2109375)"/>
<path d="M0 0 C1.98 0 3.96 0 6 0 C7.47163215 20.60285011 -3.64274133 39.93426346 -16.59765625 55.05859375 C-31.12617207 71.6364004 -51.68677306 85.22592314 -74 88 C-77.625 88.125 -77.625 88.125 -80 88 C-80 86.35 -80 84.7 -80 83 C-79.41734375 82.82984375 -78.8346875 82.6596875 -78.234375 82.484375 C-49.32377388 73.93847404 -26.7911783 61.66400257 -11 35 C-6.57157111 26.77154327 -3.9332061 18.10271217 -2 9 C-1.60419486 7.24999362 -1.20836425 5.49999301 -0.8125 3.75 C-0.544375 2.5125 -0.27625 1.275 0 0 Z " fill="#A1ADAF" transform="translate(216,132)"/>
<path d="M0 0 C1.5 1.25 1.5 1.25 3 3 C3 4.32 3 5.64 3 7 C3.60360352 7.10779785 4.20720703 7.2155957 4.82910156 7.32666016 C8.45131769 8.45015004 10.412633 11.53666254 12.75 14.375 C13.2764209 15.00043701 13.8028418 15.62587402 14.34521484 16.27026367 C18.29720719 21.01518704 21.96224832 25.90957827 25.4765625 30.98828125 C26.84881303 33.10901282 26.84881303 33.10901282 29 34 C29.33 33.01 29.66 32.02 30 31 C34.15151338 32.44202476 37.29978445 34.5010438 40.8125 37.125 C41.78832031 37.84945312 42.76414063 38.57390625 43.76953125 39.3203125 C44.50558594 39.87460938 45.24164063 40.42890625 46 41 C46 40.071875 46 39.14375 46 38.1875 C46 36.125 46 34.0625 46 32 C47.5625 33.125 47.5625 33.125 49 35 C49 39.60257056 47.52093952 41.82420193 44.4765625 45.14453125 C41.38564828 49.02861658 39.27534116 53.60569851 37 58 C35 58 35 58 33.484375 56.49609375 C32.91203125 55.81675781 32.3396875 55.13742188 31.75 54.4375 C31.13125 53.71046875 30.5125 52.9834375 29.875 52.234375 C29.25625 51.49703125 28.6375 50.7596875 28 50 C26.91818906 48.72787046 25.83498058 47.45692728 24.75 46.1875 C24.29109375 45.64480469 23.8321875 45.10210937 23.359375 44.54296875 C21.99651804 42.94777284 21.99651804 42.94777284 20.328125 41.42578125 C19 40 19 40 19 38 C18.11054688 37.86464844 18.11054688 37.86464844 17.203125 37.7265625 C14.43838827 36.81478762 13.55076353 35.63906677 11.75 33.375 C8.67956748 29.68119673 5.39604663 26.6006594 1.69921875 23.54296875 C0 22 0 22 -2 19 C-2.04345703 16.9152832 -2.04345703 16.9152832 -1.7578125 14.55078125 C-1.66113281 13.70322266 -1.56445312 12.85566406 -1.46484375 11.98242188 C-1.35269531 11.10134766 -1.24054688 10.22027344 -1.125 9.3125 C-1.02058594 8.41982422 -0.91617188 7.52714844 -0.80859375 6.60742188 C-0.54931018 4.40351151 -0.27941634 2.20143331 0 0 Z " fill="#163757" transform="translate(155,119)"/>
<path d="M0 0 C0.33 0 0.66 0 1 0 C1.06058594 0.78503906 1.12117188 1.57007812 1.18359375 2.37890625 C1.26738281 3.42949219 1.35117188 4.48007813 1.4375 5.5625 C1.51871094 6.59503906 1.59992188 7.62757812 1.68359375 8.69140625 C1.91154126 12.056975 1.91154126 12.056975 2.93359375 15.44140625 C3.00676712 19.36263795 2.760621 19.81746415 0.3515625 22.6484375 C-0.87040613 23.91052 -2.11393041 25.15198608 -3.375 26.375 C-4.01896729 27.03056885 -4.66293457 27.6861377 -5.32641602 28.36157227 C-7.19922739 30.26063253 -9.09539924 32.13289753 -11 34 C-11.88816406 34.88816406 -12.77632812 35.77632812 -13.69140625 36.69140625 C-15.13933228 38.13933228 -16.59211039 39.58243038 -18.05078125 41.01953125 C-20.59044883 43.59991494 -22.93718741 46.32282045 -25.29296875 49.0703125 C-28.05221581 52.18946136 -31.01587975 55.09751222 -34 58 C-38.59216906 53.93265026 -41.2167907 49.43614072 -44 44 C-43.38125 43.9175 -42.7625 43.835 -42.125 43.75 C-39.8589486 43.21492722 -39.8589486 43.21492722 -39.0078125 41.203125 C-38.67523438 40.47609375 -38.34265625 39.7490625 -38 39 C-36.67225712 37.5389496 -35.29368324 36.12291926 -33.875 34.75 C-33.15054688 34.04359375 -32.42609375 33.3371875 -31.6796875 32.609375 C-31.12539062 32.07828125 -30.57109375 31.5471875 -30 31 C-29.01 31.33 -28.02 31.66 -27 32 C-27 32.66 -27 33.32 -27 34 C-26.34 34 -25.68 34 -25 34 C-24.75121094 33.27683594 -24.50242187 32.55367187 -24.24609375 31.80859375 C-22.87656093 28.72177839 -21.25044799 26.63027259 -19.0625 24.0625 C-15.33807509 19.61975002 -11.6990978 15.1271762 -8.125 10.5625 C-7.66101807 9.97154541 -7.19703613 9.38059082 -6.71899414 8.77172852 C-4.86054493 6.39985427 -3.01789895 4.02454146 -1.2421875 1.58984375 C-0.83226562 1.06519531 -0.42234375 0.54054688 0 0 Z " fill="#077AA0" transform="translate(97,119)"/>
<path d="M0 0 C1.98 0 3.96 0 6 0 C6.3403125 1.258125 6.680625 2.51625 7.03125 3.8125 C14.16656616 29.35813611 26.33059115 52.38108702 50 66 C50.92167969 66.53625 51.84335938 67.0725 52.79296875 67.625 C63.25223585 73.52585591 73.19557304 76.75477758 85 79 C85 80.98 85 82.96 85 85 C63.11043453 84.91708498 42.16054016 72.0129344 27 57 C19.42658467 49.23980787 13.95465728 40.55461874 9 31 C8.51660156 30.07445312 8.03320312 29.14890625 7.53515625 28.1953125 C3.44115264 19.8082048 -0.48365507 9.42231727 0 0 Z " fill="#C7CCC8" transform="translate(31,135)"/>
<path d="M0 0 C1.62698275 20.1820952 1.62698275 20.1820952 -1.734375 26.00390625 C-4.125 28 -4.125 28 -6.8515625 29.8203125 C-10.98872359 32.68450095 -14.1261095 36.16677572 -17.5 39.875 C-18.11117676 40.53113281 -18.72235352 41.18726563 -19.35205078 41.86328125 C-21.80522431 44.50971011 -23.99133124 46.98699687 -26 50 C-36.55808656 47.10933941 -36.55808656 47.10933941 -41 44 C-39.5158627 40.51345524 -37.53785948 38.35808928 -34.8125 35.75 C-31.24380987 32.26695843 -27.9241809 28.68118787 -24.6796875 24.8984375 C-23.01795424 23.02029247 -21.28874475 21.25694484 -19.5 19.5 C-15.07867765 15.14776082 -11.07012703 10.45643876 -7.07421875 5.71484375 C-6.45160156 4.98394531 -5.82898438 4.25304687 -5.1875 3.5 C-4.62417969 2.8296875 -4.06085938 2.159375 -3.48046875 1.46875 C-2 0 -2 0 0 0 Z " fill="#4EDBE4" transform="translate(127,154)"/>
<path d="M0 0 C0 1.98 0 3.96 0 6 C-0.71542969 6.08636719 -1.43085937 6.17273437 -2.16796875 6.26171875 C-23.62046619 9.28671516 -44.5272036 20.92070587 -58.32421875 37.73046875 C-68.40080379 51.37731236 -75.08484091 65.17390633 -78 82 C-80.31 82 -82.62 82 -85 82 C-82.36392092 60.87202292 -73.90461314 44.11715664 -59 29 C-58.32839844 28.25621094 -57.65679687 27.51242188 -56.96484375 26.74609375 C-48.16009182 17.28304261 -37.33575338 10.76623703 -25.625 5.5 C-24.53844116 5.01067993 -24.53844116 5.01067993 -23.42993164 4.51147461 C-15.69446888 1.19552016 -8.40600843 -0.30567303 0 0 Z " fill="#EBECE6" transform="translate(116,31)"/>
<path d="M0 0 C20.23711263 0.07798502 40.35753358 10.55109708 55 24 C55.49097168 24.44327637 55.98194336 24.88655273 56.48779297 25.34326172 C71.55954098 39.0765735 82.91256839 57.62295139 86 78 C86 79.32 86 80.64 86 82 C83.69 82 81.38 82 79 82 C78.81566406 80.89785156 78.63132812 79.79570313 78.44140625 78.66015625 C74.40594947 56.76208351 62.61363595 37.75182272 45 24 C40.78229497 21.1066951 36.45830288 18.50359471 32 16 C31.18015625 15.51660156 30.3603125 15.03320312 29.515625 14.53515625 C20.51622225 9.56736514 10.0770948 7.56476627 0 6 C0 4.02 0 2.04 0 0 Z " fill="#EBECE3" transform="translate(136,31)"/>
<path d="M0 0 C3.90928607 0.86653203 7.18352467 2.53015612 10.66210938 4.47216797 C11.39155762 4.86968262 12.12100586 5.26719727 12.87255859 5.67675781 C19.93801989 9.63631827 26.25714195 14.28925814 32.41210938 19.53466797 C33.07339844 20.09412109 33.7346875 20.65357422 34.41601562 21.22998047 C45.0652159 31.06381274 56.52177501 47.87180412 58.41210938 62.53466797 C58.4503556 64.86768783 58.45785222 67.20178305 58.41210938 69.53466797 C57.75210938 69.53466797 57.09210938 69.53466797 56.41210938 69.53466797 C55.91710937 71.51466797 55.91710937 71.51466797 55.41210938 73.53466797 C54.75210938 73.53466797 54.09210938 73.53466797 53.41210938 73.53466797 C53.28835937 72.72126953 53.16460937 71.90787109 53.03710938 71.06982422 C49.30921355 50.35670301 37.92507499 31.70425304 20.97460938 19.09716797 C10.36903681 11.92423874 -1.82973983 5.57474932 -14.65039062 3.97216797 C-15.61976563 3.82779297 -16.58914062 3.68341797 -17.58789062 3.53466797 C-17.91789063 2.87466797 -18.24789062 2.21466797 -18.58789062 1.53466797 C-17.66556641 1.56947266 -17.66556641 1.56947266 -16.72460938 1.60498047 C-15.51224609 1.63205078 -15.51224609 1.63205078 -14.27539062 1.65966797 C-13.07462891 1.69447266 -13.07462891 1.69447266 -11.84960938 1.72998047 C-7.0659646 1.31688506 -5.22061216 -0.72696075 0 0 Z " fill="#2D1E32" transform="translate(155.587890625,40.46533203125)"/>
<path d="M0 0 C0.88075195 0.00644531 1.76150391 0.01289062 2.66894531 0.01953125 C9.99458299 0.10474405 17.26643038 0.51104321 24.5625 1.1875 C24.94468767 2.84364657 25.27645102 4.51207024 25.5625 6.1875 C23.97977399 7.77022601 22.18215997 7.53485747 20 7.75 C19.17371094 7.83378906 18.34742188 7.91757813 17.49609375 8.00390625 C16.53896484 8.09478516 16.53896484 8.09478516 15.5625 8.1875 C15.5625 8.8475 15.5625 9.5075 15.5625 10.1875 C14.5725 10.6825 14.5725 10.6825 13.5625 11.1875 C13.5625 14.8175 13.5625 18.4475 13.5625 22.1875 C13.2325 21.5275 12.9025 20.8675 12.5625 20.1875 C11.5725 20.1875 10.5825 20.1875 9.5625 20.1875 C8.9025 21.1775 8.2425 22.1675 7.5625 23.1875 C7.2325 20.8775 6.9025 18.5675 6.5625 16.1875 C4.6753125 16.125625 4.6753125 16.125625 2.75 16.0625 C2.04230469 16.03929687 1.33460937 16.01609375 0.60546875 15.9921875 C-1.75109719 16.05495538 -1.75109719 16.05495538 -4.4375 18.1875 C-4.4375 17.1975 -4.4375 16.2075 -4.4375 15.1875 C-5.55125 15.06375 -6.665 14.94 -7.8125 14.8125 C-11.4375 14.1875 -11.4375 14.1875 -13.4375 12.1875 C-12.7775 12.1875 -12.1175 12.1875 -11.4375 12.1875 C-11.1075 10.5375 -10.7775 8.8875 -10.4375 7.1875 C-9.4475 7.1875 -8.4575 7.1875 -7.4375 7.1875 C-10.0775 6.1975 -12.7175 5.2075 -15.4375 4.1875 C-14.4375 2.1875 -14.4375 2.1875 -12.46484375 1.07421875 C-8.26999233 -0.15446676 -4.34711734 -0.06544399 0 0 Z " fill="#2C223D" transform="translate(30.4375,118.8125)"/>
<path d="M0 0 C0.01417969 0.60328125 0.02835938 1.2065625 0.04296875 1.828125 C0.35282776 7.15397897 0.35282776 7.15397897 3.1875 11.5625 C6.53813897 13.27504881 8.28744199 13.61875967 12 13 C14.97071986 11.70732203 14.97071986 11.70732203 17 9 C17.70186779 6.0015795 17.92775564 3.0736691 18 0 C32.24069658 1.74563377 43.66292415 5.91613064 56 13 C56 13.66 56 14.32 56 15 C53.125 15.125 53.125 15.125 50 15 C49.01 14.01 49.01 14.01 48 13 C45.99013017 12.99312233 45.99013017 12.99312233 44 14 C42.28813235 15.96266838 42.28813235 15.96266838 40.875 18.375 C40.37742187 19.16648437 39.87984375 19.95796875 39.3671875 20.7734375 C38.91601562 21.50820312 38.46484375 22.24296875 38 23 C37.01 24.485 37.01 24.485 36 26 C35.875 23.625 35.875 23.625 36 21 C36.66 20.34 37.32 19.68 38 19 C38.6425235 16.93125966 38.6425235 16.93125966 39 15 C39.66 15 40.32 15 41 15 C41.309375 14.360625 41.61875 13.72125 41.9375 13.0625 C43 11 43 11 44 10 C36.88993026 6.54152163 29.02370742 3 21 3 C20.9175 3.515625 20.835 4.03125 20.75 4.5625 C19.13961881 9.79623888 16.72343155 14.13220227 12 17 C13.40531906 20.39618772 14.9943213 21.93359589 18 24 C20 26 20 26 20.8984375 27.9296875 C22.16259338 30.30558329 23.51985486 31.4703386 25.625 33.125 C27.5390625 34.6328125 27.5390625 34.6328125 29 36 C29 36.66 29 37.32 29 38 C25.38317647 37.44175115 24.02083171 36.25399273 21.75 33.4375 C18.07484592 29.02890953 14.10379878 25.00786583 10 21 C6.55571735 22.44781793 4.63869038 24.27694609 2.25 27.125 C1.63640625 27.84945312 1.0228125 28.57390625 0.390625 29.3203125 C-0.29773438 30.15175781 -0.29773438 30.15175781 -1 31 C-1.66 30.67 -2.32 30.34 -3 30 C-1.625 28 -1.625 28 0 26 C0.66 26 1.32 26 2 26 C2.28875 25.38125 2.5775 24.7625 2.875 24.125 C4 22 4 22 6 20 C5.6814823 17.89179203 5.6814823 17.89179203 5 16 C4.01 16 3.02 16 2 16 C1.505 13.525 1.505 13.525 1 11 C0.34 11 -0.32 11 -1 11 C-1.495 6.545 -1.495 6.545 -2 2 C-2.90878906 2.27263672 -2.90878906 2.27263672 -3.8359375 2.55078125 C-5.09277344 2.92783203 -5.09277344 2.92783203 -6.375 3.3125 C-7.27992187 3.58707031 -8.18484375 3.86164062 -9.1171875 4.14453125 C-11.01153251 4.70667428 -12.91267142 5.24649713 -14.8203125 5.76171875 C-16.14675781 6.12716797 -16.14675781 6.12716797 -17.5 6.5 C-18.72203125 6.82484375 -18.72203125 6.82484375 -19.96875 7.15625 C-22.35160671 7.92550009 -22.35160671 7.92550009 -24 11 C-22.8782037 12.7936743 -21.75245517 14.5848773 -20.625 16.375 C-19.99851562 17.37273438 -19.37203125 18.37046875 -18.7265625 19.3984375 C-17.10730288 22.0248019 -17.10730288 22.0248019 -15 24 C-15.99 24.66 -16.98 25.32 -18 26 C-18.48919922 25.09507813 -18.48919922 25.09507813 -18.98828125 24.171875 C-19.42527344 23.37265625 -19.86226562 22.5734375 -20.3125 21.75 C-20.74175781 20.96109375 -21.17101562 20.1721875 -21.61328125 19.359375 C-22.9396214 17.10272866 -24.38884224 15.06001403 -26 13 C-27.97536745 13.34786708 -27.97536745 13.34786708 -30 14 C-30.33 14.66 -30.66 15.32 -31 16 C-32.32 16 -33.64 16 -35 16 C-35.33 16.66 -35.66 17.32 -36 18 C-36.66 17.34 -37.32 16.68 -38 16 C-34.22108874 11.82062608 -30.4873124 9.3283697 -25.4375 6.875 C-24.38502075 6.35679688 -24.38502075 6.35679688 -23.3112793 5.828125 C-15.85987646 2.2765297 -8.33212041 -0.24020527 0 0 Z " fill="#E59B77" transform="translate(117,43)"/>
<path d="M0 0 C0.495 0.268125 0.99 0.53625 1.5 0.8125 C4.9236946 2.43875493 8.44132285 3.69515171 12 5 C5.78450215 18.45713921 -9.15450503 30.34831646 -19.6953125 40.6328125 C-21.97584794 42.97519296 -24.00299048 45.41401071 -26 48 C-28.46800047 46.84826645 -30.04783565 45.95216435 -32 44 C-31.5153125 43.59910156 -31.030625 43.19820312 -30.53125 42.78515625 C-16.65011943 31.01288975 -6.96107182 16.70657238 0 0 Z " fill="#2EB2C5" transform="translate(107,146)"/>
<path d="M0 0 C6.38395561 5.34167714 12.24426854 10.89095372 17.625 17.25 C20.14986632 20.19092781 22.46278016 22.28498432 26 24 C25.484375 23.154375 24.96875 22.30875 24.4375 21.4375 C22.71906691 17.32820347 22.89215996 15.27309728 24 11 C25.10546875 8.8046875 25.10546875 8.8046875 27 7 C30.35546875 6.609375 30.35546875 6.609375 34.1875 6.75 C36.09595703 6.80414063 36.09595703 6.80414063 38.04296875 6.859375 C39.01878906 6.90578125 39.99460938 6.9521875 41 7 C41 7.33 41 7.66 41 8 C40.16855469 8.02578125 39.33710938 8.0515625 38.48046875 8.078125 C37.39378906 8.13484375 36.30710938 8.1915625 35.1875 8.25 C33.56908203 8.31960937 33.56908203 8.31960937 31.91796875 8.390625 C28.88255768 8.72954022 28.88255768 8.72954022 27.11328125 11.046875 C26.56220703 12.01367188 26.56220703 12.01367188 26 13 C26.66 13.5775 27.32 14.155 28 14.75 C30 17 30 17 30 21 C34.29 21.66 38.58 22.32 43 23 C42.34 28.61 41.68 34.22 41 40 C37 40 37 40 35.25 38.625 C34 37 34 37 34 35 C33.01 35 32.02 35 31 35 C30.938125 34.38125 30.87625 33.7625 30.8125 33.125 C30.544375 32.42375 30.27625 31.7225 30 31 C29.29875 30.7525 28.5975 30.505 27.875 30.25 C24.10042143 28.60887888 22.30965877 26.1636969 19.71484375 23.03515625 C18.23734837 21.28168223 16.72313903 19.70096056 15.0625 18.125 C13 16 13 16 13 14 C12.401875 13.938125 11.80375 13.87625 11.1875 13.8125 C8.10102819 12.66609618 7.63519595 10.83014683 6 8 C4.96312396 6.91247962 3.89889543 5.85055465 2.8125 4.8125 C1.884375 3.884375 0.95625 2.95625 0 2 C0 1.34 0 0.68 0 0 Z " fill="#61222A" transform="translate(168,107)"/>
<path d="M0 0 C0.66 0 1.32 0 2 0 C2.33 0.66 2.66 1.32 3 2 C4.32 1.34 5.64 0.68 7 0 C7.1043335 0.53665283 7.20866699 1.07330566 7.31616211 1.6262207 C10.53861935 17.69415334 15.5471213 32.47445248 25 46 C24.67 46.66 24.34 47.32 24 48 C23.01 48 22.02 48 21 48 C19.515 48.495 19.515 48.495 18 49 C8.71040374 33.4859027 1.78613832 18.21861083 0 0 Z " fill="#272238" transform="translate(24,134)"/>
<path d="M0 0 C0.66 0 1.32 0 2 0 C2 6.93 2 13.86 2 21 C-2.95 22.485 -2.95 22.485 -8 24 C-10.71697038 25.35574404 -10.71697038 25.35574404 -12.8125 26.9375 C-13.53953125 27.45441406 -14.2665625 27.97132812 -15.015625 28.50390625 C-17.38424981 30.28970015 -19.72692511 32.09355009 -22 34 C-22.72462958 27.11601901 -22.72462958 27.11601901 -20.734375 24.05078125 C-19.69158173 22.88396645 -18.61703147 21.74448543 -17.5078125 20.640625 C-15.92673124 19.09325945 -15.92673124 19.09325945 -15.1796875 17.17578125 C-13.38401483 13.86389491 -10.69950373 11.53195229 -8 8.9375 C-3.67183338 4.75878134 -3.67183338 4.75878134 0 0 Z " fill="#C2F7EE" transform="translate(124,73)"/>
<path d="M0 0 C1.11346788 2.80033839 1.03510273 3.90143703 0.00390625 6.796875 C-0.47175781 7.77140625 -0.94742188 8.7459375 -1.4375 9.75 C-1.91058594 10.73484375 -2.38367187 11.7196875 -2.87109375 12.734375 C-3.24363281 13.48203125 -3.61617187 14.2296875 -4 15 C-0.81360234 15.22821192 2.37397656 15.42892029 5.5625 15.625 C6.90538086 15.72167969 6.90538086 15.72167969 8.27539062 15.8203125 C13.74053318 16.1406139 17.8146694 15.71062453 23 14 C25.9375 14.375 25.9375 14.375 28 15 C28 15.33 28 15.66 28 16 C25.03 16 22.06 16 19 16 C19 16.66 19 17.32 19 18 C18.34 18 17.68 18 17 18 C17 18.99 17 19.98 17 21 C16.34 21 15.68 21 15 21 C14.71125 21.9075 14.4225 22.815 14.125 23.75 C13.23468224 26.32202908 12.28505587 28.61346766 11 31 C8.13275314 30.42655063 7.1385485 30.1385485 5 28 C2.80708918 27.54337847 0.59414111 27.179588 -1.625 26.875 C-2.81351563 26.70742187 -4.00203125 26.53984375 -5.2265625 26.3671875 C-6.14179687 26.24601562 -7.05703125 26.12484375 -8 26 C-7.67331085 16.68935924 -4.13499141 8.26998281 0 0 Z " fill="#BA4824" transform="translate(52,87)"/>
<path d="M0 0 C16.18286896 0.06236173 30.2537904 7.11643875 44 15 C44 18 44 18 42 21 C38.46421122 19.70820523 35.29492665 18.06304072 32.03881836 16.18188477 C21.8127885 10.34402597 11.62007291 7.84417182 0 6 C0 4.02 0 2.04 0 0 Z " fill="#EDEEE5" transform="translate(136,31)"/>
<path d="M0 0 C0.66 0 1.32 0 2 0 C4.10315493 4.29089554 4.29206346 8.21074149 4.265625 12.8984375 C4.26753845 13.65162262 4.2694519 14.40480774 4.27142334 15.18081665 C4.27278006 16.76931087 4.26911953 18.35781636 4.26074219 19.94628906 C4.25006509 22.36028359 4.26063912 24.77352891 4.2734375 27.1875 C4.27211523 28.73698079 4.26955144 30.28646112 4.265625 31.8359375 C4.26967346 32.54970551 4.27372192 33.26347351 4.27789307 33.99887085 C4.23434279 38.72435444 3.46111499 42.55789123 2 47 C-1.50872581 41.73691129 -2.30172541 37.5117153 -2.265625 31.25 C-2.26753845 30.51426758 -2.2694519 29.77853516 -2.27142334 29.02050781 C-2.2727795 27.47069963 -2.26912289 25.92087987 -2.26074219 24.37109375 C-2.25003421 22.00755135 -2.26065641 19.64476894 -2.2734375 17.28125 C-2.2721158 15.77083167 -2.2695532 14.2604138 -2.265625 12.75 C-2.26967346 12.0477832 -2.27372192 11.34556641 -2.27789307 10.62207031 C-2.2401304 6.64359798 -1.74888022 3.58459661 0 0 Z " fill="#E2E6D9" transform="translate(125,191)"/>
<path d="M0 0 C0 3.93169105 -1.39419615 5.16427228 -4 8 C-4.66 8 -5.32 8 -6 8 C-6 14.93 -6 21.86 -6 29 C-12.54485587 28.34551441 -17.82592371 27.71502119 -24 26 C-19.75072252 20.97753595 -15.37658313 16.10934826 -10.875 11.3125 C-10.26785156 10.66216797 -9.66070312 10.01183594 -9.03515625 9.34179688 C-6.07254228 6.17586625 -3.09338881 3.03952384 0 0 Z " fill="#0B4367" transform="translate(123,179)"/>
<path d="M0 0 C0.84336914 -0.02126953 1.68673828 -0.04253906 2.55566406 -0.06445312 C8.02174359 -0.09473611 11.75086248 0.75381098 16.625 3.25 C12.88506486 6.98993514 8.60322313 7.39908881 3.5 7.5 C-5.49260991 7.36340339 -14.44401061 6.23840989 -23.375 5.25 C-23.375 3.93 -23.375 2.61 -23.375 1.25 C-15.58868815 0.4543185 -7.82321438 0.09804249 0 0 Z " fill="#E8ECE1" transform="translate(221.375,118.75)"/>
<path d="M0 0 C0.88075195 0.00644531 1.76150391 0.01289062 2.66894531 0.01953125 C9.99458299 0.10474405 17.26643038 0.51104321 24.5625 1.1875 C24.5625 2.5075 24.5625 3.8275 24.5625 5.1875 C16.94653604 6.1176859 9.41836957 6.37044904 1.75 6.375 C0.64462891 6.38724609 -0.46074219 6.39949219 -1.59960938 6.41210938 C-3.1996582 6.41500977 -3.1996582 6.41500977 -4.83203125 6.41796875 C-5.78956299 6.42207764 -6.74709473 6.42618652 -7.73364258 6.43041992 C-10.63341162 6.16989891 -12.8026289 5.39556072 -15.4375 4.1875 C-14.4375 2.1875 -14.4375 2.1875 -12.46484375 1.07421875 C-8.26999233 -0.15446676 -4.34711734 -0.06544399 0 0 Z " fill="#F2F5E6" transform="translate(30.4375,118.8125)"/>
<path d="M0 0 C0.33 0.66 0.66 1.32 1 2 C0.67 2.66 0.34 3.32 0 4 C0.66 4.33 1.32 4.66 2 5 C-0.32385453 7.67504798 -2.66119737 10.33801737 -5 13 C-5.79148437 13.91007813 -6.58296875 14.82015625 -7.3984375 15.7578125 C-8.59339844 17.11519531 -8.59339844 17.11519531 -9.8125 18.5 C-10.93591797 19.78390625 -10.93591797 19.78390625 -12.08203125 21.09375 C-14 23 -14 23 -16 23 C-18.27141454 17.60539047 -18.20413361 12.73842251 -18 7 C-16.67935547 6.87044922 -16.67935547 6.87044922 -15.33203125 6.73828125 C-7.84752656 6.14708335 -7.84752656 6.14708335 -1.6875 2.375 C-1.130625 1.59125 -0.57375 0.8075 0 0 Z " fill="#6F2825" transform="translate(62,124)"/>
<path d="M0 0 C1.35439668 2.70879335 1.06501451 5.00933268 1 8 C-2.75 10 -2.75 10 -5 10 C-8.1031863 12.83908534 -10.52050392 15.13690706 -12.5625 18.8125 C-14 21 -14 21 -16.6875 21.8125 C-17.450625 21.874375 -18.21375 21.93625 -19 22 C-19.33773437 21.44570312 -19.67546875 20.89140625 -20.0234375 20.3203125 C-20.46945313 19.59585938 -20.91546875 18.87140625 -21.375 18.125 C-21.81585938 17.40570313 -22.25671875 16.68640625 -22.7109375 15.9453125 C-23.9853713 13.88206418 -23.9853713 13.88206418 -26 12 C-26 10.68 -26 9.36 -26 8 C-23.48696195 8.43328242 -22.28483439 8.6780133 -20.5625 10.625 C-19.06033122 12.27237945 -19.06033122 12.27237945 -16.71875 11.86328125 C-13.27095075 10.76850591 -11.53016364 9.06700506 -8.9375 6.5625 C-6.08177421 3.82117925 -3.66676542 1.54969532 0 0 Z " fill="#1E1F35" transform="translate(143,107)"/>
<path d="M0 0 C0.66 0 1.32 0 2 0 C3.64802525 4.32820473 4.23933471 7.86985584 4.1953125 12.4921875 C4.18886719 13.69101562 4.18242187 14.88984375 4.17578125 16.125 C4.15902344 17.3625 4.14226562 18.6 4.125 19.875 C4.11597656 21.13570312 4.10695312 22.39640625 4.09765625 23.6953125 C4.07415808 26.7970704 4.04130334 29.89843652 4 33 C0.25 34.125 0.25 34.125 -2 33 C-2.05826088 28.6250563 -2.09368457 24.25021302 -2.125 19.875 C-2.14175781 18.6375 -2.15851563 17.4 -2.17578125 16.125 C-2.18222656 14.92617188 -2.18867187 13.72734375 -2.1953125 12.4921875 C-2.20578613 11.39245605 -2.21625977 10.29272461 -2.22705078 9.15966797 C-1.98673701 5.81543058 -1.18909337 3.12291305 0 0 Z " fill="#E2E4DF" transform="translate(125,16)"/>
<path d="M0 0 C1.98 0 3.96 0 6 0 C6.62774507 8.78843098 4.30784711 16.60314556 2 25 C0.02 24.67 -1.96 24.34 -4 24 C-4.19176941 19.39753428 -3.81064036 15.62268987 -2.578125 11.1328125 C-1.93724678 8.76849149 -1.40001857 6.39258462 -0.875 4 C-0.70742187 3.236875 -0.53984375 2.47375 -0.3671875 1.6875 C-0.24601563 1.130625 -0.12484375 0.57375 0 0 Z " fill="#C4CBC9" transform="translate(216,132)"/>
<path d="M0 0 C13.94747331 1.10815541 13.94747331 1.10815541 17.9375 4.8125 C20 8 20 8 20.1875 10.5625 C18.44920552 14.13057814 17.33315705 15.69242974 14 18 C9.66917694 18.7191791 5.38551284 18.92936949 1 19 C1 20.65 1 22.3 1 24 C0.67 24 0.34 24 0 24 C0 22.02 0 20.04 0 18 C0.99 17.67 1.98 17.34 3 17 C2.67 16.01 2.34 15.02 2 14 C5.3 13.67 8.6 13.34 12 13 C11.855625 12.278125 11.71125 11.55625 11.5625 10.8125 C11.04166667 8.20833333 10.52083333 5.60416667 10 3 C7.03 3 4.06 3 1 3 C0.67 2.01 0.34 1.02 0 0 Z " fill="#291936" transform="translate(43,112)"/>
<path d="M0 0 C5.24307336 4.28005988 9.65771923 8.81828071 14 14 C14.48855469 14.56203125 14.97710937 15.1240625 15.48046875 15.703125 C20.07436709 21.03797468 20.07436709 21.03797468 21 24 C20.625 27.25 20.625 27.25 20 30 C16.33601701 28.31029911 13.09167428 26.12699789 9.75 23.875 C8.67234375 23.15054688 7.5946875 22.42609375 6.484375 21.6796875 C5.66453125 21.12539062 4.8446875 20.57109375 4 20 C4.845625 19.2575 5.69125 18.515 6.5625 17.75 C9.20372473 15.35962338 9.20372473 15.35962338 9.06640625 12.9765625 C7.67686523 10.40107621 5.95011653 8.49765376 3.9375 6.375 C0 2.20913884 0 2.20913884 0 0 Z " fill="#0D557C" transform="translate(181,130)"/>
<path d="M0 0 C14.24069658 1.74563377 25.66292415 5.91613064 38 13 C38 13.66 38 14.32 38 15 C35.125 15.125 35.125 15.125 32 15 C31.34 14.34 30.68 13.68 30 13 C27.99013017 12.99312233 27.99013017 12.99312233 26 14 C24.28813235 15.96266838 24.28813235 15.96266838 22.875 18.375 C22.12863281 19.56222656 22.12863281 19.56222656 21.3671875 20.7734375 C20.91601562 21.50820312 20.46484375 22.24296875 20 23 C19.34 23.99 18.68 24.98 18 26 C17.875 23.625 17.875 23.625 18 21 C18.66 20.34 19.32 19.68 20 19 C20.6425235 16.93125966 20.6425235 16.93125966 21 15 C21.66 15 22.32 15 23 15 C23.4640625 14.0409375 23.4640625 14.0409375 23.9375 13.0625 C25 11 25 11 26 10 C18.88993026 6.54152163 11.02370742 3 3 3 C2.87625 3.5775 2.7525 4.155 2.625 4.75 C1.99351176 7.02335767 1.11141809 8.9253529 0 11 C-1.26026798 8.47946405 -0.91874445 7.1457902 -0.5625 4.375 C-0.46066406 3.55773438 -0.35882813 2.74046875 -0.25390625 1.8984375 C-0.17011719 1.27195313 -0.08632812 0.64546875 0 0 Z " fill="#EBA874" transform="translate(135,43)"/>
<path d="M0 0 C5.20950761 1.44977021 7.86590828 4.70518244 11.3125 8.625 C12.13717773 9.54152344 12.13717773 9.54152344 12.97851562 10.4765625 C14.32687556 11.97734573 15.66452501 13.48773965 17 15 C16.67 15.99 16.34 16.98 16 18 C14.35 16.02 12.7 14.04 11 12 C10.67 12.99 10.34 13.98 10 15 C9.34 15 8.68 15 8 15 C8.20625 15.61875 8.4125 16.2375 8.625 16.875 C8.74875 17.57625 8.8725 18.2775 9 19 C8.34 19.66 7.68 20.32 7 21 C2.10931511 14.15304115 0.69374914 8.21545036 0 0 Z " fill="#1199BD" transform="translate(149,144)"/>
<path d="M0 0 C0.33 0.66 0.66 1.32 1 2 C-0.65 3.65 -2.3 5.3 -4 7 C-2.59468094 10.39618772 -1.0056787 11.93359589 2 14 C4 16 4 16 4.8984375 17.9296875 C6.16259338 20.30558329 7.51985486 21.4703386 9.625 23.125 C11.5390625 24.6328125 11.5390625 24.6328125 13 26 C13 26.66 13 27.32 13 28 C9.38317647 27.44175115 8.02083171 26.25399273 5.75 23.4375 C2.07484592 19.02890953 -1.89620122 15.00786583 -6 11 C-9.44428265 12.44781793 -11.36130962 14.27694609 -13.75 17.125 C-14.36359375 17.84945312 -14.9771875 18.57390625 -15.609375 19.3203125 C-16.06828125 19.87460938 -16.5271875 20.42890625 -17 21 C-17.66 20.67 -18.32 20.34 -19 20 C-17.625 18 -17.625 18 -16 16 C-15.34 16 -14.68 16 -14 16 C-13.71125 15.38125 -13.4225 14.7625 -13.125 14.125 C-12 12 -12 12 -10 10 C-10.3185177 7.89179203 -10.3185177 7.89179203 -11 6 C-11.99 6 -12.98 6 -14 6 C-13.67 5.01 -13.34 4.02 -13 3 C-12.39671875 3.03480469 -11.7934375 3.06960937 -11.171875 3.10546875 C-6.07474512 3.3514449 -6.07474512 3.3514449 -1.4375 1.5 C-0.963125 1.005 -0.48875 0.51 0 0 Z " fill="#E78D65" transform="translate(133,53)"/>
<path d="M0 0 C0.33 1.98 0.66 3.96 1 6 C-6.00177279 8.41492814 -12.60860415 9.59248958 -20 10 C-20 8.35 -20 6.7 -20 5 C-17.23058394 4.16169027 -14.45964931 3.32917966 -11.6875 2.5 C-10.50897461 2.14228516 -10.50897461 2.14228516 -9.30664062 1.77734375 C-8.54931641 1.55175781 -7.79199219 1.32617188 -7.01171875 1.09375 C-6.31522217 0.88427734 -5.61872559 0.67480469 -4.90112305 0.45898438 C-3 0 -3 0 0 0 Z " fill="#939CA2" transform="translate(156,210)"/>
<path d="M0 0 C0.6875 1.6875 0.6875 1.6875 1 4 C-0.375 6.5 -0.375 6.5 -2 9 C-2.10441406 9.60328125 -2.20882812 10.2065625 -2.31640625 10.828125 C-3.31582927 14.0034347 -5.30583347 15.83441329 -7.5625 18.25 C-8.38878906 19.14203125 -9.21507813 20.0340625 -10.06640625 20.953125 C-10.70449219 21.62859375 -11.34257813 22.3040625 -12 23 C-14.46800047 21.84826645 -16.04783565 20.95216435 -18 19 C-17.5153125 18.59910156 -17.030625 18.19820312 -16.53125 17.78515625 C-10.31022734 12.50925049 -4.54000852 6.81001278 0 0 Z " fill="#4ABAC8" transform="translate(93,171)"/>
<path d="M0 0 C1.26457031 0.04640625 2.52914062 0.0928125 3.83203125 0.140625 C5.74048828 0.19476563 5.74048828 0.19476563 7.6875 0.25 C8.66332031 0.29640625 9.63914063 0.3428125 10.64453125 0.390625 C10.64453125 0.720625 10.64453125 1.050625 10.64453125 1.390625 C9.81308594 1.41640625 8.98164063 1.4421875 8.125 1.46875 C7.03832031 1.52546875 5.95164063 1.5821875 4.83203125 1.640625 C3.21361328 1.71023437 3.21361328 1.71023437 1.5625 1.78125 C-1.47291107 2.12016522 -1.47291107 2.12016522 -3.2421875 4.4375 C-3.60957031 5.08203125 -3.97695312 5.7265625 -4.35546875 6.390625 C-3.69546875 6.968125 -3.03546875 7.545625 -2.35546875 8.140625 C-0.35546875 10.390625 -0.35546875 10.390625 -0.35546875 14.390625 C3.93453125 15.050625 8.22453125 15.710625 12.64453125 16.390625 C12.31453125 19.360625 11.98453125 22.330625 11.64453125 25.390625 C11.31453125 25.390625 10.98453125 25.390625 10.64453125 25.390625 C10.64453125 22.750625 10.64453125 20.110625 10.64453125 17.390625 C9.76410156 17.46023437 8.88367188 17.52984375 7.9765625 17.6015625 C-1.1783647 18.02831826 -1.1783647 18.02831826 -4.3671875 16.30078125 C-6.93078594 13.53150729 -7.35546875 11.47694547 -7.35546875 7.765625 C-5.23511864 0.60944338 -5.23511864 0.60944338 0 0 Z " fill="#33172A" transform="translate(198.35546875,113.609375)"/>
<path d="M0 0 C2.31 0.66 4.62 1.32 7 2 C7.103125 2.78375 7.20625 3.5675 7.3125 4.375 C7.77595022 7.33045181 7.77595022 7.33045181 11 9 C11 9.66 11 10.32 11 11 C11.99 11.33 12.98 11.66 14 12 C15.4296875 13.41796875 15.4296875 13.41796875 16.875 15.1875 C17.390625 15.81140625 17.90625 16.4353125 18.4375 17.078125 C18.953125 17.71234375 19.46875 18.3465625 20 19 C20.95726613 20.14672506 21.91550068 21.29264286 22.875 22.4375 C23.57625 23.283125 24.2775 24.12875 25 25 C25.33 23.68 25.66 22.36 26 21 C26.66 21 27.32 21 28 21 C31 27.625 31 27.625 31 31 C27.35818477 30.42667654 25.71572695 29.06870972 23.1875 26.4375 C22.48625 25.71046875 21.785 24.9834375 21.0625 24.234375 C18.64480847 21.61520918 16.3202506 18.92742182 14.00390625 16.21875 C10.59633586 12.44584556 6.91335871 8.94900726 3.2578125 5.41796875 C1 3 1 3 0 0 Z " fill="#862F29" transform="translate(163,100)"/>
<path d="M0 0 C0.84498047 0.32871094 0.84498047 0.32871094 1.70703125 0.6640625 C2.03703125 1.9840625 2.36703125 3.3040625 2.70703125 4.6640625 C1.15854394 5.86977786 -0.40741081 7.05308424 -1.98046875 8.2265625 C-3.28564453 9.21849609 -3.28564453 9.21849609 -4.6171875 10.23046875 C-7.29296875 11.6640625 -7.29296875 11.6640625 -10.125 11.37890625 C-10.84042969 11.14300781 -11.55585938 10.90710938 -12.29296875 10.6640625 C-11.97618817 7.51773332 -11.69401433 6.04639804 -9.3671875 3.828125 C-8.57957031 3.32023437 -7.79195312 2.81234375 -6.98046875 2.2890625 C-6.20058594 1.76570313 -5.42070312 1.24234375 -4.6171875 0.703125 C-2.29296875 -0.3359375 -2.29296875 -0.3359375 0 0 Z " fill="#30172D" transform="translate(192.29296875,81.3359375)"/>
<path d="M0 0 C2.0625 0.4375 2.0625 0.4375 4 1 C4.71484375 2.671875 4.71484375 2.671875 5 5 C3.56640625 7.578125 3.56640625 7.578125 1.5625 10.25 C0.57443359 11.58804688 0.57443359 11.58804688 -0.43359375 12.953125 C-0.95050781 13.62859375 -1.46742188 14.3040625 -2 15 C-3.65 14.67 -5.3 14.34 -7 14 C-6.51726991 8.85087905 -3.66411915 3.66411915 0 0 Z " fill="#2D1D2A" transform="translate(162,55)"/>
<path d="M0 0 C4.2483874 1.52397063 5.85955574 4.21748049 8.09375 7.95703125 C9 10 9 10 8.8125 13 C8.544375 13.66 8.27625 14.32 8 15 C5.7109375 14.8046875 5.7109375 14.8046875 3 14 C1.1640625 11.8203125 1.1640625 11.8203125 -0.375 9.125 C-0.89835937 8.24070312 -1.42171875 7.35640625 -1.9609375 6.4453125 C-3 4 -3 4 -2 1 C-1.34 0.67 -0.68 0.34 0 0 Z " fill="#2D1F34" transform="translate(89,55)"/>
<path d="M0 0 C4.77609498 1.64178265 8.79382904 4.26546702 13 7 C12.67 8.65 12.34 10.3 12 12 C5.94462479 11.69723124 2.48516542 8.72245962 -2 5 C-1.125 1.125 -1.125 1.125 0 0 Z " fill="#2B1831" transform="translate(60,81)"/>
<path d="M0 0 C0 3 0 3 -1.64453125 5.04296875 C-2.35996094 5.75066406 -3.07539062 6.45835938 -3.8125 7.1875 C-4.52019531 7.90292969 -5.22789063 8.61835937 -5.95703125 9.35546875 C-8 11 -8 11 -11 11 C-11 11.99 -11 12.98 -11 14 C-12.65788785 15.34423339 -14.32576317 16.67618483 -16 18 C-17.78962819 20.61857695 -17.78962819 20.61857695 -19 23 C-18.01 23.33 -17.02 23.66 -16 24 C-16.61875 24.268125 -17.2375 24.53625 -17.875 24.8125 C-20.2995233 25.95556848 -20.2995233 25.95556848 -22 29 C-22.66 28.67 -23.32 28.34 -24 28 C-24 28.99 -24 29.98 -24 31 C-24.66 31 -25.32 31 -26 31 C-24.70080208 26.29386284 -22.91013373 23.26544582 -19.75 19.5625 C-18.53570312 18.13357422 -18.53570312 18.13357422 -17.296875 16.67578125 C-16.53890625 15.79277344 -15.7809375 14.90976563 -15 14 C-14.46890625 13.33355469 -13.9378125 12.66710937 -13.390625 11.98046875 C-9.53674423 7.1847688 -4.95199928 3.62046169 0 0 Z " fill="#D17F5A" transform="translate(79,57)"/>
<path d="M0 0 C0.73828125 1.70703125 0.73828125 1.70703125 1 4 C-3.72723024 11.03616018 -11.11119047 18.07432272 -18 23 C-19.32 23 -20.64 23 -22 23 C-21.505 21.515 -21.505 21.515 -21 20 C-21 20.66 -21 21.32 -21 22 C-19.93265625 20.93072266 -19.93265625 20.93072266 -18.84375 19.83984375 C-16.99623738 17.9916806 -15.14112969 16.15223578 -13.28125 14.31640625 C-8.63072385 9.71160156 -4.04364422 5.15913228 0 0 Z " fill="#291327" transform="translate(67,125)"/>
<path d="M0 0 C0.99 0.33 1.98 0.66 3 1 C3.3125 3.1875 3.3125 3.1875 3 6 C0.625 8.6875 0.625 8.6875 -2 11 C-2.66 11.66 -3.32 12.32 -4 13 C-6.125 12.625 -6.125 12.625 -8 12 C-7.84595887 6.91664275 -4.97931568 4.64245282 -1.49609375 1.35546875 C-1.00238281 0.90816406 -0.50867188 0.46085938 0 0 Z " fill="#134E6F" transform="translate(67,150)"/>
<path d="M0 0 C0.02578125 0.59167969 0.0515625 1.18335938 0.078125 1.79296875 C0.45704414 7.0720013 1.10636661 10.10636661 5 14 C3.68 13.67 2.36 13.34 1 13 C1 12.34 1 11.68 1 11 C0.34 11 -0.32 11 -1 11 C-1.33 8.03 -1.66 5.06 -2 2 C-2.96099609 2.29003906 -2.96099609 2.29003906 -3.94140625 2.5859375 C-5.73621235 3.1262517 -7.53182809 3.66388168 -9.328125 4.19921875 C-11.49373949 4.84826988 -13.6539963 5.51517918 -15.8125 6.1875 C-18.71071015 6.92625945 -21.03124453 7.17992457 -24 7 C-17.81039306 1.34861975 -8.10564776 -0.2384014 0 0 Z " fill="#DE9674" transform="translate(117,43)"/>
<path d="M0 0 C0 7.26 0 14.52 0 22 C-0.33 22 -0.66 22 -1 22 C-1.66 17.71 -2.32 13.42 -3 9 C-6.90432869 10.95216435 -9.03839944 12.87386607 -12 16 C-11.57594696 11.16756221 -9.23464128 8.55242545 -6 5.1875 C-5.5359375 4.68541016 -5.071875 4.18332031 -4.59375 3.66601562 C-1.16215986 0 -1.16215986 0 0 0 Z " fill="#87EEF0" transform="translate(126,154)"/>
<path d="M0 0 C4 2 4 2 6 4 C6.01691537 6.75720558 5.47716181 9.26716418 5 12 C4.67 12.33 4.34 12.66 4 13 C3.76807135 14.51469448 3.58784762 16.03754562 3.4375 17.5625 C3.31181641 18.80193359 3.31181641 18.80193359 3.18359375 20.06640625 C3.12300781 20.70449219 3.06242188 21.34257813 3 22 C3.99 22.33 4.98 22.66 6 23 C3.36 23 0.72 23 -2 23 C-1.01 22.67 -0.02 22.34 1 22 C0.67 14.74 0.34 7.48 0 0 Z " fill="#267FA4" transform="translate(125,72)"/>
<path d="M0 0 C0.88300781 0.80824219 1.76601562 1.61648437 2.67578125 2.44921875 C3.33964844 3.06410156 4.00351563 3.67898437 4.6875 4.3125 C4.3575 4.9725 4.0275 5.6325 3.6875 6.3125 C3.21699219 5.89097656 2.74648437 5.46945313 2.26171875 5.03515625 C1.63910156 4.48730469 1.01648438 3.93945312 0.375 3.375 C-0.23988281 2.82972656 -0.85476562 2.28445312 -1.48828125 1.72265625 C-3.36491958 0.11168441 -3.36491958 0.11168441 -6.3125 -0.6875 C-6.3125 -1.6775 -6.3125 -2.6675 -6.3125 -3.6875 C-10.79133696 -3.24046014 -10.79133696 -3.24046014 -14.3125 -0.6875 C-15.96241582 0.01960678 -17.62812256 0.69193989 -19.3125 1.3125 C-18.76526317 -2.06212715 -18.2576 -3.76985 -16.3125 -6.6875 C-8.97004816 -8.97181835 -5.21732905 -4.79994272 0 0 Z " fill="#E1825A" transform="translate(183.3125,64.6875)"/>
<path d="M0 0 C0.66 0 1.32 0 2 0 C2.99 1.32 3.98 2.64 5 4 C0.71 8.29 -3.58 12.58 -8 17 C-8.66 16.01 -9.32 15.02 -10 14 C-9.59007813 13.55269531 -9.18015625 13.10539063 -8.7578125 12.64453125 C-5.70429066 9.21845052 -3.507212 6.39603501 -2 2 C-1.34 1.34 -0.68 0.68 0 0 Z " fill="#33A4BB" transform="translate(100,165)"/>
<path d="M0 0 C0.66 0.66 1.32 1.32 2 2 C1.34 2 0.68 2 0 2 C-0.268125 2.598125 -0.53625 3.19625 -0.8125 3.8125 C-2.05317513 6.09795418 -2.92085706 7.44064279 -5 9 C-8.1875 9.6875 -8.1875 9.6875 -11 10 C-10.52619056 14.26428496 -7.96102273 16.11490093 -5 19 C-5 19.66 -5 20.32 -5 21 C-4.34 21 -3.68 21 -3 21 C-3.33 21.66 -3.66 22.32 -4 23 C-7.91939465 19.19588166 -11.49102731 15.18423892 -15 11 C-11.15304854 7.77352458 -7.0859098 5.01313638 -2.890625 2.26953125 C-1.07270473 1.13698792 -1.07270473 1.13698792 0 0 Z " fill="#105B7D" transform="translate(149,142)"/>
<path d="M0 0 C6.8509546 5.7324314 13.31603471 11.31829692 18 19 C14.89949222 18.98699997 11.9983882 18.82402512 9 18 C6.34501755 14.37956938 6 12.50279223 6 8 C4.71384679 6.30585714 4.71384679 6.30585714 3 4.875 C1.3125 3.3671875 1.3125 3.3671875 0 2 C0 1.34 0 0.68 0 0 Z " fill="#201734" transform="translate(150,88)"/>
<path d="M0 0 C2.10827055 3.16240582 2.33817465 4.50657469 2.625 8.1875 C2.69976562 9.08855469 2.77453125 9.98960938 2.8515625 10.91796875 C2.90054688 11.60503906 2.94953125 12.29210937 3 13 C0.69 13 -1.62 13 -4 13 C-4.33 10.03 -4.66 7.06 -5 4 C-3.35 3.67 -1.7 3.34 0 3 C0 2.01 0 1.02 0 0 Z " fill="#C7CECB" transform="translate(219,100)"/>
<path d="M0 0 C0.33 0 0.66 0 1 0 C1.66 4.29 2.32 8.58 3 13 C3.99 12.34 4.98 11.68 6 11 C6.66 12.65 7.32 14.3 8 16 C7.34 16 6.68 16 6 16 C5.6596875 17.1446875 5.6596875 17.1446875 5.3125 18.3125 C3.72014048 21.57304568 2.27263601 22.5273138 -1 24 C-1.66 23.67 -2.32 23.34 -3 23 C-2.319375 22.484375 -1.63875 21.96875 -0.9375 21.4375 C1.35529734 19.12439401 1.35529734 19.12439401 0.75 16 C0.55857422 15.11634766 0.55857422 15.11634766 0.36328125 14.21484375 C-0.40368152 9.53884493 -0.06984311 4.7260506 0 0 Z " fill="#181938" transform="translate(98,119)"/>
<path d="M0 0 C6.98358236 5.84340565 13.21679883 12.03573114 19.15625 18.93359375 C22.28468125 22.43982284 25.63936491 25.71792521 29 29 C28.67 29.66 28.34 30.32 28 31 C22.63703512 26.81427131 16.94416581 21.98659271 13.91796875 15.78125 C13.61503906 15.1934375 13.31210938 14.605625 13 14 C12.360625 13.855625 11.72125 13.71125 11.0625 13.5625 C7.98867378 12.72418376 7.56955482 10.71653719 6 8 C4.96312396 6.91247962 3.89889543 5.85055465 2.8125 4.8125 C1.884375 3.884375 0.95625 2.95625 0 2 C0 1.34 0 0.68 0 0 Z " fill="#3D1628" transform="translate(168,107)"/>
<path d="M0 0 C6.80588657 4.27346366 11.57580018 9.30049741 16 16 C16 16.66 16 17.32 16 18 C15.34 18 14.68 18 14 18 C13.67 18.66 13.34 19.32 13 20 C12.71125 19.38125 12.4225 18.7625 12.125 18.125 C11.06279958 15.86674235 11.06279958 15.86674235 9 14 C9 13.34 9 12.68 9 12 C8.34 12 7.68 12 7 12 C7 10.02 7 8.04 7 6 C4.03 5.505 4.03 5.505 1 5 C0.67 3.35 0.34 1.7 0 0 Z " fill="#E37343" transform="translate(182,66)"/>
<path d="M0 0 C8.74697572 1.07220993 16.73617613 2.93270682 25 6 C25 6.33 25 6.66 25 7 C19.23966145 6.45657183 13.968023 5.25714641 8.41796875 3.62109375 C5.93179846 2.87560528 5.93179846 2.87560528 3 3 C2.87625 3.5775 2.7525 4.155 2.625 4.75 C1.99351176 7.02335767 1.11141809 8.9253529 0 11 C-1.26026798 8.47946405 -0.91874445 7.1457902 -0.5625 4.375 C-0.46066406 3.55773438 -0.35882813 2.74046875 -0.25390625 1.8984375 C-0.17011719 1.27195313 -0.08632812 0.64546875 0 0 Z " fill="#E89B78" transform="translate(135,43)"/>
<path d="M0 0 C1.5625 1.5625 1.5625 1.5625 3 4 C2.71269945 6.33944736 2.38063221 8.6739143 2 11 C3.83333333 14.16666667 3.83333333 14.16666667 7 16 C6.01 16.66 5.02 17.32 4 18 C2.6827656 16.23268551 1.37136412 14.46102239 0.0625 12.6875 C-0.66839844 11.70136719 -1.39929687 10.71523437 -2.15234375 9.69921875 C-4 7 -4 7 -5 4 C-4.0409375 3.8453125 -4.0409375 3.8453125 -3.0625 3.6875 C-2.381875 3.460625 -1.70125 3.23375 -1 3 C-0.67 2.01 -0.34 1.02 0 0 Z " fill="#157294" transform="translate(58,159)"/>
<path d="M0 0 C0 4.09449281 -1.60436917 5.06330612 -4.375 8 C-6.82974174 10.61839119 -9.00653768 13.00980653 -11 16 C-11.99 16 -12.98 16 -14 16 C-14.2475 16.61875 -14.495 17.2375 -14.75 17.875 C-16.22047178 20.37480203 -17.41403076 20.83316022 -20 22 C-14.35637649 13.70055366 -7.15462835 6.97821286 0 0 Z " fill="#2F1622" transform="translate(109,81)"/>
<path d="M0 0 C1.32 0.66 2.64 1.32 4 2 C3.484375 2.7425 2.96875 3.485 2.4375 4.25 C0.75057228 6.83215454 0.75057228 6.83215454 1.3125 9.3125 C1.6528125 10.1478125 1.6528125 10.1478125 2 11 C-0.16873412 9.99308773 -2.00180164 8.99855869 -3.875 7.5 C-6.44868736 5.68327951 -8.99384452 4.8881823 -12 4 C-8.94736336 3.01879536 -7.05263664 3.01879536 -4 4 C-3.67 3.01 -3.34 2.02 -3 1 C-2.01 1.33 -1.02 1.66 0 2 C0 1.34 0 0.68 0 0 Z " fill="#0D6595" transform="translate(145,92)"/>
<path d="M0 0 C4.74996912 0.70369913 7.70531276 3.70531276 11 7 C11.29648438 7.63679688 11.59296875 8.27359375 11.8984375 8.9296875 C13.16259338 11.30558329 14.51985486 12.4703386 16.625 14.125 C18.5390625 15.6328125 18.5390625 15.6328125 20 17 C20 17.66 20 18.32 20 19 C16.41392087 18.43991823 15.06144391 17.29868576 12.8125 14.5 C9.34784274 10.33487942 5.60325837 6.56210289 1.72265625 2.78515625 C0 1 0 1 0 0 Z " fill="#D87559" transform="translate(126,62)"/>
<path d="M0 0 C0.59765625 1.84765625 0.59765625 1.84765625 1 4 C-1.6529338 8.13857673 -5.22115206 10.91522617 -9 14 C-9.86625 14.9075 -10.7325 15.815 -11.625 16.75 C-13.90204267 18.90719832 -14.94743703 19.66082634 -18 20 C-15.22952547 16.45032951 -12.45607459 13.45565335 -9 10.5625 C-5.26038893 7.38949666 -2.67659937 4.09854278 0 0 Z " fill="#50C3CA" transform="translate(93,171)"/>
<path d="M0 0 C0.66 0.66 1.32 1.32 2 2 C-2.81191572 6.92440206 -7.70987876 11.59156563 -13 16 C-13.66 15.67 -14.32 15.34 -15 15 C-10.44384499 9.40243813 -5.73849846 4.42684167 0 0 Z " fill="#391721" transform="translate(83,109)"/>
<path d="M0 0 C2.31 0.66 4.62 1.32 7 2 C7.103125 2.78375 7.20625 3.5675 7.3125 4.375 C7.77595022 7.33045181 7.77595022 7.33045181 11 9 C11 9.66 11 10.32 11 11 C11.99 11.33 12.98 11.66 14 12 C15.37195574 13.29355827 16.71182656 14.62298702 18 16 C17.67 16.99 17.34 17.98 17 19 C14.3460351 16.40401115 11.70329296 13.79688166 9.0625 11.1875 C8.30775391 10.44951172 7.55300781 9.71152344 6.77539062 8.95117188 C6.05673828 8.23896484 5.33808594 7.52675781 4.59765625 6.79296875 C3.93258057 6.1383667 3.26750488 5.48376465 2.58227539 4.80932617 C1 3 1 3 0 0 Z " fill="#90362E" transform="translate(163,100)"/>
<path d="M0 0 C0.33 0.99 0.66 1.98 1 3 C-0.26034587 4.50882261 -1.53363649 6.00684044 -2.8125 7.5 C-3.52019531 8.3353125 -4.22789063 9.170625 -4.95703125 10.03125 C-7 12 -7 12 -10 12 C-10 12.99 -10 13.98 -10 15 C-11.32 15.33 -12.64 15.66 -14 16 C-10.36558725 9.72237798 -5.18706746 5.00888576 0 0 Z " fill="#132143" transform="translate(88,150)"/>
<path d="M0 0 C0.92683594 0.01353516 1.85367188 0.02707031 2.80859375 0.04101562 C5.08133998 0.07616119 7.35285847 0.12535868 9.625 0.1875 C9.625 0.5175 9.625 0.8475 9.625 1.1875 C3.355 1.1875 -2.915 1.1875 -9.375 1.1875 C-8.715 2.8375 -8.055 4.4875 -7.375 6.1875 C-14.125 5.4375 -14.125 5.4375 -16.375 3.1875 C-10.88970259 -0.28409188 -6.26006464 -0.17413875 0 0 Z " fill="#BFBFC1" transform="translate(31.375,118.8125)"/>
<path d="M0 0 C0.99 0.33 1.98 0.66 3 1 C0.36 3.97 -2.28 6.94 -5 10 C-7.64 9.34 -10.28 8.68 -13 8 C-13 7.67 -13 7.34 -13 7 C-12.05125 6.896875 -11.1025 6.79375 -10.125 6.6875 C-6.70892499 6.31460705 -6.70892499 6.31460705 -5 3 C-3.67405895 2.63837971 -2.34061543 2.30271961 -1 2 C-0.67 1.34 -0.34 0.68 0 0 Z " fill="#2FB9C7" transform="translate(106,194)"/>
<path d="M0 0 C3.125 0.375 3.125 0.375 6 1 C5.01 3.31 4.02 5.62 3 8 C1.35 8 -0.3 8 -2 8 C-2.125 5.125 -2.125 5.125 -2 2 C-1.34 1.34 -0.68 0.68 0 0 Z " fill="#E6E7E4" transform="translate(130,101)"/>
<path d="M0 0 C2.98704569 0.49784095 4.39324263 1.26216175 7 3 C6.67 3.99 6.34 4.98 6 6 C3.36 6.33 0.72 6.66 -2 7 C-1.125 1.125 -1.125 1.125 0 0 Z " fill="#D5D6D6" transform="translate(135,103)"/>
<path d="M0 0 C0.28875 0.639375 0.5775 1.27875 0.875 1.9375 C1.82823451 4.15206079 1.82823451 4.15206079 4 5 C2.35 6.32 0.7 7.64 -1 9 C-2.32 8.34 -3.64 7.68 -5 7 C-3.70700306 4.11562221 -2.34058637 2.12780579 0 0 Z " fill="#191C37" transform="translate(73,166)"/>
<path d="M0 0 C0.99 0.33 1.98 0.66 3 1 C2.38511719 1.68835938 2.38511719 1.68835938 1.7578125 2.390625 C1.21898438 3.00421875 0.68015625 3.6178125 0.125 4.25 C-0.40867187 4.85328125 -0.94234375 5.4565625 -1.4921875 6.078125 C-2.9797487 7.97418746 -4.00322436 9.81290005 -5 12 C-5.66 12 -6.32 12 -7 12 C-8.625 10 -8.625 10 -10 8 C-9.01 7.67 -8.02 7.34 -7 7 C-5.49985609 5.66710346 -5.49985609 5.66710346 -4 4 C-2.66666667 2.66666667 -1.33333333 1.33333333 0 0 Z " fill="#71F0F6" transform="translate(77,141)"/>
<path d="M0 0 C0.99 0 1.98 0 3 0 C3.33 2.31 3.66 4.62 4 7 C2.35 7.33 0.7 7.66 -1 8 C-1.625 5.6875 -1.625 5.6875 -2 3 C-1.34 2.01 -0.68 1.02 0 0 Z " fill="#24162D" transform="translate(157,62)"/>
<path d="M0 0 C3.3503698 0.57764997 4.68233772 1.58576846 7 4 C9.09989652 5.17574711 9.09989652 5.17574711 11 6 C8.69 6.66 6.38 7.32 4 8 C2 6.25 2 6.25 0 4 C0 2.68 0 1.36 0 0 Z " fill="#2E2A44" transform="translate(117,115)"/>
<path d="M0 0 C0.66 0.33 1.32 0.66 2 1 C1.36191406 1.84304687 0.72382812 2.68609375 0.06640625 3.5546875 C-0.76831357 4.66139468 -1.60294437 5.76816901 -2.4375 6.875 C-2.85837891 7.43058594 -3.27925781 7.98617187 -3.71289062 8.55859375 C-6.05745944 11.65092886 -6.05745944 11.65092886 -8 15 C-8.66 15 -9.32 15 -10 15 C-8.67494706 8.5403669 -4.40590065 4.61082626 0 0 Z " fill="#1C2941" transform="translate(109,100)"/>
<path d="M0 0 C2.64465038 3.1254959 3.84414715 6.08788267 5 10 C2.5625 9.1875 2.5625 9.1875 0 8 C-0.33 7.01 -0.66 6.02 -1 5 C-2.98 5.33 -4.96 5.66 -7 6 C-5.625 4.5 -5.625 4.5 -4 3 C-3.34 3 -2.68 3 -2 3 C-2 2.34 -2 1.68 -2 1 C-1.34 0.67 -0.68 0.34 0 0 Z " fill="#BC5832" transform="translate(198,83)"/>
<path d="M0 0 C0.66 0.66 1.32 1.32 2 2 C0.04808712 4.17277152 -1.91097537 6.33822461 -3.875 8.5 C-4.43058594 9.12003906 -4.98617187 9.74007812 -5.55859375 10.37890625 C-6.09355469 10.96542969 -6.62851563 11.55195312 -7.1796875 12.15625 C-7.67194824 12.70087891 -8.16420898 13.24550781 -8.67138672 13.80664062 C-10 15 -10 15 -12 15 C-10.38462556 11.10082032 -7.72075127 8.28706228 -4.875 5.25 C-4.40707031 4.74339844 -3.93914062 4.23679687 -3.45703125 3.71484375 C-2.30873459 2.47280859 -1.15491328 1.23588506 0 0 Z " fill="#AADFDD" transform="translate(107,91)"/>
<path d="M0 0 C2.375 0.25 2.375 0.25 5 1 C6.1875 3 6.1875 3 7 5 C7.66 5.33 8.32 5.66 9 6 C9.33 4.02 9.66 2.04 10 0 C10.66 0.33 11.32 0.66 12 1 C11.67 3.31 11.34 5.62 11 8 C7 8 7 8 5.25 6.625 C4 5 4 5 4 3 C3.01 3 2.02 3 1 3 C0.67 2.01 0.34 1.02 0 0 Z " fill="#3D1A2D" transform="translate(198,139)"/>
<path d="M0 0 C0.99 0.33 1.98 0.66 3 1 C0.03 4.3 -2.94 7.6 -6 11 C-7.32 9.68 -8.64 8.36 -10 7 C-7.50907189 5.75453595 -6.58919267 6.2232422 -4 7 C-3.71125 6.21625 -3.4225 5.4325 -3.125 4.625 C-2 2 -2 2 0 0 Z " fill="#B75336" transform="translate(93,94)"/>
<path d="M0 0 C1.85625 -0.061875 1.85625 -0.061875 3.75 -0.125 C4.79414063 -0.15980469 4.79414063 -0.15980469 5.859375 -0.1953125 C8 0 8 0 12 2 C8.7 2 5.4 2 2 2 C2.33 4.31 2.66 6.62 3 9 C2.01 8.67 1.02 8.34 0 8 C0 5.36 0 2.72 0 0 Z " fill="#302E3B" transform="translate(134,29)"/>
<path d="M0 0 C0.33 0.99 0.66 1.98 1 3 C-1.91200245 7.56696036 -5.59795923 11.69041436 -11 13 C-10.62488281 12.56429687 -10.24976562 12.12859375 -9.86328125 11.6796875 C-6.54140223 7.81392401 -3.25357073 3.92342352 0 0 Z " fill="#68CCD3" transform="translate(113,167)"/>
<path d="M0 0 C0.8046875 1.6484375 0.8046875 1.6484375 1 4 C-0.56554071 6.07746657 -2.05493848 7.80005895 -3.875 9.625 C-7.33450093 13.01521445 -7.33450093 13.01521445 -10 17 C-10.66 16.67 -11.32 16.34 -12 16 C-8 10.66666667 -4 5.33333333 0 0 Z " fill="#1593AC" transform="translate(84,135)"/>
<path d="M0 0 C2.8913784 0.40158033 4.67236367 0.74403411 7 2.5625 C9.48908319 4.35152855 11.00256744 4.24978605 14 4 C14 4.99 14 5.98 14 7 C5.73517787 6.02766798 5.73517787 6.02766798 2 4 C0.6875 1.875 0.6875 1.875 0 0 Z " fill="#C35835" transform="translate(59,88)"/>
<path d="M0 0 C0.66 0 1.32 0 2 0 C0.38102741 3.30081791 -1.35924309 6.52557433 -3.125 9.75 C-3.66382813 10.73484375 -4.20265625 11.7196875 -4.7578125 12.734375 C-5.16773438 13.48203125 -5.57765625 14.2296875 -6 15 C-6.33 15 -6.66 15 -7 15 C-7.125 12.625 -7.125 12.625 -7 10 C-6.34 9.34 -5.68 8.68 -5 8 C-4.3574765 5.93125966 -4.3574765 5.93125966 -4 4 C-3.34 4 -2.68 4 -2 4 C-1.34 2.68 -0.68 1.36 0 0 Z " fill="#E28863" transform="translate(160,54)"/>
<path d="M0 0 C10.24714829 8.57414449 10.24714829 8.57414449 14 13 C14 13.66 14 14.32 14 15 C13.01 15 12.02 15 11 15 C10.608125 14.34 10.21625 13.68 9.8125 13 C7.58181532 9.30783226 4.76971025 6.71451975 1.64453125 3.76953125 C0 2 0 2 0 0 Z " fill="#491C22" transform="translate(150,88)"/>
<path d="M0 0 C0.99 0.33 1.98 0.66 3 1 C2.62403791 3.78211944 2.32681541 5.5879284 0.5625 7.8125 C-1 9 -1 9 -3 9 C-2.67 7.02 -2.34 5.04 -2 3 C-1.34 3 -0.68 3 0 3 C0 2.01 0 1.02 0 0 Z " fill="#0B8BB7" transform="translate(97,133)"/>
<path d="M0 0 C2.29353747 0.25450481 4.58485203 0.52911147 6.875 0.8125 C8.15117188 0.96332031 9.42734375 1.11414063 10.7421875 1.26953125 C14 2 14 2 16 5 C8.575 4.01 8.575 4.01 1 3 C0.67 2.01 0.34 1.02 0 0 Z " fill="#3E1E2B" transform="translate(43,112)"/>
<path d="M0 0 C2.97 0 5.94 0 9 0 C9 1.32 9 2.64 9 4 C3.48 4.368 3.48 4.368 1.125 2.5625 C0 1 0 1 0 0 Z " fill="#E9EAE6" transform="translate(46,120)"/>
<path d="M0 0 C2.10353495 -0.0810206 4.20795952 -0.13919907 6.3125 -0.1875 C7.48425781 -0.22230469 8.65601563 -0.25710937 9.86328125 -0.29296875 C13 0 13 0 14.91796875 1.44921875 C16 3 16 3 16 4 C13.69 4 11.38 4 9 4 C9 3.34 9 2.68 9 2 C6.03 1.67 3.06 1.34 0 1 C0 0.67 0 0.34 0 0 Z " fill="#FAFBF3" transform="translate(33,120)"/>
<path d="M0 0 C1.08069919 2.75742037 1.03310018 3.90125812 0.07421875 6.76171875 C-0.61220703 8.20998047 -0.61220703 8.20998047 -1.3125 9.6875 C-1.76238281 10.66074219 -2.21226563 11.63398437 -2.67578125 12.63671875 C-4 15 -4 15 -6 16 C-4.43551329 10.3856009 -2.83604813 5.13189662 0 0 Z " fill="#B2563C" transform="translate(52,87)"/>
<path d="M0 0 C0.33 0 0.66 0 1 0 C1.36923077 4.55384615 1.36923077 4.55384615 -0.5 6.8125 C-0.995 7.204375 -1.49 7.59625 -2 8 C-3.32 7.34 -4.64 6.68 -6 6 C-4 4 -2 2 0 0 Z " fill="#45B2C3" transform="translate(83,186)"/>
<path d="M0 0 C0.33 0.99 0.66 1.98 1 3 C-0.07421875 4.7890625 -0.07421875 4.7890625 -1.6875 6.625 C-2.20699219 7.23601562 -2.72648437 7.84703125 -3.26171875 8.4765625 C-5.181038 10.15866252 -6.50835704 10.59829721 -9 11 C-8.06558465 9.72689688 -7.12732889 8.456612 -6.1875 7.1875 C-5.66542969 6.47980469 -5.14335938 5.77210938 -4.60546875 5.04296875 C-3.16871123 3.21468607 -1.68184237 1.60103312 0 0 Z " fill="#50B7C5" transform="translate(101,180)"/>
<path d="M0 0 C1.98 0 3.96 0 6 0 C6 2.97 6 5.94 6 9 C5.34 7.68 4.68 6.36 4 5 C1.9664052 3.73195434 1.9664052 3.73195434 0 3 C0 2.01 0 1.02 0 0 Z " fill="#658299" transform="translate(216,132)"/>
<path d="M0 0 C1.1446875 0.3403125 1.1446875 0.3403125 2.3125 0.6875 C1.69375 1.120625 1.075 1.55375 0.4375 2 C-1.9072245 3.68490483 -1.9072245 3.68490483 -3.6875 6.6875 C-4.3475 6.3575 -5.0075 6.0275 -5.6875 5.6875 C-5.6875 6.6775 -5.6875 7.6675 -5.6875 8.6875 C-6.3475 8.6875 -7.0075 8.6875 -7.6875 8.6875 C-5.0095 -0.5825 -5.0095 -0.5825 0 0 Z " fill="#D87951" transform="translate(60.6875,79.3125)"/>
<path d="M0 0 C0.66 0.66 1.32 1.32 2 2 C-0.64 4.64 -3.28 7.28 -6 10 C-6.99 9.67 -7.98 9.34 -9 9 C-6.03 6.03 -3.06 3.06 0 0 Z " fill="#83D2D6" transform="translate(70,131)"/>
<path d="M0 0 C0 0.99 0 1.98 0 3 C-0.66 3 -1.32 3 -2 3 C-2 3.99 -2 4.98 -2 6 C-3.98 6.99 -3.98 6.99 -6 8 C-6.33 6.68 -6.66 5.36 -7 4 C-2.25 0 -2.25 0 0 0 Z " fill="#1E1530" transform="translate(193,83)"/>
<path d="M0 0 C0.33 0 0.66 0 1 0 C1.17942163 3.94727588 1.09350689 6.5980513 -1 10 C-1.99 10 -2.98 10 -4 10 C-4 8.68 -4 7.36 -4 6 C-3.34 6 -2.68 6 -2 6 C-1.34 4.02 -0.68 2.04 0 0 Z " fill="#181D36" transform="translate(129,244)"/>
<path d="M0 0 C0.33 0.99 0.66 1.98 1 3 C-2.3 6.3 -5.6 9.6 -9 13 C-9.66 12.67 -10.32 12.34 -11 12 C-10.54109375 11.55269531 -10.0821875 11.10539063 -9.609375 10.64453125 C-6.16447701 7.25029352 -2.92744915 3.86423288 0 0 Z " fill="#9ADDDE" transform="translate(82,118)"/>
<path d="M0 0 C1.32 0 2.64 0 4 0 C4 2.31 4 4.62 4 7 C2.68 6.67 1.36 6.34 0 6 C0 4.02 0 2.04 0 0 Z " fill="#37383D" transform="translate(124,103)"/>
<path d="M0 0 C0.33 0.99 0.66 1.98 1 3 C0.01 3.66 -0.98 4.32 -2 5 C-1.34 6.32 -0.68 7.64 0 9 C-2.31 7.02 -4.62 5.04 -7 3 C-3 1 -3 1 0 0 Z " fill="#C25531" transform="translate(162,90)"/>
<path d="M0 0 C0.33 0 0.66 0 1 0 C1.05429959 1.74965358 1.09292823 3.49979787 1.125 5.25 C1.14820313 6.22453125 1.17140625 7.1990625 1.1953125 8.203125 C0.99862781 11.0196498 0.44568916 12.60949036 -1 15 C-1.66 12.69 -2.32 10.38 -3 8 C-2.01 7.67 -1.02 7.34 0 7 C0 4.69 0 2.38 0 0 Z " fill="#DBE3DD" transform="translate(127,223)"/>
<path d="M0 0 C0.33 0.99 0.66 1.98 1 3 C-0.375 4.5 -0.375 4.5 -2 6 C-2.66 6 -3.32 6 -4 6 C-4.28875 6.639375 -4.5775 7.27875 -4.875 7.9375 C-6 10 -6 10 -8 11 C-7.43040847 7.37386801 -6.07625466 5.74482259 -3.4375 3.25 C-2.79683594 2.63640625 -2.15617188 2.0228125 -1.49609375 1.390625 C-1.00238281 0.93171875 -0.50867188 0.4728125 0 0 Z " fill="#DDE1DD" transform="translate(139,115)"/>
<path d="M0 0 C0.99 0.66 1.98 1.32 3 2 C0.64722731 4.72426311 -1.62496331 5.8141763 -5 7 C-4.75 4.625 -4.75 4.625 -4 2 C-1.9375 0.6875 -1.9375 0.6875 0 0 Z " fill="#E37A4C" transform="translate(169,59)"/>
<path d="M0 0 C2.97 0.33 5.94 0.66 9 1 C9 2.98 9 4.96 9 7 C7.02 7 5.04 7 3 7 C4.32 6.67 5.64 6.34 7 6 C6.67 5.01 6.34 4.02 6 3 C2.99152582 1.77479736 2.99152582 1.77479736 0 1 C0 0.67 0 0.34 0 0 Z " fill="#9098A2" transform="translate(107,213)"/>
<path d="M0 0 C1.10868317 3.32604951 1.54177532 6.53058454 2 10 C3.32 9.67 4.64 9.34 6 9 C6 9.66 6 10.32 6 11 C4.68 11.33 3.36 11.66 2 12 C-2.04893617 5.61985816 -2.04893617 5.61985816 -1.8125 2.625 C-1 1 -1 1 0 0 Z " fill="#69D0DA" transform="translate(51,151)"/>
<path d="M0 0 C0.33 0.99 0.66 1.98 1 3 C0.34 3.66 -0.32 4.32 -1 5 C-1.309375 5.825 -1.61875 6.65 -1.9375 7.5 C-3 10 -3 10 -6 12 C-4.81819916 6.97734643 -3.55007718 3.9050849 0 0 Z " fill="#3BB3C0" transform="translate(99,163)"/>
<path d="M0 0 C0.66 0 1.32 0 2 0 C2.103125 1.11375 2.20625 2.2275 2.3125 3.375 C2.539375 4.57125 2.76625 5.7675 3 7 C3.99 7.66 4.98 8.32 6 9 C4.02 9.99 4.02 9.99 2 11 C0.57741188 7.17679443 -0.24042276 4.08718695 0 0 Z " fill="#5A252F" transform="translate(44,136)"/>
<path d="M0 0 C0.33 0 0.66 0 1 0 C1 2.64 1 5.28 1 8 C0.67 7.34 0.34 6.68 0 6 C-1.32 6.99 -2.64 7.98 -4 9 C-4.66 8.67 -5.32 8.34 -6 8 C-5.02471263 6.66382648 -4.04466681 5.3311249 -3.0625 4 C-2.24458984 2.88625 -2.24458984 2.88625 -1.41015625 1.75 C-0.94480469 1.1725 -0.47945313 0.595 0 0 Z " fill="#1A98BA" transform="translate(96,120)"/>
<path d="M0 0 C0.66 0 1.32 0 2 0 C0.55922954 3.36179774 -1.24750021 5.59156268 -4 8 C-4.66 8 -5.32 8 -6 8 C-5.67 6.68 -5.34 5.36 -5 4 C-4.0409375 3.8453125 -4.0409375 3.8453125 -3.0625 3.6875 C-2.381875 3.460625 -1.70125 3.23375 -1 3 C-0.67 2.01 -0.34 1.02 0 0 Z " fill="#CC7055" transform="translate(113,74)"/>
<path d="M0 0 C0.99 0.33 1.98 0.66 3 1 C-0.96 4.465 -0.96 4.465 -5 8 C-5.66 7.67 -6.32 7.34 -7 7 C-4.69 4.69 -2.38 2.38 0 0 Z " fill="#97CECE" transform="translate(78,169)"/>
<path d="M0 0 C0.33 0 0.66 0 1 0 C1 2.64 1 5.28 1 8 C-0.9375 7.1875 -0.9375 7.1875 -3 6 C-3.33 5.01 -3.66 4.02 -4 3 C-2.68 2.67 -1.36 2.34 0 2 C0 1.34 0 0.68 0 0 Z " fill="#279DB7" transform="translate(57,160)"/>
<path d="M0 0 C0.99 0.66 1.98 1.32 3 2 C-0.465 4.97 -0.465 4.97 -4 8 C-3.6875 5.125 -3.6875 5.125 -3 2 C-2.01 1.34 -1.02 0.68 0 0 Z " fill="#5FD4D9" transform="translate(64,149)"/>
<path d="M0 0 C0.66 0.66 1.32 1.32 2 2 C-1.465 4.97 -1.465 4.97 -5 8 C-3.375 2.25 -3.375 2.25 0 0 Z " fill="#2B152A" transform="translate(83,109)"/>
<path d="M0 0 C4 4.75 4 4.75 4 7 C3.34 7 2.68 7 2 7 C1.67 7.66 1.34 8.32 1 9 C0.71125 8.38125 0.4225 7.7625 0.125 7.125 C-0.93720042 4.86674235 -0.93720042 4.86674235 -3 3 C-2.01 3 -1.02 3 0 3 C0 2.01 0 1.02 0 0 Z " fill="#C8734B" transform="translate(194,77)"/>
<path d="M0 0 C0.99 0.495 0.99 0.495 2 1 C2.39310414 3.32288812 2.50749695 5.61845176 2.65625 7.96875 C2.82640625 8.97421875 2.82640625 8.97421875 3 10 C3.66 10.33 4.32 10.66 5 11 C1.125 10.125 1.125 10.125 0 9 C-0.07179964 7.48071962 -0.08392007 5.95832518 -0.0625 4.4375 C-0.05347656 3.61121094 -0.04445313 2.78492188 -0.03515625 1.93359375 C-0.02355469 1.29550781 -0.01195313 0.65742187 0 0 Z " fill="#341A26" transform="translate(117,43)"/>
<path d="M0 0 C1.98 0 3.96 0 6 0 C6 1.32 6 2.64 6 4 C4.02 4 2.04 4 0 4 C0 2.68 0 1.36 0 0 Z " fill="#85929C" transform="translate(136,216)"/>
<path d="M0 0 C0.99 0.33 1.98 0.66 3 1 C1.02 3.31 -0.96 5.62 -3 8 C-3.33 6.68 -3.66 5.36 -4 4 C-2.0625 1.75 -2.0625 1.75 0 0 Z " fill="#75E3E5" transform="translate(118,162)"/>
<path d="M0 0 C0.66 0.66 1.32 1.32 2 2 C-0.64 4.64 -3.28 7.28 -6 10 C-6.66 9.67 -7.32 9.34 -8 9 C-5.36 6.03 -2.72 3.06 0 0 Z " fill="#A7DCDA" transform="translate(100,145)"/>
<path d="M0 0 C0.94875 0.04125 1.8975 0.0825 2.875 0.125 C2.875 0.455 2.875 0.785 2.875 1.125 C0.895 1.785 -1.085 2.445 -3.125 3.125 C-3.125 4.775 -3.125 6.425 -3.125 8.125 C-4.45833333 7.45833333 -5.79166667 6.79166667 -7.125 6.125 C-4.34782609 0.17391304 -4.34782609 0.17391304 0 0 Z " fill="#1D1936" transform="translate(200.125,114.875)"/>
<path d="M0 0 C2.1875 0.3125 2.1875 0.3125 4 1 C4.33 2.32 4.66 3.64 5 5 C3.02 5.99 3.02 5.99 1 7 C1 6.34 1 5.68 1 5 C1.66 5 2.32 5 3 5 C3 4.01 3 3.02 3 2 C1.02 2.33 -0.96 2.66 -3 3 C-1.75 1.4375 -1.75 1.4375 0 0 Z " fill="#3D1D21" transform="translate(190,81)"/>
<path d="M0 0 C1.65 1.65 3.3 3.3 5 5 C4.34 5 3.68 5 3 5 C2.67 5.99 2.34 6.98 2 8 C1.34 8 0.68 8 0 8 C0 5.36 0 2.72 0 0 Z " fill="#261628" transform="translate(141,79)"/>
<path d="M0 0 C0 1.65 0 3.3 0 5 C-0.99 5 -1.98 5 -3 5 C-3.33 5.66 -3.66 6.32 -4 7 C-4.66 6.34 -5.32 5.68 -6 5 C-1.125 0 -1.125 0 0 0 Z " fill="#EB9566" transform="translate(85,54)"/>
<path d="M0 0 C0.99 0.66 1.98 1.32 3 2 C1.71186658 2.83878455 0.41936744 3.67086783 -0.875 4.5 C-1.59429687 4.9640625 -2.31359375 5.428125 -3.0546875 5.90625 C-5 7 -5 7 -7 7 C-7 6.34 -7 5.68 -7 5 C-4 3 -4 3 -1 3 C-0.67 2.01 -0.34 1.02 0 0 Z " fill="#152041" transform="translate(141,145)"/>
<path d="M0 0 C1.98 0 3.96 0 6 0 C6.33 1.65 6.66 3.3 7 5 C6.67 4.34 6.34 3.68 6 3 C4.02 3 2.04 3 0 3 C0 2.01 0 1.02 0 0 Z " fill="#587E92" transform="translate(31,132)"/>
<path d="M0 0 C0.61875 0.144375 1.2375 0.28875 1.875 0.4375 C6.22537017 1.22056663 10.60021907 1.59846659 15 2 C15 2.33 15 2.66 15 3 C12.87561661 3.08078641 10.7503677 3.13909141 8.625 3.1875 C7.44164062 3.22230469 6.25828125 3.25710937 5.0390625 3.29296875 C3.53472656 3.14794922 3.53472656 3.14794922 2 3 C1.34 2.01 0.68 1.02 0 0 Z " fill="#2D1329" transform="translate(193,127)"/>
<path d="M0 0 C0.33 0.66 0.66 1.32 1 2 C0.67 2.66 0.34 3.32 0 4 C0.66 4.33 1.32 4.66 2 5 C1.67 5.66 1.34 6.32 1 7 C-0.32 7 -1.64 7 -3 7 C-2.25 2.25 -2.25 2.25 0 0 Z " fill="#872D20" transform="translate(62,124)"/>
<path d="M0 0 C2.475 0.99 2.475 0.99 5 2 C4.67 2.99 4.34 3.98 4 5 C2.68 4.67 1.36 4.34 0 4 C0 2.68 0 1.36 0 0 Z " fill="#414451" transform="translate(109,112)"/>
<path d="M0 0 C0.66 0 1.32 0 2 0 C2 0.66 2 1.32 2 2 C2.66 2.33 3.32 2.66 4 3 C2.68 4.32 1.36 5.64 0 7 C0 6.34 0 5.68 0 5 C-0.66 5 -1.32 5 -2 5 C-1.34 3.35 -0.68 1.7 0 0 Z " fill="#291727" transform="translate(59,70)"/>
<path d="M0 0 C1.65 0 3.3 0 5 0 C5 1.32 5 2.64 5 4 C3.35 4 1.7 4 0 4 C0 2.68 0 1.36 0 0 Z " fill="#2F2F3B" transform="translate(106,122)"/>
<path d="M0 0 C1.65 0 3.3 0 5 0 C5 1.32 5 2.64 5 4 C3.35 4 1.7 4 0 4 C0 2.68 0 1.36 0 0 Z " fill="#22212C" transform="translate(142,122)"/>
<path d="M0 0 C2.31 0.66 4.62 1.32 7 2 C7 3.32 7 4.64 7 6 C5.1875 5.8125 5.1875 5.8125 3 5 C1.25 2.4375 1.25 2.4375 0 0 Z " fill="#A53D2A" transform="translate(163,100)"/>
<path d="M0 0 C1.98 0 3.96 0 6 0 C5.34 1.32 4.68 2.64 4 4 C3.01 4 2.02 4 1 4 C0.67 2.68 0.34 1.36 0 0 Z " fill="#2B142D" transform="translate(196,78)"/>
<path d="M0 0 C0.66 0 1.32 0 2 0 C1.67 1.65 1.34 3.3 1 5 C-0.65 4.67 -2.3 4.34 -4 4 C-4 3.34 -4 2.68 -4 2 C-2.68 2 -1.36 2 0 2 C0 1.34 0 0.68 0 0 Z " fill="#2C122B" transform="translate(96,65)"/>
<path d="M0 0 C0.66 0.33 1.32 0.66 2 1 C-0.25 3.5625 -0.25 3.5625 -3 6 C-4.32 5.67 -5.64 5.34 -7 5 C-4.69 3.35 -2.38 1.7 0 0 Z " fill="#9EA5A8" transform="translate(183,194)"/>
<path d="M0 0 C0.99 0.33 1.98 0.66 3 1 C-0.465 3.97 -0.465 3.97 -4 7 C-4 5.68 -4 4.36 -4 3 C-2.1875 1.1875 -2.1875 1.1875 0 0 Z " fill="#2C2E41" transform="translate(84,160)"/>
<path d="M0 0 C0.99 0.33 1.98 0.66 3 1 C1.625 3.5 1.625 3.5 0 6 C-0.66 6 -1.32 6 -2 6 C-3.625 4 -3.625 4 -5 2 C-3.35 2 -1.7 2 0 2 C0 1.34 0 0.68 0 0 Z " fill="#5BE1EB" transform="translate(72,147)"/>
<path d="M0 0 C0.66 1.32 1.32 2.64 2 4 C0 7 0 7 -2.625 7.6875 C-3.800625 7.8421875 -3.800625 7.8421875 -5 8 C-4.360625 7.236875 -3.72125 6.47375 -3.0625 5.6875 C-0.85767219 3.11753287 -0.85767219 3.11753287 0 0 Z " fill="#10284E" transform="translate(100,135)"/>
<path d="M0 0 C1.32 0 2.64 0 4 0 C4.33 1.65 4.66 3.3 5 5 C3.68 4.67 2.36 4.34 1 4 C0.67 2.68 0.34 1.36 0 0 Z " fill="#2A2B2E" transform="translate(115,105)"/>
<path d="M0 0 C2.1519437 3.22791555 2.20086443 4.28400809 2 8 C0.68 8 -0.64 8 -2 8 C-2 7.01 -2 6.02 -2 5 C-1.34 5 -0.68 5 0 5 C0 3.35 0 1.7 0 0 Z " fill="#D7E2DB" transform="translate(219,104)"/>
<path d="M0 0 C0.66 0 1.32 0 2 0 C3.6875 2.3125 3.6875 2.3125 5 5 C4.67 5.99 4.34 6.98 4 8 C1 6 1 6 0.3125 2.875 C0.209375 1.92625 0.10625 0.9775 0 0 Z " fill="#E88D65" transform="translate(85,59)"/>
<path d="M0 0 C0.99 0.33 1.98 0.66 3 1 C1.68 2.32 0.36 3.64 -1 5 C-2.32 4.34 -3.64 3.68 -5 3 C-4.67 2.34 -4.34 1.68 -4 1 C-3.01 1 -2.02 1 -1 1 C-0.67 0.67 -0.34 0.34 0 0 Z " fill="#132242" transform="translate(65,174)"/>
<path d="M0 0 C0.99 0 1.98 0 3 0 C3 1.98 3 3.96 3 6 C2.01 6 1.02 6 0 6 C0 4.02 0 2.04 0 0 Z " fill="#202226" transform="translate(125,138)"/>
<path d="M0 0 C0.99 0 1.98 0 3 0 C2.67 1.65 2.34 3.3 2 5 C1.01 5 0.02 5 -1 5 C-0.67 3.35 -0.34 1.7 0 0 Z " fill="#2A2B33" transform="translate(134,105)"/>
<path d="M0 0 C0.66 0.66 1.32 1.32 2 2 C0.02 3.98 -1.96 5.96 -4 8 C-4.66 7.67 -5.32 7.34 -6 7 C-4.625 5 -4.625 5 -3 3 C-2.34 3 -1.68 3 -1 3 C-0.67 2.01 -0.34 1.02 0 0 Z " fill="#E17D62" transform="translate(120,66)"/>
<path d="M0 0 C0.66 0.33 1.32 0.66 2 1 C2 1.99 2 2.98 2 4 C0 5.6875 0 5.6875 -2 7 C-2 5.02 -2 3.04 -2 1 C-1.34 0.67 -0.68 0.34 0 0 Z " fill="#E4B087" transform="translate(87,52)"/>
<path d="M0 0 C0.33 0.66 0.66 1.32 1 2 C-0.375 4 -0.375 4 -2 6 C-2.66 6 -3.32 6 -4 6 C-4 6.66 -4 7.32 -4 8 C-4.66 7.67 -5.32 7.34 -6 7 C-4.02 4.69 -2.04 2.38 0 0 Z " fill="#0B6E88" transform="translate(115,187)"/>
<path d="M0 0 C0.99 0 1.98 0 3 0 C2.67 1.98 2.34 3.96 2 6 C1.01 6 0.02 6 -1 6 C-0.67 4.02 -0.34 2.04 0 0 Z " fill="#27ADBD" transform="translate(101,159)"/>
<path d="M0 0 C0.99 0.33 1.98 0.66 3 1 C4.1875 3.5625 4.1875 3.5625 5 6 C5.66 6 6.32 6 7 6 C6.67 6.66 6.34 7.32 6 8 C1.125 3.375 1.125 3.375 0 0 Z " fill="#11678C" transform="translate(139,157)"/>
<path d="M0 0 C1.32 0.33 2.64 0.66 4 1 C4 2.32 4 3.64 4 5 C3.01 5 2.02 5 1 5 C0.67 3.35 0.34 1.7 0 0 Z " fill="#2E3142" transform="translate(133,137)"/>
<path d="M0 0 C0.99 0.33 1.98 0.66 3 1 C2.34 2.32 1.68 3.64 1 5 C0.01 4.67 -0.98 4.34 -2 4 C-1.34 2.68 -0.68 1.36 0 0 Z " fill="#2C2E31" transform="translate(117,137)"/>
<path d="M0 0 C1.32 0 2.64 0 4 0 C4 0.99 4 1.98 4 3 C2.35 3.33 0.7 3.66 -1 4 C-0.67 2.68 -0.34 1.36 0 0 Z " fill="#242533" transform="translate(110,131)"/>
<path d="M0 0 C0.99 0 1.98 0 3 0 C3 1.65 3 3.3 3 5 C1.68 4.67 0.36 4.34 -1 4 C-0.67 2.68 -0.34 1.36 0 0 Z " fill="#110D3E" transform="translate(125,122)"/>
<path d="M0 0 C0.66 1.32 1.32 2.64 2 4 C0.02 4.99 0.02 4.99 -2 6 C-2.33 5.01 -2.66 4.02 -3 3 C-2.01 2.01 -1.02 1.02 0 0 Z " fill="#393A4B" transform="translate(142,111)"/>
<path d="M0 0 C2.375 0.3125 2.375 0.3125 5 1 C5.66 1.99 6.32 2.98 7 4 C4.36 3.67 1.72 3.34 -1 3 C-0.67 2.01 -0.34 1.02 0 0 Z " fill="#2D152A" transform="translate(161,103)"/>
<path d="M0 0 C0.99 0.33 1.98 0.66 3 1 C2.67 2.32 2.34 3.64 2 5 C0.68 5.33 -0.64 5.66 -2 6 C-1.34 4.02 -0.68 2.04 0 0 Z " fill="#B24425" transform="translate(83,102)"/>
<path d="M0 0 C1.2380014 3.57644848 0.74926071 6.33694766 0 10 C-0.66 10 -1.32 10 -2 10 C-1.54177532 6.53058454 -1.10868317 3.32604951 0 0 Z " fill="#364657" transform="translate(29,91)"/>
<path d="M0 0 C2.31 1.98 4.62 3.96 7 6 C6.01 6.33 5.02 6.66 4 7 C2 6 2 6 0.875 2.9375 C0.58625 1.968125 0.2975 0.99875 0 0 Z " fill="#2F1121" transform="translate(127,64)"/>
<path d="M0 0 C2.475 0.99 2.475 0.99 5 2 C5 2.66 5 3.32 5 4 C3.02 4 1.04 4 -1 4 C-0.67 2.68 -0.34 1.36 0 0 Z " fill="#EA9965" transform="translate(168,54)"/>
<path d="M0 0 C0.66 0.33 1.32 0.66 2 1 C1.67 1.66 1.34 2.32 1 3 C-1.64860427 3.59355614 -4.29197322 3.74209269 -7 4 C-4.61426621 2.10786631 -2.92824652 0.97608217 0 0 Z " fill="#C98D73" transform="translate(100,46)"/>
<path d="M0 0 C-0.66 1.32 -1.32 2.64 -2 4 C-4.97 3.505 -4.97 3.505 -8 3 C-5.36657694 0.36657694 -3.69534435 0 0 0 Z " fill="#19182D" transform="translate(160,43)"/>
</svg>
