{
  "accessors": [
    {
      "bufferView": 2,
      "componentType": 5126,
      "count": 887,
      "max": [
        0.36976295709609985,
        -0.018654271960258484,
        0.43630605936050415
      ],
      "min": [
        -0.28148671984672546,
        -0.1588839590549469,
        -0.559374213218689
      ],
      "type": "VEC3"
    },
    {
      "bufferView": 2,
      "byteOffset": 10644,
      "componentType": 5126,
      "count": 887,
      "max": [
        0.8162921667098999,
        -0.39397570490837097,
        0.5268189311027527
      ],
      "min": [
        -0.83537358045578,
        -1.0,
        -0.8329854011535645
      ],
      "type": "VEC3"
    },
    {
      "bufferView": 1,
      "componentType": 5126,
      "count": 887,
      "max": [
        0.0,
        1.0
      ],
      "min": [
        0.0,
        1.0
      ],
      "type": "VEC2"
    },
    {
      "bufferView": 0,
      "componentType": 5125,
      "count": 3660,
      "type": "SCALAR"
    },
    {
      "bufferView": 2,
      "byteOffset": 21288,
      "componentType": 5126,
      "count": 1415,
      "max": [
        0.36976295709609985,
        0.16850827634334564,
        0.4985184371471405
      ],
      "min": [
        -0.29483938217163086,
        -0.14945963025093079,
        -0.559374213218689
      ],
      "type": "VEC3"
    },
    {
      "bufferView": 2,
      "byteOffset": 38268,
      "componentType": 5126,
      "count": 1415,
      "max": [
        0.9999837875366211,
        0.9998176097869873,
        1.0
      ],
      "min": [
        -0.9999837875366211,
        -0.9994081854820251,
        -1.0
      ],
      "type": "VEC3"
    },
    {
      "bufferView": 1,
      "byteOffset": 7096,
      "componentType": 5126,
      "count": 1415,
      "max": [
        1.0,
        1.0
      ],
      "min": [
        0.0,
        0.0
      ],
      "type": "VEC2"
    },
    {
      "bufferView": 0,
      "byteOffset": 14640,
      "componentType": 5125,
      "count": 6348,
      "type": "SCALAR"
    },
    {
      "bufferView": 2,
      "byteOffset": 55248,
      "componentType": 5126,
      "count": 998,
      "max": [
        1.855465054512024,
        -0.21879351139068604,
        3.136669397354126
      ],
      "min": [
        -1.855465054512024,
        -1.8191341161727905,
        -3.5238778591156006
      ],
      "type": "VEC3"
    },
    {
      "bufferView": 2,
      "byteOffset": 67224,
      "componentType": 5126,
      "count": 998,
      "max": [
        0.9998301267623901,
        0.9998176097869873,
        0.9789080023765564
      ],
      "min": [
        -0.9998301267623901,
        -0.9998194575309753,
        -0.9595023393630981
      ],
      "type": "VEC3"
    },
    {
      "bufferView": 1,
      "byteOffset": 18416,
      "componentType": 5126,
      "count": 998,
      "max": [
        1.0,
        1.0
      ],
      "min": [
        0.0,
        0.0
      ],
      "type": "VEC2"
    },
    {
      "bufferView": 0,
      "byteOffset": 40032,
      "componentType": 5125,
      "count": 4416,
      "type": "SCALAR"
    },
    {
      "bufferView": 2,
      "byteOffset": 79200,
      "componentType": 5126,
      "count": 526,
      "max": [
        0.9804291129112244,
        1.344744324684143,
        0.9804291129112244
      ],
      "min": [
        -0.9804291129112244,
        -1.344744324684143,
        -0.9804291129112244
      ],
      "type": "VEC3"
    },
    {
      "bufferView": 2,
      "byteOffset": 85512,
      "componentType": 5126,
      "count": 526,
      "max": [
        1.0,
        0.9644412398338318,
        1.0
      ],
      "min": [
        -1.0,
        -0.9644412398338318,
        -1.0
      ],
      "type": "VEC3"
    },
    {
      "bufferView": 1,
      "byteOffset": 26400,
      "componentType": 5126,
      "count": 526,
      "max": [
        1.0,
        0.9900000095367432
      ],
      "min": [
        0.0,
        0.0
      ],
      "type": "VEC2"
    },
    {
      "bufferView": 0,
      "byteOffset": 57696,
      "componentType": 5125,
      "count": 2100,
      "type": "SCALAR"
    },
    {
      "bufferView": 2,
      "byteOffset": 91824,
      "componentType": 5126,
      "count": 198,
      "max": [
        1.0,
        0.7336846590042114,
        1.0
      ],
      "min": [
        -1.0,
        -0.7336846590042114,
        -1.0
      ],
      "type": "VEC3"
    },
    {
      "bufferView": 2,
      "byteOffset": 94200,
      "componentType": 5126,
      "count": 198,
      "max": [
        1.0,
        0.5224317312240601,
        1.0
      ],
      "min": [
        -1.0,
        -0.5224317312240601,
        -1.0
      ],
      "type": "VEC3"
    },
    {
      "bufferView": 1,
      "byteOffset": 30608,
      "componentType": 5126,
      "count": 198,
      "max": [
        1.0,
        0.5
      ],
      "min": [
        0.0,
        0.0
      ],
      "type": "VEC2"
    },
    {
      "bufferView": 0,
      "byteOffset": 66096,
      "componentType": 5125,
      "count": 576,
      "type": "SCALAR"
    },
    {
      "bufferView": 2,
      "byteOffset": 96576,
      "componentType": 5126,
      "count": 158,
      "max": [
        0.02866552397608757,
        0.0484519861638546,
        0.03618249669671059
      ],
      "min": [
        -0.03536297380924225,
        -0.020083237439393997,
        -0.10545739531517029
      ],
      "type": "VEC3"
    },
    {
      "bufferView": 2,
      "byteOffset": 98472,
      "componentType": 5126,
      "count": 158,
      "max": [
        0.9641000032424927,
        0.9674807190895081,
        0.9388968348503113
      ],
      "min": [
        -0.9675989747047424,
        -0.9811192750930786,
        -0.9577775001525879
      ],
      "type": "VEC3"
    },
    {
      "bufferView": 1,
      "byteOffset": 32192,
      "componentType": 5126,
      "count": 158,
      "max": [
        0.8687894344329834,
        0.9934107661247253
      ],
      "min": [
        0.125,
        0.0
      ],
      "type": "VEC2"
    },
    {
      "bufferView": 0,
      "byteOffset": 68400,
      "componentType": 5125,
      "count": 276,
      "type": "SCALAR"
    },
    {
      "bufferView": 2,
      "byteOffset": 100368,
      "componentType": 5126,
      "count": 163,
      "max": [
        0.011209242977201939,
        0.048470403999090195,
        0.04669208079576492
      ],
      "min": [
        -0.040072403848171234,
        -0.019856693223118782,
        -0.10833896696567535
      ],
      "type": "VEC3"
    },
    {
      "bufferView": 2,
      "byteOffset": 102324,
      "componentType": 5126,
      "count": 163,
      "max": [
        0.9908132553100586,
        0.9691359400749207,
        0.9952254891395569
      ],
      "min": [
        -0.9903302788734436,
        -0.9938201904296875,
        -0.9198952913284302
      ],
      "type": "VEC3"
    },
    {
      "bufferView": 1,
      "byteOffset": 33456,
      "componentType": 5126,
      "count": 163,
      "max": [
        0.8689097166061401,
        0.9858928322792053
      ],
      "min": [
        0.125,
        0.0
      ],
      "type": "VEC2"
    },
    {
      "bufferView": 0,
      "byteOffset": 69504,
      "componentType": 5125,
      "count": 276,
      "type": "SCALAR"
    },
    {
      "bufferView": 2,
      "byteOffset": 104280,
      "componentType": 5126,
      "count": 278,
      "max": [
        0.027927681803703308,
        0.01481067854911089,
        0.04851962625980377
      ],
      "min": [
        -0.028050970286130905,
        -0.02083396539092064,
        -0.03192656859755516
      ],
      "type": "VEC3"
    },
    {
      "bufferView": 2,
      "byteOffset": 107616,
      "componentType": 5126,
      "count": 278,
      "max": [
        1.0,
        0.9992966651916504,
        0.9962608814239502
      ],
      "min": [
        -1.0,
        -1.0,
        -0.9824021458625793
      ],
      "type": "VEC3"
    },
    {
      "bufferView": 1,
      "byteOffset": 34760,
      "componentType": 5126,
      "count": 278,
      "max": [
        0.8619701266288757,
        1.0
      ],
      "min": [
        0.125,
        0.0
      ],
      "type": "VEC2"
    },
    {
      "bufferView": 0,
      "byteOffset": 70608,
      "componentType": 5125,
      "count": 444,
      "type": "SCALAR"
    }
  ],
  "asset": {
    "extras": {
      "author": "pilotcandle5470 (https://sketchfab.com/runzew68)",
      "license": "CC-BY-4.0 (http://creativecommons.org/licenses/by/4.0/)",
      "source": "https://sketchfab.com/3d-models/computer-mouse-d1cbf7fe835745e7b1ee117855784565",
      "title": "computer mouse"
    },
    "generator": "Sketchfab-16.61.0",
    "version": "2.0"
  },
  "bufferViews": [
    {
      "buffer": 0,
      "byteLength": 72384,
      "name": "floatBufferViews",
      "target": 34963
    },
    {
      "buffer": 0,
      "byteLength": 36984,
      "byteOffset": 72384,
      "byteStride": 8,
      "name": "floatBufferViews",
      "target": 34962
    },
    {
      "buffer": 0,
      "byteLength": 110952,
      "byteOffset": 109368,
      "byteStride": 12,
      "name": "floatBufferViews",
      "target": 34962
    }
  ],
  "buffers": [
    {
      "byteLength": 220320,
      "uri": "scene.bin"
    }
  ],
  "materials": [
    {
      "doubleSided": true,
      "name": ".002",
      "pbrMetallicRoughness": {
        "baseColorFactor": [
          0.0331028,
          0.0331028,
          0.0331028,
          1.0
        ],
        "metallicFactor": 0.0,
        "roughnessFactor": 0.5
      }
    },
    {
      "doubleSided": true,
      "name": ".001",
      "pbrMetallicRoughness": {
        "baseColorFactor": [
          0.0258423,
          0.0258423,
          0.0258423,
          1.0
        ],
        "metallicFactor": 0.0,
        "roughnessFactor": 0.3
      }
    },
    {
      "doubleSided": true,
      "name": "material",
      "pbrMetallicRoughness": {
        "baseColorFactor": [
          0.206402,
          0.206402,
          0.206402,
          1.0
        ],
        "metallicFactor": 0.0,
        "roughnessFactor": 0.3
      }
    },
    {
      "doubleSided": true,
      "name": ".003",
      "pbrMetallicRoughness": {
        "baseColorFactor": [
          0.548849,
          0.548849,
          0.548849,
          1.0
        ],
        "metallicFactor": 0.0,
        "roughnessFactor": 0.5
      }
    },
    {
      "doubleSided": true,
      "name": ".004",
      "pbrMetallicRoughness": {
        "baseColorFactor": [
          0.012806,
          0.012806,
          0.012806,
          1.0
        ],
        "metallicFactor": 0.0,
        "roughnessFactor": 0.5
      }
    }
  ],
  "meshes": [
    {
      "name": "Object_0",
      "primitives": [
        {
          "attributes": {
            "NORMAL": 1,
            "POSITION": 0,
            "TEXCOORD_0": 2
          },
          "indices": 3,
          "material": 0,
          "mode": 4
        }
      ]
    },
    {
      "name": "Object_1",
      "primitives": [
        {
          "attributes": {
            "NORMAL": 5,
            "POSITION": 4,
            "TEXCOORD_0": 6
          },
          "indices": 7,
          "material": 1,
          "mode": 4
        }
      ]
    },
    {
      "name": "Object_2",
      "primitives": [
        {
          "attributes": {
            "NORMAL": 9,
            "POSITION": 8,
            "TEXCOORD_0": 10
          },
          "indices": 11,
          "material": 2,
          "mode": 4
        }
      ]
    },
    {
      "name": "Object_3",
      "primitives": [
        {
          "attributes": {
            "NORMAL": 13,
            "POSITION": 12,
            "TEXCOORD_0": 14
          },
          "indices": 15,
          "material": 3,
          "mode": 4
        }
      ]
    },
    {
      "name": "Object_4",
      "primitives": [
        {
          "attributes": {
            "NORMAL": 17,
            "POSITION": 16,
            "TEXCOORD_0": 18
          },
          "indices": 19,
          "material": 4,
          "mode": 4
        }
      ]
    },
    {
      "name": "Object_5",
      "primitives": [
        {
          "attributes": {
            "NORMAL": 21,
            "POSITION": 20,
            "TEXCOORD_0": 22
          },
          "indices": 23,
          "material": 4,
          "mode": 4
        }
      ]
    },
    {
      "name": "Object_6",
      "primitives": [
        {
          "attributes": {
            "NORMAL": 25,
            "POSITION": 24,
            "TEXCOORD_0": 26
          },
          "indices": 27,
          "material": 4,
          "mode": 4
        }
      ]
    },
    {
      "name": "Object_7",
      "primitives": [
        {
          "attributes": {
            "NORMAL": 29,
            "POSITION": 28,
            "TEXCOORD_0": 30
          },
          "indices": 31,
          "material": 4,
          "mode": 4
        }
      ]
    }
  ],
  "nodes": [
    {
      "children": [
        1
      ],
      "matrix": [
        1.0,
        0.0,
        0.0,
        0.0,
        0.0,
        2.220446049250313e-16,
        -1.0,
        0.0,
        0.0,
        1.0,
        2.220446049250313e-16,
        0.0,
        0.0,
        0.0,
        0.0,
        1.0
      ],
      "name": "Sketchfab_model"
    },
    {
      "children": [
        2
      ],
      "name": "root"
    },
    {
      "children": [
        3,
        5,
        7,
        9,
        12,
        14,
        16
      ],
      "matrix": [
        1.0,
        0.0,
        0.0,
        0.0,
        0.0,
        2.220446049250313e-16,
        1.0,
        0.0,
        0.0,
        -1.0,
        2.220446049250313e-16,
        0.0,
        0.0,
        0.0,
        0.0,
        1.0
      ],
      "name": "GLTF_SceneRootNode"
    },
    {
      "children": [
        4
      ],
      "name": "base_0"
    },
    {
      "mesh": 0,
      "name": "Object_4"
    },
    {
      "children": [
        6
      ],
      "name": "body_1"
    },
    {
      "mesh": 1,
      "name": "Object_6"
    },
    {
      "children": [
        8
      ],
      "matrix": [
        0.15873825550079346,
        0.0,
        0.0,
        0.0,
        0.0,
        0.15873825550079346,
        0.0,
        0.0,
        0.0,
        0.0,
        0.15873825550079346,
        0.0,
        0.0,
        0.21048930287361145,
        0.0,
        1.0
      ],
      "name": "plane_2"
    },
    {
      "mesh": 2,
      "name": "Object_8"
    },
    {
      "children": [
        10,
        11
      ],
      "matrix": [
        0.0,
        -0.09541776031255722,
        0.0,
        0.0,
        0.02411079965531826,
        0.0,
        0.0,
        0.0,
        0.0,
        -0.0,
        0.09541776031255722,
        0.0,
        0.0,
        -0.010147862136363983,
        0.25887128710746765,
        1.0
      ],
      "name": "round_3"
    },
    {
      "mesh": 3,
      "name": "Object_10"
    },
    {
      "mesh": 4,
      "name": "Object_11"
    },
    {
      "children": [
        13
      ],
      "matrix": [
        1.0,
        0.0,
        0.0,
        0.0,
        0.0,
        1.0,
        0.0,
        0.0,
        0.0,
        0.0,
        1.0,
        0.0,
        0.2559901177883148,
        0.03810757398605347,
        0.05904212221503258,
        1.0
      ],
      "name": "sidebutton1_4"
    },
    {
      "mesh": 5,
      "name": "Object_13"
    },
    {
      "children": [
        15
      ],
      "matrix": [
        0.9307060139698284,
        1.5201670477971163e-10,
        -0.3657681172004928,
        0.0,
        0.028335796906184776,
        -0.996994738666446,
        0.07210113511670076,
        0.0,
        -0.3646688884098627,
        -0.07746929115091535,
        -0.9279089991774461,
        0.0,
        0.221818208694458,
        0.09001301974058151,
        -0.14568401873111725,
        1.0
      ],
      "name": "sidebutton2_5"
    },
    {
      "mesh": 6,
      "name": "Object_15"
    },
    {
      "children": [
        17
      ],
      "matrix": [
        1.0,
        0.0,
        0.0,
        0.0,
        0.0,
        1.0,
        0.0,
        0.0,
        0.0,
        0.0,
        1.0,
        0.0,
        6.164124351926148e-05,
        0.1478724181652069,
        0.05958366394042969,
        1.0
      ],
      "name": "topbutton_6"
    },
    {
      "mesh": 7,
      "name": "Object_17"
    }
  ],
  "scene": 0,
  "scenes": [
    {
      "name": "Sketchfab_Scene",
      "nodes": [
        0
      ]
    }
  ]
}
