<svg width="93" height="93" viewBox="0 0 93 93" fill="none" xmlns="http://www.w3.org/2000/svg">
<rect x="40.1338" y="4.38599" width="58.877" height="53.5475" transform="rotate(45 40.1338 4.38599)" fill="white"/>
<path d="M90.71 42.4081L50.591 2.29111C48.281 -0.0198886 44.534 -0.0198886 42.222 2.29111L33.892 10.6231L44.459 21.1901C46.915 20.3601 49.731 20.9171 51.688 22.8751C53.657 24.8451 54.209 27.6851 53.358 30.1501L63.544 40.3351C66.009 39.4851 68.851 40.0351 70.819 42.0061C73.569 44.7561 73.569 49.2121 70.819 51.9641C68.067 54.7151 63.611 54.7151 60.858 51.9641C58.79 49.8941 58.278 46.8541 59.327 44.3061L49.827 34.8071V59.8041C50.497 60.1361 51.13 60.5781 51.688 61.1361C54.438 63.8861 54.438 68.3421 51.688 71.0951C48.938 73.8441 44.479 73.8441 41.731 71.0951C38.981 68.3411 38.981 63.8851 41.731 61.1361C42.411 60.4571 43.198 59.9431 44.038 59.5991V34.3691C43.198 34.0251 42.413 33.5161 41.731 32.8321C39.648 30.7501 39.147 27.6921 40.215 25.1341L29.798 14.7151L2.288 42.2221C-0.0230014 44.5351 -0.0230014 48.2821 2.288 50.5931L42.409 90.7111C44.719 93.0221 48.465 93.0221 50.778 90.7111L90.71 50.7791C93.021 48.4681 93.021 44.7191 90.71 42.4081Z" fill="#F05133"/>
</svg>
