<svg width="61" height="38" viewBox="0 0 61 38" fill="none" xmlns="http://www.w3.org/2000/svg">
<g clip-path="url(#clip0_128_600)">
<path d="M11.4869 34.0729L0.681152 12.9487L22.1446 4.27695L29.0409 26.9669L21.2285 32.9586" fill="#E44D26"/>
<path d="M20.4935 31.0882L12.1396 10.4116L20.9131 6.86691L26.792 26.238" fill="#F16529"/>
<path d="M6.47803 15.8162L13.2223 13.0913L14.3075 15.7772L10.5094 17.3117L11.8693 19.9623L15.4189 18.5281L16.5017 21.2081L10.491 23.6366L6.47803 15.8162ZM11.1543 24.9376L13.852 23.8477L14.909 25.9187L18.2394 25.5091L19.3724 28.3133L13.2372 29.0028" fill="#EBEBEB"/>
<path d="M19.9429 10.3761L13.2104 13.0962L14.2956 15.7821L20.7796 13.1624L19.9429 10.3761ZM21.6485 16.0113L15.4071 18.533L16.4923 21.2189L19.8053 19.8804L20.9019 23.4975L18.2276 25.514L19.3557 28.3063L24.241 24.5571" fill="white"/>
</g>
<g clip-path="url(#clip1_128_600)">
<path d="M41.7567 0.375L39.6146 23.9973L29.9857 26.625L20.3833 24.001L18.2434 0.375H41.7567Z" fill="#264DE4"/>
<path d="M37.7806 22.4932L39.6112 2.30688H30V24.6166L37.7806 22.4932Z" fill="#2965F1"/>
<path d="M23.1489 11.0693L23.4128 13.9669H30.0001V11.0693H23.1489Z" fill="#EBEBEB"/>
<path d="M29.9999 5.20435H29.9897H22.6187L22.8862 8.102H29.9999V5.20435Z" fill="#EBEBEB"/>
<path d="M30 21.6093V18.5945L29.987 18.598L26.7087 17.7266L26.4991 15.4155H24.9061H23.5442L23.9566 19.9653L29.9863 21.613L30 21.6093Z" fill="#EBEBEB"/>
<path d="M33.6145 13.9668L33.2728 17.7249L29.9897 18.5971V21.6117L36.0243 19.9653L36.0686 19.4758L36.7603 11.8473L36.8321 11.0692L37.3636 5.20435H29.9897V8.102H34.1376L33.8698 11.0692H29.9897V13.9668H33.6145Z" fill="white"/>
</g>
<path d="M38.0417 3.5249L37.9321 3.80635C37.8718 3.96115 36.2577 9.24086 34.3453 15.539L30.8681 26.9902L34.8067 30.0279C36.973 31.6987 38.7944 33.0894 38.8543 33.1187C38.9141 33.1479 41.2152 33.4293 43.9679 33.744C48.3811 34.2487 48.9838 34.2996 49.0672 34.1751C49.1834 34.0015 59.9864 12.8595 60.0792 12.624L60.1456 12.4555L49.0936 7.99015L38.0417 3.5249Z" fill="white"/>
<path d="M34.8119 30.1164L30.8373 27.0537L30.9127 26.6987C30.9797 26.383 37.8045 3.89692 37.9204 3.61019C37.9623 3.50641 39.1015 3.95298 49.0937 7.99008C59.641 12.2515 60.2175 12.4923 60.1667 12.6159C59.947 13.1495 49.0519 34.3254 48.9848 34.3492C48.9 34.3793 39.2517 33.2915 38.9447 33.2173C38.8576 33.1962 36.9979 31.8008 34.8119 30.1164ZM44.0175 28.6881C45.6913 28.8812 47.0911 29.0265 47.1283 29.0111C47.1654 28.9957 48.0631 27.2812 49.1231 25.2013C50.1831 23.1213 51.1271 21.2844 51.2209 21.1193L51.3915 20.819L48.1386 19.5047L44.8856 18.1904L44.3274 19.5719L43.7693 20.9534L45.5256 21.663L47.2819 22.3726L47.179 22.5265C47.1225 22.6112 46.727 23.3751 46.3001 24.2242C45.8477 25.1239 45.4735 25.7894 45.4032 25.8192C45.3368 25.8474 44.5326 25.7774 43.6161 25.6636L41.9498 25.4568L41.3812 26.8642C40.9931 27.8248 40.8382 28.282 40.8934 28.3043C40.9379 28.3223 42.3438 28.495 44.0175 28.6881ZM52.0502 19.0655C52.1486 18.6796 53.6918 13.5942 53.7666 13.4091C53.812 13.2967 53.5579 13.1815 50.8667 12.0942L47.917 10.9024L47.3334 12.347L46.7497 13.7917L48.0545 14.3783C48.7722 14.7009 49.5221 15.0537 49.7211 15.1621L50.0828 15.3594L49.7183 16.5266C49.5179 17.1686 49.3219 17.8275 49.2828 17.9908L49.2117 18.2879L50.5882 18.844L51.9648 19.4002L52.0502 19.0655Z" fill="#EAEBEC"/>
<path d="M34.8068 30.0279L30.8681 26.9902L34.3453 15.539C36.2577 9.24083 37.8718 3.96115 37.9321 3.80635L38.0417 3.5249L49.0937 7.99018L60.1457 12.4555L60.0792 12.6241C59.9864 12.8595 49.1834 34.0015 49.0672 34.1751C48.9838 34.2996 48.3811 34.2487 43.9679 33.7441C41.2153 33.4293 38.9141 33.1479 38.8543 33.1187C38.7944 33.0895 36.973 31.6986 34.8068 30.0279ZM43.9996 28.7424C45.7072 28.9358 47.1404 29.0676 47.1845 29.0353C47.2285 29.003 48.1702 27.2002 49.2771 25.0292C50.384 22.8582 51.3296 21.0297 51.3784 20.9658C51.4622 20.8561 51.2039 20.7433 46.6979 18.9227L41.9286 16.9958L42.9991 14.9309C43.5878 13.7953 44.0735 12.8641 44.0783 12.8617C44.0831 12.8593 44.792 13.1198 45.6538 13.4405C47.0668 13.9665 49.9035 15.2423 49.961 15.3776C49.9824 15.4282 49.2802 17.8486 49.152 18.166C49.0887 18.3224 49.1089 18.3333 50.5348 18.9094L51.9818 19.494L52.0759 19.1629C52.1277 18.9807 52.5516 17.5786 53.0179 16.0471L53.8658 13.2625L48.293 10.9887C43.8596 9.17981 42.7124 8.73407 42.6818 8.80851C42.6606 8.85996 42.4956 9.17468 42.3151 9.50786C41.8784 10.3141 37.8528 18.1824 37.7618 18.4078L37.6904 18.5844L42.4389 20.5029L47.1873 22.4214L47.0319 22.6843C46.9464 22.8289 46.5569 23.5804 46.1664 24.3542C45.7758 25.1281 45.4264 25.7732 45.3899 25.7879C45.2933 25.8265 42.1984 25.4442 42.0248 25.3721C41.9443 25.3387 41.2955 24.8672 40.5832 24.3244L39.2881 23.3375L39.4879 22.6891C39.5979 22.3325 39.752 21.8224 39.8305 21.5555L39.9731 21.0702L38.5602 20.4994L37.1474 19.9285L37.0373 20.2098C36.8316 20.7359 35.746 24.4006 35.7754 24.4699C35.8094 24.5499 40.6197 28.2679 40.7844 28.3414C40.8451 28.3685 42.292 28.5489 43.9996 28.7424Z" fill="#F0BE25"/>
<path d="M34.8068 30.0279L30.8681 26.9902L34.3453 15.539C36.2577 9.24083 37.8718 3.96115 37.9321 3.80635L38.0417 3.5249L49.0937 7.99018L60.1457 12.4555L60.0792 12.6241C59.9864 12.8595 49.1834 34.0015 49.0672 34.1751C48.9838 34.2996 48.3811 34.2487 43.9679 33.7441C41.2153 33.4293 38.9141 33.1479 38.8543 33.1187C38.7944 33.0895 36.973 31.6986 34.8068 30.0279ZM43.7608 31.7105C45.9322 31.9608 47.7607 32.1425 47.8242 32.1144C47.9231 32.0707 57.0815 14.2607 57.3246 13.6393L57.4053 13.4331L52.8875 11.6077L48.3696 9.78239L48.1584 10.3051L47.9472 10.8279L45.3336 9.77187C43.2928 8.94733 42.7115 8.7363 42.6816 8.80899C42.6605 8.86017 42.4956 9.17468 42.3151 9.50786C41.8784 10.3141 37.8528 18.1824 37.7618 18.4078L37.6904 18.5844L40.7521 19.8214L43.8138 21.0584L42.9389 23.224C42.2587 24.9074 42.0433 25.3808 41.9711 25.3504C41.9201 25.3289 41.2955 24.8672 40.5832 24.3244L39.2881 23.3375L39.4879 22.6891C39.5979 22.3325 39.752 21.8224 39.8305 21.5555L39.9731 21.0702L38.5602 20.4994L37.1474 19.9285L37.0373 20.2098C36.7227 21.0144 35.7482 24.424 35.8092 24.507C35.8462 24.5575 36.9944 25.4556 38.3607 26.5028L40.8449 28.4067L40.2777 29.8105C39.9658 30.5825 39.7336 31.2235 39.7617 31.2349C39.7898 31.2463 41.5894 31.4603 43.7608 31.7105ZM42.9831 14.9478C43.5631 13.8214 44.0576 12.8925 44.082 12.8836C44.1064 12.8746 44.7125 13.0854 45.4289 13.3521L46.7315 13.8369L45.8459 16.0288L44.9603 18.2207L43.4444 17.6083L41.9286 16.9958L42.9831 14.9478Z" fill="#E4A126"/>
<defs>
<clipPath id="clip0_128_600">
<rect width="23.625" height="27" fill="white" transform="translate(0.320068 12.6902) rotate(-22)"/>
</clipPath>
<clipPath id="clip1_128_600">
<rect width="24" height="27" fill="white" transform="translate(18)"/>
</clipPath>
</defs>
</svg>
