<svg width="32" height="32" viewBox="0 0 32 32" fill="none" xmlns="http://www.w3.org/2000/svg">
<g clip-path="url(#clip0_128_607)">
<path d="M11.9172 24.5046C11.9172 24.5046 10.7283 25.1959 12.7633 25.4298C15.2286 25.7111 16.4885 25.6708 19.2054 25.1565C19.2054 25.1565 19.9197 25.6044 20.9171 25.9924C14.8269 28.6025 7.13352 25.8411 11.9172 24.5046ZM11.173 21.0984C11.173 21.0984 9.83955 22.0854 11.876 22.296C14.5095 22.5677 16.5893 22.59 20.188 21.897C20.188 21.897 20.6858 22.4016 21.4685 22.6776C14.1049 24.8308 5.90324 22.8474 11.173 21.0984Z" fill="#5382A1"/>
<path d="M17.447 15.3202C18.9477 17.0479 17.0527 18.6027 17.0527 18.6027C17.0527 18.6027 20.8631 16.6356 19.1132 14.1724C17.4788 11.8754 16.2254 10.7339 23.0106 6.79883C23.0106 6.79883 12.36 9.45893 17.447 15.3202Z" fill="#E76F00"/>
<path d="M25.5017 27.0239C25.5017 27.0239 26.3815 27.7488 24.5327 28.3096C21.0174 29.3746 9.90122 29.6962 6.81318 28.352C5.70315 27.8692 7.78485 27.199 8.43962 27.0583C9.1225 26.9102 9.51281 26.9379 9.51281 26.9379C8.27829 26.0682 1.53345 28.6455 6.08679 29.3835C18.5043 31.3973 28.7226 28.4768 25.5017 27.0239ZM12.4887 17.5691C12.4887 17.5691 6.83444 18.9122 10.4865 19.3998C12.0284 19.6062 15.1023 19.5596 17.9656 19.3196C20.3057 19.1223 22.6553 18.7026 22.6553 18.7026C22.6553 18.7026 21.8302 19.056 21.2333 19.4636C15.4914 20.9737 4.399 20.2712 7.59235 18.7265C10.293 17.421 12.4887 17.5691 12.4887 17.5691ZM22.632 23.2388C28.469 20.2057 25.7702 17.291 23.8865 17.6837C23.4248 17.7797 23.2189 17.863 23.2189 17.863C23.2189 17.863 23.3904 17.5945 23.7177 17.4783C27.4442 16.1681 30.3102 21.3424 22.5147 23.3917C22.5147 23.3918 22.6051 23.3111 22.632 23.2388Z" fill="#5382A1"/>
<path d="M19.113 0.444426C19.113 0.444426 22.3457 3.67821 16.0471 8.65059C10.9963 12.6394 14.8953 14.9137 16.045 17.5122C13.0967 14.8522 10.933 12.5105 12.3847 10.3312C14.5151 7.13188 20.4173 5.58092 19.113 0.444426Z" fill="#E76F00"/>
<path d="M13.0625 31.4577C18.6652 31.8164 27.2688 31.2588 27.4725 28.6077C27.4725 28.6077 27.0809 29.6128 22.8422 30.4109C18.0601 31.3107 12.1622 31.2057 8.66406 30.6289C8.66415 30.6289 9.38009 31.2216 13.0625 31.4577Z" fill="#5382A1"/>
</g>
<defs>
<clipPath id="clip0_128_607">
<rect width="24" height="32" fill="white" transform="translate(4)"/>
</clipPath>
</defs>
</svg>
