<svg width="43" height="43" viewBox="0 0 43 43" fill="none" xmlns="http://www.w3.org/2000/svg">
<g clip-path="url(#clip0_129_725)">
<path d="M7.9172 29.8046C7.9172 29.8046 6.72835 30.4959 8.7633 30.7298C11.2286 31.0111 12.4885 30.9708 15.2054 30.4565C15.2054 30.4565 15.9197 30.9044 16.9171 31.2924C10.8269 33.9025 3.13352 31.1411 7.9172 29.8046ZM7.17297 26.3984C7.17297 26.3984 5.83955 27.3854 7.87603 27.596C10.5095 27.8677 12.5893 27.89 16.188 27.197C16.188 27.197 16.6858 27.7016 17.4685 27.9776C10.1049 30.1308 1.90324 28.1474 7.17297 26.3984Z" fill="#5382A1"/>
<path d="M13.447 20.6203C14.9477 22.348 13.0527 23.9028 13.0527 23.9028C13.0527 23.9028 16.8631 21.9357 15.1132 19.4725C13.4788 17.1755 12.2254 16.034 19.0106 12.0989C19.0106 12.0989 8.36004 14.759 13.447 20.6203Z" fill="#E76F00"/>
<path d="M21.5017 32.324C21.5017 32.324 22.3815 33.0489 20.5327 33.6097C17.0174 34.6747 5.90122 34.9963 2.81318 33.6521C1.70315 33.1693 3.78485 32.4991 4.43962 32.3584C5.1225 32.2103 5.51281 32.238 5.51281 32.238C4.27829 31.3683 -2.46655 33.9456 2.08679 34.6836C14.5043 36.6974 24.7226 33.7769 21.5017 32.324ZM8.4887 22.8692C8.4887 22.8692 2.83444 24.2123 6.48646 24.6999C8.02841 24.9063 11.1023 24.8597 13.9656 24.6197C16.3057 24.4224 18.6553 24.0027 18.6553 24.0027C18.6553 24.0027 17.8302 24.3561 17.2333 24.7637C11.4914 26.2738 0.399004 25.5713 3.59235 24.0266C6.29297 22.7211 8.4887 22.8692 8.4887 22.8692ZM18.632 28.5389C24.469 25.5058 21.7702 22.5911 19.8865 22.9838C19.4248 23.0798 19.2189 23.1631 19.2189 23.1631C19.2189 23.1631 19.3904 22.8946 19.7177 22.7784C23.4442 21.4682 26.3102 26.6425 18.5147 28.6918C18.5147 28.6919 18.6051 28.6112 18.632 28.5389Z" fill="#5382A1"/>
<path d="M15.113 5.74447C15.113 5.74447 18.3457 8.97826 12.0471 13.9506C6.99628 17.9394 10.8953 20.2137 12.045 22.8122C9.09671 20.1522 6.93304 17.8105 8.38465 15.6312C10.5151 12.4319 16.4173 10.881 15.113 5.74447Z" fill="#E76F00"/>
<path d="M9.06247 36.7577C14.6652 37.1164 23.2688 36.5588 23.4725 33.9077C23.4725 33.9077 23.0809 34.9128 18.8422 35.7109C14.0601 36.6107 8.16224 36.5057 4.66406 35.9289C4.66415 35.9289 5.38009 36.5216 9.06247 36.7577Z" fill="#5382A1"/>
</g>
<path d="M30.6304 23.3135C30.8727 23.3148 30.8727 23.3148 31.12 23.3162C31.5463 23.3191 31.9725 23.3248 32.3988 23.3318C32.8351 23.3383 33.2714 23.3412 33.7077 23.3444C34.5614 23.3513 35.415 23.3623 36.2686 23.3753C36.1433 24.0438 36.0179 24.7123 35.8888 25.4011C35.699 25.4023 35.5092 25.4035 35.3137 25.4047C34.6107 25.4097 33.9078 25.4181 33.2049 25.4274C32.9004 25.431 32.596 25.4336 32.2915 25.4354C31.8543 25.4381 31.4172 25.444 30.98 25.4506C30.7753 25.4508 30.7753 25.4508 30.5663 25.451C30.4396 25.4535 30.3129 25.456 30.1824 25.4586C30.0707 25.4597 29.9591 25.4609 29.8441 25.462C29.5381 25.5041 29.5381 25.5041 29.3348 25.7679C29.1666 26.054 29.094 26.285 29.0304 26.6099C29.0087 26.7168 28.9871 26.8237 28.9648 26.9338C28.9439 27.0443 28.9229 27.1548 28.9013 27.2687C28.8788 27.3811 28.8564 27.4936 28.8333 27.6094C28.7783 27.886 28.7245 28.1628 28.6718 28.4398C28.8032 28.4306 28.9347 28.4213 29.0701 28.4117C29.5631 28.3794 30.056 28.3592 30.5497 28.3425C30.7623 28.3336 30.9747 28.3216 31.187 28.3061C32.9011 28.1846 32.9011 28.1846 33.4562 28.6155C33.8929 29.0828 34.496 29.8049 34.496 30.4657C32.4069 30.4657 30.3178 30.4657 28.1653 30.4657C28.0818 30.9671 27.9982 31.4684 27.9121 31.985C27.8107 32.522 27.6994 33.0566 27.5877 33.5914C27.5597 33.7285 27.5317 33.8655 27.5028 34.0066C27.4758 34.1365 27.4488 34.2663 27.421 34.4001C27.3846 34.5755 27.3846 34.5755 27.3475 34.7545C27.279 35.0238 27.279 35.0238 27.1524 35.1504C26.79 35.1596 26.4306 35.1621 26.0683 35.1583C25.9662 35.1577 25.8641 35.1571 25.7589 35.1566C25.506 35.1551 25.253 35.1528 25 35.1504C25.0373 34.9641 25.0745 34.7778 25.1118 34.5915C25.1364 34.4683 25.161 34.345 25.1864 34.2181C25.2425 33.9378 25.2987 33.6575 25.3549 33.3773C25.511 32.5987 25.6656 31.8198 25.8175 31.0404C26.0038 30.088 26.1955 29.1368 26.3928 28.1866C26.4243 28.0347 26.4558 27.8828 26.4883 27.7263C26.5798 27.2933 26.6754 26.8615 26.7726 26.4298C26.813 26.2382 26.813 26.2382 26.8542 26.0426C27.0926 25.018 27.4882 24.3001 28.3382 23.6671C29.0608 23.2327 29.8106 23.2962 30.6304 23.3135Z" fill="#56849F"/>
<path d="M33.1034 26.414C33.9018 26.2862 34.7257 26.1576 35.509 26.414C36.1322 26.9115 36.5176 27.6288 36.884 28.3257C37.0327 28.5737 37.1961 28.7513 37.4082 28.9463C37.4905 28.8582 37.4905 28.8582 37.5745 28.7684C37.825 28.5005 38.0756 28.2328 38.3262 27.965C38.4125 27.8726 38.4989 27.7803 38.5878 27.6851C38.6719 27.5953 38.7559 27.5056 38.8425 27.4131C38.9194 27.3308 38.9963 27.2486 39.0756 27.1639C39.1521 27.0836 39.2286 27.0032 39.3074 26.9205C39.387 26.8278 39.4666 26.735 39.5485 26.6395C39.8805 26.3574 40.0424 26.3545 40.4727 26.3645C40.5967 26.3662 40.7208 26.3678 40.8486 26.3695C40.9772 26.3737 41.1058 26.378 41.2383 26.3823C41.3689 26.3846 41.4994 26.3869 41.634 26.3893C41.9559 26.3952 42.2776 26.4036 42.5994 26.414C42.0755 27.0324 41.5389 27.6345 40.9851 28.2262C40.8701 28.3496 40.8701 28.3496 40.7528 28.4756C40.195 29.0715 39.6215 29.6454 39.028 30.206C38.7845 30.4845 38.7146 30.6094 38.6744 30.9721C38.7892 31.2356 38.7892 31.2356 38.982 31.4899C39.0509 31.5885 39.1198 31.6871 39.1909 31.7887C39.2659 31.8927 39.3409 31.9966 39.4182 32.1037C39.4932 32.2103 39.5681 32.3168 39.6453 32.4266C39.7972 32.6423 39.9496 32.8576 40.1028 33.0724C40.3523 33.4227 40.5988 33.775 40.8439 34.1283C40.9847 34.3313 41.1266 34.5336 41.2685 34.7359C41.4599 35.0237 41.4599 35.0237 41.4599 35.1504C40.6608 35.2782 39.8386 35.4047 39.0542 35.1504C38.4288 34.6571 38.0559 33.9414 37.6803 33.252C37.4949 32.9281 37.2719 32.6468 37.0284 32.3649C36.4939 32.8848 35.9864 33.4174 35.5051 33.9871C35.4228 34.0785 35.3405 34.1699 35.2558 34.2641C35.1983 34.339 35.1409 34.4139 35.0817 34.4911C34.7637 34.8678 34.5293 35.1162 34.0369 35.2215C33.6614 35.2374 33.2966 35.228 32.9213 35.2057C32.7925 35.2018 32.6636 35.1978 32.5309 35.1936C32.2149 35.1832 31.8996 35.1687 31.584 35.1504C32.1079 34.532 32.6445 33.9298 33.1983 33.3382C33.2752 33.2558 33.352 33.1734 33.4312 33.0885C33.9828 32.4997 34.5479 31.929 35.1307 31.3707C35.3923 31.088 35.5764 30.802 35.7622 30.4656C35.2858 29.7445 34.8054 29.0264 34.3156 28.3142C34.2036 28.1513 34.2036 28.1513 34.0894 27.9852C33.939 27.7667 33.7883 27.5484 33.6374 27.3303C33.5682 27.2298 33.4991 27.1293 33.4278 27.0258C33.3653 26.9354 33.3028 26.8449 33.2384 26.7517C33.1034 26.5406 33.1034 26.5406 33.1034 26.414Z" fill="#55839F"/>
<defs>
<clipPath id="clip0_129_725">
<rect width="24" height="32" fill="white" transform="translate(0 5.30005)"/>
</clipPath>
</defs>
</svg>
