<svg width="74" height="74" viewBox="0 0 74 74" fill="none" xmlns="http://www.w3.org/2000/svg">
<rect width="74" height="74" rx="8" fill="url(#paint0_linear_129_3236)"/>
<path d="M14.211 54.399C14.211 54.399 9.05862 55.9667 8.94395 52.9172C8.81235 49.6199 26.0992 34.3724 26.0992 34.3724C26.0992 34.3724 25.0379 31.0941 21.9372 27.2156C18.4145 22.8082 17.4679 22.1696 9.75637 20.2352C3.93794 18.7676 0.654225 12.9545 4.92108 6.93164C8.69268 1.61431 12.8107 2.43377 16.6921 5.03535C21.7664 8.43736 20.5101 14.4126 25.7772 18.8866C31.0443 23.3562 35.4818 24.5901 38.6021 22.0125C41.7126 19.4299 40.7318 15.1796 42.6518 10.815C44.5669 6.45055 48.9752 4.28736 52.7761 5.85017C56.5794 7.42248 58.4604 10.4815 59.1752 12.4876C60.7243 16.8188 55.2987 20.6926 55.2987 20.6926C55.2987 20.6926 62.2198 18.0052 63.6372 19.1964C65.0521 20.3972 64.3105 21.4167 60.7951 24.9571C56.4428 29.3359 47.1236 39.4136 47.1236 39.4136C47.1236 39.4136 48.6703 42.02 51.8247 44.7551C57.6187 49.7913 65.6547 48.5191 67.9065 51.3446C73.4712 58.3155 70.6632 63.3855 66.594 66.2871C62.5223 69.1842 59.2727 69.351 55.5036 66.7829C51.7295 64.205 53.7544 59.2258 47.5212 53.0982C43.857 49.4913 38.1337 43.8688 35.9673 46.6228C33.7888 49.3815 33.1374 54.1082 33.1838 56.2716C33.2937 62.1038 29.7952 68.0598 25.7357 68.5982C21.6786 69.1412 18.151 70.0085 13.3059 64.467C9.83197 60.4885 14.5624 53.0219 14.211 54.399Z" fill="#231F20"/>
<path d="M12.3181 4.59229C10.5543 4.66378 9.78827 6.19802 11.2472 7.57029C12.706 8.95208 12.7963 9.04722 13.716 8.48026C15.1725 7.57029 16.1825 6.28853 14.7968 5.49761C13.4013 4.71133 12.3181 4.59229 12.3181 4.59229Z" fill="#A8A8A6"/>
<path d="M15.2871 10.5484C17.107 12.4732 20.3688 16.2089 20.6274 15.8801C20.886 15.5561 20.9006 15.1321 19.8662 13.35C18.8343 11.5679 16.4703 8.44226 15.8726 8.92823C15.2822 9.41908 15.2871 10.5484 15.2871 10.5484Z" fill="#3E3D3F"/>
<path d="M50.7684 6.76503C50.1878 5.31177 46.831 6.95094 44.6719 9.5047C43.9864 10.3195 42.9423 15.0652 42.5983 17.1857C42.2445 19.306 41.8835 20.2972 41.3272 21.0832C40.7612 21.86 38.2143 23.5087 38.7169 23.6658C39.2194 23.8233 42.0006 22.3126 43.1179 20.3257C44.2328 18.3436 43.9961 14.7318 45.1915 12.7591C45.5721 12.1351 47.3286 9.38563 48.263 8.74231C49.1949 8.09923 50.7684 6.76503 50.7684 6.76503Z" fill="#3E3D3F"/>
<path d="M52.8421 7.53198C51.5247 7.3273 49.9048 7.58443 49.9365 9.42852C49.9708 11.2628 50.1855 11.1914 51.4613 11.3963C53.874 11.7727 54.4546 9.68104 54.3107 8.92354C54.1668 8.16581 52.8421 7.53198 52.8421 7.53198Z" fill="#A8A8A6"/>
<path d="M57.914 20.5973C52.6152 22.8988 36.2455 28.8453 35.5112 29.6172C34.0987 31.1039 33.3887 33.2956 36.4919 34.563C37.2311 34.8679 45.1915 30.2412 45.9575 29.8841C46.7285 29.5172 46.6675 30.575 46.3478 30.7892C44.8207 31.7947 39.6805 35.0872 38.4924 36.0592C37.3067 37.0265 38.0191 39.1182 39.4145 39.2087C40.8124 39.3041 42.1859 37.5363 42.8422 37.074C46.0917 34.7535 56.8186 25.829 59.1142 23.8707C63.1737 20.3924 63.8324 19.5253 62.4882 19.368C61.1464 19.2154 58.6141 20.2923 57.914 20.5973Z" fill="#3E3D3F"/>
<path d="M24.5891 53.8652C24.4232 52.674 25.0087 51.764 26.8189 52.574C28.6364 53.3793 29.0048 55.0614 28.2583 55.209C27.4996 55.3568 24.5891 53.8652 24.5891 53.8652Z" fill="#3E3D3F"/>
<path d="M53.325 49.615C52.6809 48.4381 53.1784 47.3137 55.8938 48.3095C58.6091 49.31 62.0026 51.1207 63.3029 52.1595C64.6056 53.2029 67.9478 55.5519 66.9574 56.7432C65.9742 57.9201 66.4572 56.9767 63.2541 55.3758C60.0631 53.7842 53.9958 50.8491 53.325 49.615Z" fill="#828484"/>
<path d="M15.7261 59.9881C15.0504 57.8391 15.1114 58.43 15.1162 56.953C15.1227 55.633 17.4655 53.2363 16.4263 53.5698C15.3919 53.9035 13.6476 56.2573 13.4426 57.744C12.7474 62.828 14.3526 64.5053 15.2455 64.9483C18.456 66.5541 18.0876 63.9429 17.529 63.1757C16.9654 62.4087 16.0457 61.0079 15.7261 59.9881Z" fill="#A8A8A6"/>
<path d="M22.5106 46.7753C20.759 46.0271 27.9192 41.0194 27.8899 38.3749C27.8557 34.6918 25.4869 31.523 24.5013 29.8982C23.5255 28.2735 22.8058 28.0925 22.9497 27.3015C23.0962 26.5153 26.5799 29.3123 28.2144 32.8333C29.644 35.9211 30.31 37.1741 29.039 40.7764C28.4291 42.5202 22.5106 46.7753 22.5106 46.7753Z" fill="#707273"/>
<path d="M53.1789 23.3084C53.1789 23.3084 39.2683 28.6213 38.2169 29.1024C37.1581 29.5742 35.565 30.0697 35.3772 30.837C35.1893 31.604 37.3191 32.2758 37.7436 31.5039C38.1681 30.7225 38.4169 29.8506 39.9734 29.2453C41.5372 28.6403 61.6882 20.9641 61.776 20.4496C61.864 19.9349 62.5079 19.8444 60.7002 20.4878C58.8997 21.1311 53.1789 23.3084 53.1789 23.3084Z" fill="#DFDFDD"/>
<path d="M10.0786 52.1166C10.0786 52.1166 16.0166 44.8312 17.8731 43.1969C19.7272 41.5722 25.8799 35.8496 25.8799 35.8496C25.8799 35.8496 21.6008 40.9193 19.3271 42.9585C14.9529 46.8897 15.2872 46.8039 10.0786 52.1166Z" fill="#A8A8A6"/>
<defs>
<linearGradient id="paint0_linear_129_3236" x1="73.1339" y1="74" x2="0.866087" y2="2.47327e-06" gradientUnits="userSpaceOnUse">
<stop offset="0.25" stop-color="#029235"/>
<stop offset="1" stop-color="#A4D5AC"/>
</linearGradient>
</defs>
</svg>
