<svg width="52" height="51" viewBox="0 0 52 51" fill="none" xmlns="http://www.w3.org/2000/svg">
<rect x="0.0168457" width="51" height="51" rx="25.5" fill="#00546B"/>
<path d="M38.5711 33.9764C36.8844 33.9336 35.5772 34.1054 34.4808 34.5779C34.1645 34.7066 33.6584 34.7068 33.6163 35.1149C33.785 35.2868 33.8061 35.566 33.9537 35.8022C34.2069 36.2317 34.6494 36.8117 35.05 37.1125C35.4927 37.4561 35.9356 37.7997 36.3993 38.1004C37.2217 38.616 38.1495 38.9166 38.9506 39.4321C39.4146 39.7326 39.8782 40.1195 40.3421 40.4416C40.574 40.6132 40.7215 40.8927 41.0168 41V40.9357C40.8691 40.7422 40.8269 40.4631 40.6795 40.2483C40.4688 40.0335 40.2577 39.8401 40.0469 39.6253C39.4355 38.7878 38.6765 38.0575 37.8543 37.4561C37.1796 36.9835 35.7036 36.3392 35.4296 35.5444C35.4296 35.5444 35.4084 35.523 35.3874 35.5016C35.8512 35.4586 36.3993 35.2868 36.8422 35.1579C37.5591 34.9644 38.2126 35.0075 38.9506 34.8142C39.2879 34.7282 39.6253 34.6208 39.9625 34.5134V34.3202C39.5832 33.9336 39.3091 33.4181 38.9085 33.053C37.8332 32.1077 36.6523 31.1842 35.4296 30.411C34.7759 29.9814 33.9324 29.7022 33.2367 29.3371C32.9839 29.2081 32.5621 29.1438 32.4146 28.929C32.0349 28.4565 31.8241 27.8337 31.5501 27.2752C30.9388 26.0937 30.3483 24.7836 29.8211 23.5379C29.4418 22.7002 29.2098 21.8624 28.7459 21.0893C26.5743 17.4379 24.2129 15.2256 20.5865 13.0561C19.8063 12.6051 18.8786 12.4118 17.8877 12.1756C17.3608 12.154 16.8335 12.1112 16.3065 12.0896C15.9691 11.9392 15.6317 11.5312 15.3365 11.3379C14.1349 10.5645 11.0354 8.88939 10.1499 11.1017C9.58053 12.4977 10.9933 13.8723 11.4781 14.5813C11.8368 15.0752 12.3004 15.6336 12.5535 16.1921C12.7011 16.557 12.7431 16.944 12.8907 17.3305C13.2282 18.2753 13.5443 19.328 13.9872 20.2087C14.2192 20.6597 14.4721 21.1322 14.7673 21.5403C14.936 21.7765 15.2311 21.884 15.2944 22.2705C14.9994 22.7002 14.9781 23.3446 14.8093 23.8815C14.0503 26.3086 14.3457 29.3156 15.4208 31.0983C15.7581 31.6351 16.5594 32.8168 17.6347 32.3656C18.5835 31.979 18.3727 30.7547 18.6466 29.6808C18.7101 29.4228 18.6679 29.2512 18.7943 29.0793V29.1224C19.0895 29.7236 19.3846 30.3037 19.6587 30.9051C20.3124 31.9574 21.4508 33.053 22.3996 33.7833C22.9058 34.1697 23.3063 34.8357 23.9389 35.0719V35.0074H23.8966C23.7701 34.814 23.5803 34.7282 23.4117 34.5778C23.0323 34.1913 22.6104 33.7188 22.3153 33.2891C21.43 32.0862 20.6496 30.7546 19.9539 29.3799C19.6167 28.7143 19.3213 27.9839 19.0473 27.3181C18.9207 27.0601 18.9207 26.6737 18.7099 26.5449C18.3936 27.0174 17.9299 27.4255 17.6979 28.0054C17.2975 28.929 17.2552 30.0673 17.1076 31.2485C17.0233 31.2703 17.0653 31.2485 17.0232 31.2918C16.3486 31.1197 16.1167 30.411 15.8635 29.8096C15.2309 28.2846 15.1255 25.836 15.6739 24.0748C15.8215 23.6237 16.4541 22.2062 16.201 21.7766C16.0745 21.3685 15.6527 21.1322 15.4208 20.8101C15.1468 20.4019 14.8515 19.8866 14.6619 19.4354C14.1558 18.2326 13.9027 16.9009 13.3546 15.698C13.1016 15.1395 12.659 14.5598 12.3004 14.0442C11.8999 13.4644 11.4571 13.0561 11.1408 12.3688C11.0355 12.1327 10.8878 11.746 11.0565 11.4882C11.0986 11.3164 11.1829 11.2521 11.3517 11.2091C11.6258 10.9727 12.406 11.2734 12.6799 11.4023C13.4601 11.7243 14.1136 12.0253 14.7673 12.4762C15.0624 12.6911 15.3787 13.0992 15.7581 13.2066H16.2009C16.8757 13.3569 17.6345 13.2496 18.2671 13.4428C19.3847 13.8078 20.3966 14.3449 21.3033 14.9249C24.0654 16.7075 26.3422 19.2421 27.8815 22.2705C28.1346 22.7644 28.2399 23.2157 28.4718 23.731C28.9148 24.7836 29.4629 25.8575 29.9054 26.8885C30.3483 27.8979 30.7699 28.929 31.4025 29.7667C31.7187 30.2176 32.9837 30.454 33.553 30.6903C33.9747 30.8835 34.6284 31.0555 35.0078 31.2916C35.7247 31.7425 36.4415 32.2583 37.1162 32.7521C37.4536 33.0099 38.5077 33.5469 38.5711 33.9764V33.9764Z" fill="white"/>
</svg>
