<svg width="35" height="34" viewBox="0 0 35 34" fill="none" xmlns="http://www.w3.org/2000/svg">
<path d="M30.0228 7.4924C28.1317 5.05724 25.5569 3.23444 22.6241 2.25456C19.6912 1.27467 16.5321 1.1817 13.5461 1.98742C10.5601 2.79313 7.88144 4.46133 5.8489 6.78104C3.81636 9.10075 2.52124 11.9678 2.12731 15.0195C1.73339 18.0712 2.25837 21.1706 3.63586 23.9256C5.01334 26.6806 7.18146 28.9675 9.866 30.497C12.5505 32.0266 15.6309 32.7301 18.7176 32.5186C21.8042 32.3071 24.7584 31.1901 27.2067 29.3089C34.0404 24.057 35.3016 14.2906 30.0223 7.4924H30.0228Z" fill="#FF6C37"/>
<path d="M22.9183 11.3559L16.3226 17.967L14.4587 16.0615C20.9503 9.60596 21.6019 10.1893 22.9187 11.3559H22.9183Z" fill="white"/>
<path d="M16.3225 18.1478C16.2641 18.1464 16.2083 18.1233 16.1661 18.0832L14.289 16.2165C14.2468 16.173 14.2231 16.1149 14.2231 16.0544C14.2231 15.9939 14.2468 15.9358 14.289 15.8923C20.6892 9.5277 21.5627 9.82568 23.0746 11.1868C23.1 11.2069 23.1202 11.2327 23.1338 11.2619C23.1474 11.2912 23.1539 11.3232 23.1528 11.3555C23.1626 11.4187 23.1382 11.4833 23.0878 11.5241L16.4922 18.0837C16.4459 18.1258 16.3853 18.1489 16.3225 18.1483V18.1478ZM14.7842 16.061L16.3225 17.5907L22.5795 11.3686C22.3634 11.0993 22.0552 10.9188 21.7136 10.8614C21.3721 10.804 21.0213 10.8738 20.7283 11.0575C19.5942 11.563 17.7694 13.1054 14.7842 16.061V16.061Z" fill="#FF6C37"/>
<path d="M18.2127 19.7948L16.4138 17.9671L23.0095 11.4854C24.7825 13.2096 22.1492 16.0873 18.2127 19.7943V19.7948Z" fill="white"/>
<path d="M18.2128 20.0281C18.1551 20.0236 18.1004 20.0009 18.0564 19.9635L16.2184 18.1746C16.1909 18.1081 16.1909 18.0335 16.2184 17.967C16.1989 17.9125 16.1989 17.8529 16.2184 17.7983L22.8141 11.2393C22.86 11.1965 22.9206 11.1726 22.9835 11.1726C23.0464 11.1726 23.107 11.1965 23.1529 11.2393C23.3665 11.4348 23.5352 11.6738 23.6477 11.9399C23.7601 12.2061 23.8136 12.4932 23.8045 12.7817C23.8045 14.5317 21.7969 16.7352 18.382 19.9503C18.3363 19.9952 18.2763 20.0228 18.2123 20.0281H18.2128ZM16.7527 17.967L18.2255 19.4312C20.8324 16.9812 23.3225 14.4535 23.3352 12.7424C23.3494 12.3796 23.2288 12.0244 22.9964 11.7444L16.7527 17.967Z" fill="#FF6C37"/>
<path d="M14.5105 16.1003L15.8142 17.3968C15.8225 17.4041 15.8291 17.4131 15.8337 17.4231C15.8383 17.4332 15.8406 17.4441 15.8406 17.4551C15.8406 17.4662 15.8383 17.4771 15.8337 17.4871C15.8291 17.4972 15.8225 17.5062 15.8142 17.5135L13.0636 18.0968C13.008 18.1087 12.9501 18.1022 12.8986 18.0784C12.8471 18.0546 12.8049 18.0146 12.7783 17.9647C12.7517 17.9148 12.7423 17.8576 12.7514 17.8018C12.7606 17.7461 12.7878 17.6948 12.8289 17.6559L14.4323 16.0746C14.4323 16.0746 14.4846 16.0746 14.5105 16.1003Z" fill="white"/>
<path d="M12.9984 18.3559C12.9115 18.3548 12.8263 18.3316 12.751 18.2884C12.6757 18.2453 12.6128 18.1837 12.5682 18.1094C12.5181 18.0154 12.4999 17.9078 12.5164 17.8027C12.5329 17.6975 12.5831 17.6005 12.6596 17.5261L14.2498 15.9317C14.3071 15.8807 14.3813 15.8525 14.4583 15.8525C14.5352 15.8525 14.6094 15.8807 14.6667 15.9317L15.9704 17.2281C16.0477 17.3011 16.078 17.4114 16.0486 17.5135C16.0193 17.6156 15.9333 17.6967 15.8272 17.721L13.0766 18.3044L12.9984 18.3559ZM14.4585 16.3857L12.9857 17.8504L15.4234 17.3317L14.4585 16.3857Z" fill="#FF6C37"/>
<path d="M26.4251 7.7131C25.4816 6.80797 23.9995 6.77005 23.0101 7.62414C22.0207 8.47823 21.8516 9.94433 22.622 10.9992C23.3924 12.054 24.8447 12.3496 25.969 11.6797L24.196 9.91662L26.4251 7.7131Z" fill="white"/>
<path d="M24.6653 12.2757C24.1233 12.2688 23.5953 12.1034 23.1471 11.8001C22.699 11.4969 22.3504 11.0692 22.145 10.5704C21.9396 10.0719 21.8858 9.52455 21.99 8.99597C22.0943 8.46738 22.3521 7.98079 22.7315 7.59639C23.2534 7.08694 23.9555 6.80151 24.6869 6.80151C25.4182 6.80151 26.1203 7.08694 26.6422 7.59639C26.692 7.6382 26.7204 7.69993 26.7204 7.76507C26.7203 7.79712 26.7132 7.82876 26.6997 7.85787C26.6862 7.88697 26.6666 7.91285 26.6422 7.93375L24.5304 9.91707L26.1338 11.4857C26.1598 11.5104 26.1793 11.541 26.1906 11.5749C26.2019 11.6088 26.2047 11.645 26.1988 11.6802C26.1949 11.7142 26.1836 11.7469 26.1656 11.776C26.1476 11.8052 26.1234 11.8301 26.0947 11.8489C25.6639 12.1166 25.1688 12.2643 24.6609 12.2766L24.6653 12.2757ZM24.6653 7.24591C23.7366 7.25077 22.9056 7.80639 22.557 8.65562C22.2085 9.50485 22.3982 10.4824 23.0493 11.1348C23.3732 11.4587 23.7878 11.6778 24.239 11.7634C24.6903 11.849 25.1569 11.7972 25.578 11.6146L24.0397 10.0848C24.0152 10.0653 23.9955 10.0407 23.9819 10.0126C23.9683 9.98454 23.9613 9.9538 23.9613 9.92266C23.9613 9.89152 23.9683 9.86078 23.9819 9.83272C23.9955 9.80466 24.0152 9.77999 24.0397 9.76054L26.0732 7.72521C25.6689 7.41713 25.1746 7.24867 24.6653 7.24542V7.24591Z" fill="#FF6C37"/>
<path d="M26.4641 7.75195L24.2351 9.95547L26.008 11.7186C26.1865 11.6167 26.3526 11.4949 26.5032 11.3555C26.9679 10.867 27.2236 10.2182 27.2163 9.54584C27.209 8.87351 26.9393 8.23029 26.4641 7.75195V7.75195Z" fill="white"/>
<path d="M25.9685 11.9131C25.9392 11.9146 25.9099 11.9096 25.8828 11.8985C25.8558 11.8873 25.8316 11.8702 25.812 11.8484L24.0391 10.0853C24.0146 10.0658 23.9949 10.0412 23.9813 10.0131C23.9677 9.98505 23.9607 9.95431 23.9607 9.92317C23.9607 9.89204 23.9677 9.8613 23.9813 9.83323C23.9949 9.80517 24.0146 9.7805 24.0391 9.76106L26.2549 7.59642C26.2763 7.56433 26.3054 7.53801 26.3395 7.5198C26.3736 7.50159 26.4117 7.49207 26.4504 7.49207C26.4892 7.49207 26.5273 7.50159 26.5614 7.5198C26.5955 7.53801 26.6246 7.56433 26.646 7.59642C26.9061 7.84988 27.1128 8.15241 27.2538 8.48629C27.3949 8.82017 27.4676 9.17869 27.4676 9.54085C27.4676 9.90301 27.3949 10.2615 27.2538 10.5954C27.1128 10.9293 26.9061 11.2318 26.646 11.4853C26.4925 11.6471 26.3169 11.7867 26.1244 11.8999C26.0759 11.9242 26.0199 11.9289 25.968 11.9131H25.9685ZM24.5347 9.9171L26.0076 11.3817C26.1089 11.3111 26.2048 11.2331 26.2945 11.1484C26.7275 10.719 26.9713 10.1363 26.9725 9.52821C26.9735 8.98403 26.774 8.45834 26.4118 8.05044L24.5347 9.9171Z" fill="#FF6C37"/>
<path d="M23.1921 11.6282C23.0155 11.4634 22.7824 11.3716 22.5402 11.3716C22.298 11.3716 22.0649 11.4634 21.8884 11.6282L15.9839 17.4868L16.9615 18.4722L23.2053 13.0277C23.3005 12.937 23.376 12.8278 23.4272 12.7069C23.4784 12.5861 23.5042 12.4561 23.5029 12.3249C23.5017 12.1938 23.4735 12.0642 23.42 11.9444C23.3666 11.8245 23.289 11.7167 23.1921 11.6277V11.6282Z" fill="white"/>
<path d="M16.9092 18.7059C16.8508 18.7044 16.795 18.6814 16.7528 18.6412L15.7619 17.6559C15.7197 17.6124 15.696 17.5543 15.696 17.4938C15.696 17.4333 15.7197 17.3752 15.7619 17.3316L21.6669 11.4852C21.837 11.3163 22.0542 11.2021 22.2903 11.1574C22.5265 11.1127 22.7707 11.1396 22.9913 11.2346C23.2119 11.3296 23.3987 11.4883 23.5275 11.6901C23.6563 11.892 23.7211 12.1276 23.7136 12.3666C23.7068 12.5287 23.6676 12.6879 23.5982 12.8348C23.5288 12.9817 23.4306 13.1134 23.3093 13.2221L17.0656 18.6665C17.0202 18.6985 16.9644 18.7123 16.9092 18.7054V18.7059ZM16.2185 17.4867L16.8701 18.1478L22.9965 12.8459C23.148 12.7146 23.2385 12.527 23.2443 12.3272C23.2502 12.1274 23.171 11.932 23.0229 11.7959C22.8861 11.6604 22.701 11.5844 22.5079 11.5844C22.3149 11.5844 22.1297 11.6604 21.9929 11.7959L16.2185 17.4867Z" fill="#FF6C37"/>
<path d="M11.4083 24.163C11.3916 24.1855 11.3826 24.2128 11.3826 24.2407C11.3826 24.2687 11.3916 24.296 11.4083 24.3185L11.6688 25.4463C11.6793 25.5127 11.6694 25.5806 11.6404 25.6413C11.6115 25.702 11.5648 25.7526 11.5065 25.7866C11.4485 25.8204 11.3811 25.8349 11.3142 25.8282C11.2472 25.8215 11.1842 25.7938 11.1341 25.7491L9.34839 24.038L14.9146 18.459H16.844L18.1477 19.7554C16.114 21.5236 13.8465 23.0066 11.4083 24.163V24.163Z" fill="white"/>
<path d="M11.2912 26.0685C11.1435 26.0656 10.9979 26.0053 10.9001 25.8998L9.19264 24.2018C9.16818 24.1824 9.14844 24.1577 9.13487 24.1296C9.1213 24.1016 9.11426 24.0708 9.11426 24.0397C9.11426 24.0086 9.1213 23.9778 9.13487 23.9498C9.14844 23.9217 9.16818 23.897 9.19264 23.8776L14.7975 18.2908C14.8289 18.2576 14.8699 18.235 14.9148 18.2261H16.8569C16.9075 18.2083 16.9627 18.2083 17.0133 18.2261L18.317 19.5226C18.3418 19.5453 18.3607 19.5737 18.372 19.6052C18.3833 19.6368 18.3867 19.6707 18.382 19.7039C18.3829 19.7361 18.3763 19.7681 18.3628 19.7973C18.3492 19.8266 18.329 19.8523 18.3038 19.8726L18.1997 19.9635C16.1578 21.6562 13.9114 23.0889 11.5126 24.2281L11.7604 25.2781C11.7796 25.3591 11.7803 25.4433 11.7626 25.5246C11.7448 25.6059 11.709 25.6823 11.6579 25.7481C11.6067 25.8139 11.5413 25.8675 11.4666 25.905C11.392 25.9426 11.3098 25.963 11.2261 25.9649L11.2912 26.0685ZM9.70101 24.0331L11.2388 25.5756C11.2532 25.5883 11.2717 25.5953 11.2909 25.5953C11.3101 25.5953 11.3286 25.5883 11.343 25.5756C11.3526 25.5623 11.3577 25.5464 11.3577 25.5301C11.3577 25.5138 11.3526 25.4979 11.343 25.4847L11.0824 24.3569C11.0619 24.276 11.0701 24.1904 11.1058 24.1149C11.1414 24.0393 11.2022 23.9783 11.278 23.9422C13.6123 22.8182 15.8008 21.4166 17.7954 19.768L16.7264 18.7049H14.9798L9.70101 24.0331Z" fill="#FF6C37"/>
<path d="M8.00613 25.3685L9.30981 24.072L11.3174 26.0685L8.12393 25.8482C8.0691 25.844 8.01703 25.8226 7.97515 25.7871C7.93327 25.7517 7.90371 25.704 7.89071 25.6509C7.8777 25.5977 7.8819 25.5418 7.90272 25.4912C7.92353 25.4406 7.95989 25.3978 8.00661 25.3689L8.00613 25.3685Z" fill="white"/>
<path d="M11.356 26.2629L8.17527 26.0427C7.98658 26.0252 7.82429 25.8969 7.75781 25.7253C7.69133 25.5537 7.73191 25.35 7.86242 25.2129L9.16611 23.9165C9.20985 23.8744 9.2683 23.851 9.32913 23.851C9.38995 23.851 9.4484 23.8744 9.49215 23.9165L11.4865 25.8998C11.5141 25.9374 11.529 25.9828 11.529 26.0293C11.529 26.0759 11.5141 26.1213 11.4865 26.1589C11.4564 26.2074 11.4103 26.244 11.356 26.2624V26.2629ZM8.17527 25.5372L10.7821 25.7058L9.34844 24.3705L8.17527 25.5372Z" fill="#FF6C37"/>
<path d="M17.0263 18.6155L14.3931 19.0176L15.9182 17.514L17.0263 18.6155Z" fill="white"/>
<path d="M14.3931 19.2631C14.3493 19.2642 14.3062 19.2525 14.269 19.2294C14.2319 19.2063 14.2025 19.1729 14.1843 19.1333C14.1566 19.0957 14.1416 19.0503 14.1416 19.0037C14.1416 18.9571 14.1566 18.9117 14.1843 18.8742L15.6962 17.3575C15.7421 17.3146 15.8027 17.2908 15.8656 17.2908C15.9285 17.2908 15.9891 17.3146 16.035 17.3575L17.1436 18.459C17.1658 18.494 17.1775 18.5344 17.1775 18.5757C17.1775 18.617 17.1658 18.6574 17.1436 18.6924C17.1327 18.7349 17.1098 18.7735 17.0774 18.8034C17.0451 18.8333 17.0048 18.8533 16.9613 18.861L14.3544 19.2631H14.3931ZM15.9182 17.8499L15.071 18.6924L16.5311 18.4721L15.9182 17.8499Z" fill="#FF6C37"/>
<path d="M17.0264 18.6146L15.1884 18.8479C15.1392 18.859 15.0878 18.8541 15.0416 18.8338C14.9955 18.8135 14.9572 18.779 14.9323 18.7354C14.9075 18.6917 14.8974 18.6413 14.9037 18.5915C14.9099 18.5417 14.9321 18.4953 14.967 18.459L15.9187 17.5126L17.0264 18.6146Z" fill="white"/>
<path d="M15.1361 19.0948C15.0509 19.094 14.9674 19.0708 14.8942 19.0275C14.821 18.9842 14.7606 18.9224 14.7191 18.8483C14.6694 18.7596 14.6501 18.6571 14.6642 18.5565C14.6783 18.4559 14.725 18.3626 14.7973 18.2908L15.7491 17.3443C15.7949 17.3015 15.8555 17.2776 15.9185 17.2776C15.9814 17.2776 16.042 17.3015 16.0878 17.3443L17.196 18.4463C17.2289 18.4774 17.2521 18.5173 17.2627 18.5612C17.2734 18.6051 17.2709 18.6511 17.2558 18.6936C17.2406 18.7362 17.2134 18.7734 17.1773 18.8009C17.1413 18.8284 17.098 18.8448 17.0528 18.8483L15.228 19.0817L15.1361 19.0948ZM15.1361 18.615L16.518 18.4463L15.9055 17.8372L15.1234 18.615H15.1361ZM26.4768 9.24284C26.4522 9.20194 26.4134 9.17142 26.3677 9.15709C26.3221 9.14275 26.2727 9.14559 26.2289 9.16507C26.2074 9.17594 26.1882 9.19101 26.1726 9.20938C26.157 9.22775 26.1452 9.24904 26.138 9.27201C26.1235 9.31835 26.1281 9.36853 26.1507 9.41152C26.2421 9.60256 26.2167 9.8286 26.0857 9.99485C26.0694 10.0109 26.0567 10.0301 26.0483 10.0512C26.0399 10.0724 26.036 10.0951 26.0368 10.1178C26.0373 10.1634 26.0547 10.2072 26.0857 10.2408C26.1192 10.254 26.1564 10.254 26.1898 10.2408C26.2202 10.2484 26.2521 10.2476 26.282 10.2384C26.3119 10.2292 26.3387 10.2121 26.3595 10.1888C26.4668 10.0581 26.5348 9.8999 26.5555 9.73243C26.5763 9.56495 26.549 9.39506 26.4768 9.24236V9.24284Z" fill="#FF6C37"/>
</svg>
