<svg width="24" height="24" viewBox="0 0 24 24" fill="none" xmlns="http://www.w3.org/2000/svg">
<path d="M24 12.0024C24 10.4125 22.009 8.90581 18.9564 7.97145C19.6608 4.86015 19.3477 2.38482 17.9682 1.59232C17.6502 1.40642 17.2784 1.31837 16.8724 1.31837V2.40928C17.0974 2.40928 17.2784 2.45331 17.4301 2.53647C18.0954 2.91804 18.384 4.37096 18.159 6.23969C18.1052 6.69953 18.0171 7.18384 17.9095 7.67793C16.9507 7.44311 15.9038 7.26211 14.8031 7.1447C14.1427 6.23969 13.4578 5.41784 12.768 4.69872C14.3628 3.21645 15.8598 2.40439 16.8773 2.40439V1.31348C15.532 1.31348 13.7709 2.2723 11.9902 3.93557C10.2095 2.28209 8.44843 1.33304 7.10314 1.33304V2.42395C8.11578 2.42395 9.61761 3.23113 11.2124 4.70361C10.5275 5.42273 9.84264 6.23969 9.19201 7.1447C8.08643 7.26211 7.03954 7.44311 6.08072 7.68282C5.9682 7.19362 5.88504 6.7191 5.82633 6.26415C5.59641 4.39542 5.88015 2.9425 6.54056 2.55604C6.68732 2.46798 6.87811 2.42885 7.10314 2.42885V1.33794C6.69221 1.33794 6.32042 1.42599 5.99755 1.61189C4.62291 2.40439 4.31472 4.87483 5.02405 7.97634C1.98125 8.9156 0 10.4174 0 12.0024C0 13.5923 1.99103 15.099 5.04362 16.0334C4.33918 19.1447 4.65226 21.62 6.0318 22.4125C6.34978 22.5984 6.72157 22.6865 7.13249 22.6865C8.47778 22.6865 10.2389 21.7277 12.0196 20.0644C13.8002 21.7179 15.5614 22.6669 16.9066 22.6669C17.3176 22.6669 17.6894 22.5789 18.0122 22.393C19.3869 21.6005 19.6951 19.13 18.9857 16.0285C22.0188 15.0942 24 13.5874 24 12.0024ZM17.6307 8.73949C17.4497 9.37055 17.2246 10.0212 16.9702 10.6718C16.7697 10.2805 16.5593 9.8891 16.3294 9.49774C16.1044 9.10638 15.8647 8.72481 15.625 8.35302C16.3196 8.45575 16.9898 8.58294 17.6307 8.73949ZM15.3901 13.9494C15.0086 14.6098 14.6172 15.236 14.2112 15.8182C13.4823 15.8818 12.7436 15.916 12 15.916C11.2613 15.916 10.5226 15.8818 9.79861 15.8231C9.39258 15.2409 8.99633 14.6196 8.61476 13.9641C8.24297 13.3233 7.90542 12.6726 7.59723 12.0171C7.90053 11.3616 8.24297 10.7061 8.60987 10.0652C8.99144 9.40479 9.3828 8.77862 9.78883 8.19648C10.5177 8.13288 11.2564 8.09864 12 8.09864C12.7387 8.09864 13.4774 8.13288 14.2014 8.19159C14.6074 8.77373 15.0037 9.39501 15.3852 10.0505C15.757 10.6914 16.0946 11.342 16.4028 11.9975C16.0946 12.6531 15.757 13.3086 15.3901 13.9494ZM16.9702 13.3135C17.2344 13.969 17.4594 14.6245 17.6453 15.2605C17.0045 15.417 16.3294 15.5491 15.6298 15.6518C15.8695 15.2752 16.1093 14.8887 16.3343 14.4924C16.5593 14.1011 16.7697 13.7048 16.9702 13.3135ZM12.0098 18.5332C11.5548 18.0636 11.0999 17.5401 10.6498 16.9678C11.0901 16.9873 11.5402 17.002 11.9951 17.002C12.455 17.002 12.9099 16.9922 13.3551 16.9678C12.9148 17.5401 12.4598 18.0636 12.0098 18.5332ZM8.37016 15.6518C7.6755 15.5491 7.0053 15.4219 6.36445 15.2654C6.54545 14.6343 6.77049 13.9837 7.02487 13.333C7.22544 13.7244 7.43579 14.1158 7.66572 14.5071C7.89564 14.8985 8.13045 15.2801 8.37016 15.6518ZM11.9853 5.47165C12.4403 5.94128 12.8952 6.46472 13.3453 7.03708C12.905 7.01751 12.455 7.00284 12 7.00284C11.5402 7.00284 11.0852 7.01262 10.64 7.03708C11.0803 6.46472 11.5353 5.94128 11.9853 5.47165ZM8.36527 8.35302C8.12556 8.7297 7.88585 9.11617 7.66082 9.51242C7.43579 9.90378 7.22544 10.2951 7.02487 10.6865C6.7607 10.031 6.53567 9.37544 6.34978 8.73949C6.99062 8.58784 7.66572 8.45575 8.36527 8.35302ZM3.93804 14.4778C2.20628 13.7391 1.08602 12.7705 1.08602 12.0024C1.08602 11.2344 2.20628 10.2609 3.93804 9.52709C4.35875 9.34609 4.81859 9.18466 5.29311 9.033C5.57195 9.99183 5.93885 10.9898 6.3938 12.0122C5.94374 13.0297 5.58174 14.0228 5.30779 14.9767C4.82348 14.8251 4.36364 14.6588 3.93804 14.4778ZM6.56991 21.4684C5.90461 21.0868 5.61598 19.6339 5.84101 17.7652C5.89482 17.3053 5.98288 16.821 6.0905 16.3269C7.04933 16.5617 8.09621 16.7427 9.1969 16.8602C9.85732 17.7652 10.5422 18.587 11.232 19.3061C9.63718 20.7884 8.14024 21.6005 7.12271 21.6005C6.90257 21.5956 6.71667 21.5516 6.56991 21.4684ZM18.1737 17.7407C18.4036 19.6094 18.1199 21.0624 17.4594 21.4488C17.3127 21.5369 17.1219 21.576 16.8969 21.576C15.8842 21.576 14.3824 20.7688 12.7876 19.2964C13.4725 18.5772 14.1574 17.7603 14.808 16.8553C15.9136 16.7379 16.9605 16.5569 17.9193 16.3171C18.0318 16.8112 18.1199 17.2858 18.1737 17.7407ZM20.0571 14.4778C19.6364 14.6588 19.1765 14.8202 18.702 14.9719C18.4232 14.013 18.0563 13.0151 17.6013 11.9926C18.0514 10.9751 18.4134 9.98205 18.6873 9.02811C19.1716 9.17976 19.6315 9.34609 20.062 9.52709C21.7937 10.2658 22.914 11.2344 22.914 12.0024C22.9091 12.7705 21.7888 13.744 20.0571 14.4778Z" fill="#61DAFB"/>
<path d="M11.9952 14.2381C13.2299 14.2381 14.2308 13.2372 14.2308 12.0025C14.2308 10.7678 13.2299 9.76685 11.9952 9.76685C10.7604 9.76685 9.75952 10.7678 9.75952 12.0025C9.75952 13.2372 10.7604 14.2381 11.9952 14.2381Z" fill="#61DAFB"/>
</svg>
