<svg width="24" height="24" viewBox="0 0 24 24" fill="none" xmlns="http://www.w3.org/2000/svg">
<g clip-path="url(#clip0_121_27)">
<path d="M0.843874 12.0931C0.783364 10.6172 0.993198 9.20757 1.49076 7.83873C1.91105 6.68243 2.50348 5.62849 3.27239 4.66771C4.07157 3.66912 5.00973 2.8263 6.08678 2.14501C7.24487 1.41247 8.50936 0.935424 9.85145 0.654734C10.8667 0.4424 11.8948 0.42461 12.9188 0.480191C13.998 0.538766 15.0446 0.797343 16.0603 1.18051C17.0928 1.56997 18.042 2.10561 18.9111 2.77731C19.7324 3.41209 20.4531 4.1538 21.0763 4.98544C22.0152 6.23814 22.6339 7.64157 23.0011 9.15757C23.2746 10.2866 23.3148 11.441 23.2377 12.589C23.1342 14.13 22.692 15.5919 21.9653 16.9562C21.3088 18.1888 20.4425 19.2601 19.3816 20.1729C19.3166 20.2288 19.2697 20.3452 19.2711 20.4326C19.2831 21.1911 18.8964 21.7383 18.3263 22.1644C17.5089 22.7752 16.5621 23.1044 15.5704 23.2894C14.8867 23.4169 14.1944 23.5224 13.5014 23.5691C12.6626 23.6256 11.8157 23.664 10.9781 23.6133C9.35568 23.5151 7.7481 23.3 6.2879 22.5005C5.59994 22.1238 5.0344 21.6348 4.8553 20.8203C4.85033 20.7977 4.83066 20.7734 4.83547 20.7543C4.94337 20.3248 4.63679 20.1114 4.37936 19.871C3.3693 18.9279 2.54601 17.8435 1.94995 16.5958C1.43603 15.52 1.06263 14.3977 0.93579 13.2047C0.89731 12.8428 0.874086 12.4792 0.843874 12.0931ZM2.25746 7.81649C2.24583 7.85343 2.23664 7.89136 2.22222 7.92717C1.84557 8.86231 1.61746 9.83933 1.56062 10.8387C1.51134 11.7052 1.51804 12.5766 1.67783 13.4445C1.91367 14.7255 2.31517 15.9419 3.01341 17.0394C3.41976 17.6782 3.90527 18.2675 4.36873 18.8685C4.51073 19.0527 4.69767 19.2022 4.88725 19.3907C4.92209 19.215 4.94416 19.1015 4.96713 18.9882C5.30549 17.319 6.14813 15.9473 7.44372 14.8567C8.21237 14.2097 9.10047 13.7763 10.0604 13.477C10.5878 13.3127 11.0363 13.3039 11.4026 13.8052C11.5783 14.0456 11.8244 14.2346 12.0611 14.469C12.3716 14.151 12.671 13.8648 12.9452 13.5563C13.1141 13.3661 13.3198 13.3084 13.534 13.3715C14.0747 13.5309 14.6238 13.6817 15.1375 13.9086C16.1025 14.3348 16.9185 14.9804 17.5914 15.793C18.0575 16.3559 18.468 16.9619 18.7153 17.6561C18.9113 18.2061 19.0704 18.7693 19.2597 19.3708C19.6182 18.9642 19.9965 18.5671 20.3383 18.1407C20.9733 17.3483 21.47 16.4709 21.8387 15.5246C22.2235 14.5371 22.4852 13.5138 22.5372 12.456C22.5795 11.5953 22.5723 10.7315 22.4133 9.873C22.2212 8.83526 21.9023 7.84332 21.4221 6.90766C21.0574 6.19692 20.6161 5.53317 20.0979 4.91947C19.5538 4.27513 18.9463 3.70292 18.2718 3.19979C17.4836 2.61172 16.6228 2.15508 15.7044 1.8078C14.7929 1.46315 13.8468 1.24537 12.8777 1.1831C12.2383 1.14201 11.5895 1.17029 10.9502 1.22715C10.4052 1.27562 9.85901 1.37513 9.32883 1.51208C8.13254 1.82107 7.03398 2.35241 6.01967 3.06047C5.1867 3.64194 4.45388 4.33295 3.82302 5.12274C3.17783 5.93046 2.65226 6.81674 2.25746 7.81649ZM9.51201 22.7736C9.96652 22.8228 10.4206 22.9075 10.8756 22.9135C11.7443 22.9249 12.6138 22.9008 13.4824 22.8737C14.2988 22.8482 15.0995 22.699 15.887 22.4911C16.6547 22.2885 17.3971 22.0169 18.0211 21.5028C18.3038 21.2699 18.5264 20.9711 18.5535 20.6033C18.6129 19.7964 18.4684 19.0106 18.1922 18.2519C17.7735 17.1022 17.0908 16.1356 16.1368 15.3684C15.8625 15.1478 15.5621 14.9597 15.253 14.7423C15.1838 14.8754 15.1385 14.9639 15.092 15.0518C14.8232 15.5594 14.5575 16.0688 14.2837 16.5737C14.1559 16.8094 13.9486 16.8532 13.7198 16.7017C13.5917 16.6168 13.4708 16.5212 13.3519 16.4342C13.1604 16.5987 13.2519 16.7881 13.2863 16.9611C13.5079 18.0772 13.7388 19.1914 13.9618 20.3072C14.0043 20.5197 13.9469 20.7028 13.7685 20.848C13.3125 21.2191 12.8584 21.5928 12.4114 21.9748C12.1044 22.2373 11.9791 22.2355 11.6757 21.968C11.2392 21.5831 10.8046 21.194 10.3436 20.8399C10.1389 20.6826 10.0936 20.5081 10.1361 20.2937C10.3603 19.163 10.5953 18.0344 10.8207 16.9039C10.8518 16.7475 10.9216 16.5722 10.7415 16.4418C10.616 16.5314 10.4931 16.6258 10.3636 16.71C10.1472 16.8508 9.9376 16.8041 9.8154 16.5823C9.65063 16.2834 9.49649 15.9785 9.33602 15.6772C9.17645 15.3775 9.01469 15.079 8.85207 14.7766C8.76928 14.8153 8.70158 14.8377 8.64382 14.8753C8.04271 15.2673 7.49466 15.716 7.03714 16.2776C6.05522 17.4828 5.53211 18.8465 5.52743 20.4084C5.5261 20.8526 5.71386 21.2129 6.03653 21.4606C6.40113 21.7405 6.80607 22.0053 7.23589 22.1544C7.96402 22.4068 8.72544 22.5632 9.51201 22.7736ZM12.5894 16.9706C12.5679 16.9499 12.5468 16.9115 12.5249 16.9111C12.2207 16.9052 11.9161 16.8979 11.6123 16.9099C11.5677 16.9116 11.5006 17.0055 11.4881 17.0659C11.2725 18.1121 11.0623 19.1594 10.8572 20.2077C10.8447 20.2714 10.8607 20.3724 10.9037 20.4102C11.2779 20.7388 11.6612 21.0571 12.0514 21.3865C12.4199 21.0733 12.7728 20.767 13.1337 20.4704C13.2372 20.3853 13.2648 20.3092 13.2365 20.1727C13.0181 19.1192 12.8111 18.0633 12.5894 16.9706ZM9.67974 14.8126C9.87056 15.1712 10.0614 15.5297 10.2582 15.8996C10.6839 15.5612 11.0858 15.2417 11.5114 14.9034C11.2173 14.6291 10.9469 14.376 10.6744 14.1252C10.6545 14.1068 10.6156 14.0905 10.5923 14.0971C10.2324 14.198 9.87374 14.3029 9.49163 14.4136C9.56593 14.5743 9.61403 14.6784 9.67974 14.8126ZM14.3498 14.9362C14.4267 14.7793 14.5036 14.6224 14.6067 14.412C14.2185 14.3011 13.866 14.1995 13.5125 14.1012C13.4873 14.0942 13.4464 14.1012 13.4281 14.1182C13.1516 14.374 12.8777 14.6325 12.5852 14.9073C13.0142 15.2463 13.4173 15.5649 13.8355 15.8954C14.0082 15.5772 14.1733 15.2731 14.3498 14.9362ZM11.3704 16.0744C11.4421 16.1314 11.5111 16.2333 11.5859 16.2378C11.8959 16.2562 12.2084 16.2563 12.5184 16.2367C12.5914 16.2321 12.6883 16.1366 12.7179 16.061C12.741 16.0017 12.7 15.8839 12.6476 15.8347C12.495 15.6916 12.3249 15.5664 12.1557 15.4423C12.1135 15.4113 12.0265 15.3805 11.9981 15.4013C11.7791 15.5623 11.5674 15.7335 11.3599 15.9092C11.3376 15.9281 11.3566 15.9958 11.3704 16.0744Z" fill="#1F4571"/>
<path d="M2.26507 7.80014C2.65212 6.81676 3.17769 5.93048 3.82288 5.12276C4.45374 4.33297 5.18656 3.64196 6.01953 3.06049C7.03384 2.35243 8.1324 1.82109 9.32869 1.51209C9.85887 1.37515 10.4051 1.27564 10.9501 1.22717C11.5894 1.17031 12.2381 1.14203 12.8775 1.18312C13.8466 1.24539 14.7928 1.46317 15.7042 1.80782C16.6226 2.1551 17.4834 2.61174 18.2717 3.19981C18.9461 3.70294 19.5537 4.27515 20.0978 4.91949C20.616 5.53319 21.0572 6.19694 21.422 6.90767C21.9021 7.84334 22.221 8.83528 22.4132 9.87302C22.5721 10.7315 22.5793 11.5953 22.537 12.456C22.485 13.5138 22.2234 14.5371 21.8386 15.5246C21.4698 16.4709 20.9731 17.3483 20.3381 18.1407C19.9964 18.5671 19.618 18.9643 19.2595 19.3708C19.0702 18.7693 18.9112 18.2062 18.7152 17.6562C18.4678 16.962 18.0573 16.3559 17.5912 15.793C16.9184 14.9804 16.1024 14.3348 15.1373 13.9086C14.6236 13.6817 14.0745 13.5309 13.5338 13.3716C13.3197 13.3084 13.114 13.3662 12.945 13.5563C12.6708 13.8649 12.3715 14.1511 12.0609 14.469C11.8243 14.2346 11.5782 14.0456 11.4025 13.8052C11.0362 13.3039 10.5876 13.3127 10.0603 13.4771C9.10033 13.7763 8.21223 14.2097 7.44358 14.8567C6.14799 15.9473 5.30535 17.319 4.96699 18.9882C4.94402 19.1015 4.92195 19.215 4.88711 19.3907C4.69753 19.2023 4.51059 19.0527 4.36859 18.8686C3.90513 18.2675 3.41962 17.6782 3.01327 17.0395C2.31503 15.9419 1.91353 14.7255 1.67769 13.4445C1.5179 12.5766 1.5112 11.7053 1.56048 10.8388C1.61732 9.83935 1.84544 8.86233 2.22208 7.92719C2.2365 7.89138 2.24569 7.85345 2.26507 7.80014ZM9.96264 11.4375C10.7861 12.0442 11.7115 12.2109 12.7021 12.0462C14.2066 11.7961 15.4105 10.5296 15.5539 8.93655C15.6593 7.7655 15.2789 6.75746 14.3819 5.96728C13.5364 5.22237 12.5475 4.93647 11.446 5.12198C9.99273 5.36673 8.77025 6.54716 8.5722 8.05269C8.39063 9.4329 8.84518 10.5529 9.96264 11.4375Z" fill="white"/>
<path d="M9.49236 22.7668C8.72536 22.5632 7.96393 22.4068 7.23581 22.1543C6.80599 22.0053 6.40105 21.7404 6.03645 21.4606C5.71378 21.2129 5.52602 20.8526 5.52735 20.4084C5.53202 18.8465 6.05514 17.4828 7.03706 16.2775C7.49457 15.716 8.04263 15.2673 8.64374 14.8753C8.70149 14.8376 8.76919 14.8152 8.85198 14.7765C9.01461 15.079 9.17637 15.3775 9.33594 15.6771C9.4964 15.9785 9.65055 16.2833 9.81531 16.5823C9.93752 16.804 10.1471 16.8507 10.3635 16.71C10.4931 16.6258 10.6159 16.5313 10.7415 16.4417C10.9215 16.5722 10.8517 16.7475 10.8206 16.9039C10.5953 18.0344 10.3602 19.163 10.136 20.2937C10.0935 20.508 10.1388 20.6826 10.3435 20.8398C10.8045 21.1939 11.2391 21.5831 11.6757 21.968C11.9791 22.2355 12.1043 22.2373 12.4114 21.9748C12.8583 21.5928 13.3124 21.2191 13.7684 20.8479C13.9469 20.7028 14.0043 20.5197 13.9618 20.3071C13.7387 19.1914 13.5078 18.0772 13.2862 16.9611C13.2518 16.7881 13.1603 16.5987 13.3518 16.4342C13.4707 16.5211 13.5917 16.6168 13.7198 16.7017C13.9486 16.8532 14.1559 16.8094 14.2836 16.5737C14.5574 16.0687 14.8231 15.5594 15.0919 15.0517C15.1384 14.9639 15.1837 14.8754 15.2529 14.7422C15.562 14.9597 15.8625 15.1477 16.1367 15.3683C17.0907 16.1356 17.7735 17.1021 18.1921 18.2518C18.4683 19.0106 18.6128 19.7964 18.5534 20.6033C18.5264 20.9711 18.3038 21.2699 18.021 21.5028C17.397 22.0169 16.6546 22.2885 15.887 22.4911C15.0995 22.699 14.2987 22.8482 13.4823 22.8737C12.6137 22.9008 11.7442 22.9248 10.8756 22.9135C10.4205 22.9075 9.96644 22.8227 9.49236 22.7668Z" fill="white"/>
<path d="M12.5949 16.9893C12.8111 18.0633 13.0181 19.1192 13.2365 20.1727C13.2648 20.3092 13.2372 20.3853 13.1337 20.4704C12.7728 20.767 12.4199 21.0732 12.0514 21.3865C11.6612 21.057 11.2778 20.7388 10.9037 20.4101C10.8607 20.3723 10.8447 20.2713 10.8571 20.2077C11.0623 19.1594 11.2725 18.1121 11.4881 17.0659C11.5006 17.0055 11.5676 16.9116 11.6123 16.9098C11.9161 16.8978 12.2207 16.9052 12.5249 16.911C12.5468 16.9114 12.5679 16.9499 12.5949 16.9893Z" fill="#A3D3FE"/>
<path d="M9.67075 14.7975C9.61385 14.6783 9.56575 14.5743 9.49146 14.4136C9.87356 14.3029 10.2323 14.198 10.5921 14.0971C10.6155 14.0905 10.6543 14.1068 10.6743 14.1251C10.9467 14.376 11.2171 14.6291 11.5112 14.9033C11.0856 15.2417 10.6837 15.5612 10.258 15.8995C10.0612 15.5297 9.87038 15.1711 9.67075 14.7975Z" fill="white"/>
<path d="M14.3441 14.9526C14.1733 15.2731 14.0083 15.5772 13.8355 15.8954C13.4174 15.5649 13.0142 15.2463 12.5852 14.9073C12.8777 14.6325 13.1516 14.374 13.4281 14.1182C13.4464 14.1012 13.4873 14.0942 13.5126 14.1012C13.866 14.1995 14.2185 14.3011 14.6067 14.412C14.5036 14.6224 14.4267 14.7793 14.3441 14.9526Z" fill="white"/>
<path d="M11.3635 16.0577C11.3566 15.9958 11.3376 15.9281 11.3599 15.9092C11.5674 15.7335 11.7791 15.5623 11.9981 15.4013C12.0265 15.3805 12.1135 15.4113 12.1557 15.4423C12.3249 15.5664 12.495 15.6916 12.6476 15.8348C12.7 15.8839 12.741 16.0017 12.7179 16.061C12.6883 16.1367 12.5914 16.2321 12.5184 16.2367C12.2084 16.2563 11.8959 16.2562 11.5859 16.2378C11.5111 16.2333 11.4421 16.1315 11.3635 16.0577Z" fill="#9FCEF9"/>
<path d="M9.95033 11.426C8.84526 10.5529 8.39071 9.4329 8.57227 8.0527C8.77033 6.54716 9.9928 5.36673 11.446 5.12199C12.5476 4.93647 13.5364 5.22237 14.382 5.96729C15.279 6.75746 15.6594 7.7655 15.554 8.93655C15.4106 10.5296 14.2067 11.7961 12.7022 12.0462C11.7116 12.2109 10.7861 12.0442 9.95033 11.426ZM10.2648 10.7584C10.8465 11.2352 11.5054 11.4584 12.2627 11.3938C13.1455 11.3184 13.852 10.9278 14.3458 10.2C15.0251 9.19878 15.0371 8.16583 14.4369 7.11154C13.9477 6.25237 12.6619 5.65011 11.6942 5.79759C10.0876 6.04244 8.96575 7.52446 9.28561 9.13301C9.41294 9.77335 9.72514 10.3185 10.2648 10.7584Z" fill="#1F4571"/>
<path d="M10.2526 10.7467C9.7251 10.3185 9.41289 9.77334 9.28556 9.133C8.96571 7.52445 10.0875 6.04243 11.6941 5.79758C12.6618 5.6501 13.9476 6.25236 14.4368 7.11153C15.0371 8.16582 15.0251 9.19877 14.3457 10.2C13.8519 10.9277 13.1455 11.3184 12.2626 11.3938C11.5053 11.4584 10.8464 11.2352 10.2526 10.7467Z" fill="white"/>
</g>
<defs>
<clipPath id="clip0_121_27">
<rect width="24" height="24" fill="white"/>
</clipPath>
</defs>
</svg>
