<svg width="117" height="118" viewBox="0 0 117 118" fill="none" xmlns="http://www.w3.org/2000/svg">
<ellipse cx="30.2223" cy="91.4742" rx="5.42225" ry="5.47423" fill="white"/>
<path d="M16.8691 40.1443L91.5 29L98 20L102 32L105 44.5L106.5 64.5L101 80.5L92 92.5L52.5 96.5L23 88.5L16.8691 40.1443Z" fill="white"/>
<path d="M98.4035 16.1381C97.0539 19.3752 95.3072 22.4319 93.2035 25.2381C88.6994 20.5784 83.3064 16.8696 77.3436 14.3309C71.3809 11.7923 64.9695 10.4754 58.4888 10.4583C52.0081 10.4412 45.5899 11.7241 39.6138 14.2311C33.6377 16.7382 28.2251 20.4185 23.6964 25.0542C19.1677 29.69 15.6148 35.187 13.248 41.22C10.8812 47.253 9.74853 53.6995 9.91702 60.178C10.0855 66.6565 11.5517 73.0354 14.2289 78.9373C16.9062 84.8391 20.74 90.144 25.5035 94.5381L27.3035 96.1381C34.1342 101.899 42.4262 105.657 51.261 106.995C60.0958 108.334 69.1288 107.201 77.3595 103.723C85.5902 100.244 92.6976 94.5553 97.8944 87.2862C103.091 80.0172 106.175 71.4516 106.804 62.5381C108.204 50.3381 104.504 34.7381 98.4035 16.1381ZM32.5035 94.9381C31.9894 95.5699 31.2994 96.0351 30.521 96.275C29.7425 96.5148 28.9104 96.5185 28.1298 96.2856C27.3492 96.0527 26.6552 95.5936 26.1354 94.9663C25.6157 94.3391 25.2936 93.5718 25.2097 92.7616C25.1259 91.9513 25.2842 91.1344 25.6645 90.414C26.0448 89.6937 26.6302 89.1022 27.3466 88.7144C28.0629 88.3266 28.8782 88.1599 29.6893 88.2353C30.5004 88.3107 31.2709 88.6249 31.9035 89.1381C32.7328 89.8405 33.2583 90.8364 33.3702 91.9174C33.482 92.9984 33.1715 94.0808 32.5035 94.9381ZM98.1035 80.4381C86.2035 96.3381 60.6035 90.9381 44.3035 91.7381C44.3035 91.7381 41.4035 91.9381 38.5035 92.3381C38.5035 92.3381 39.6035 91.8381 41.0035 91.3381C52.5035 87.3381 57.9035 86.5381 64.9035 82.9381C78.0035 76.2381 91.1035 61.5381 93.7035 46.3381C88.7035 60.9381 73.5035 73.5381 59.7035 78.6381C50.2035 82.1381 33.1035 85.5381 33.1035 85.5381L32.4035 85.1381C20.8035 79.4381 20.4035 54.2381 41.6035 46.1381C50.9035 42.5381 59.7035 44.5381 69.8035 42.1381C80.5035 39.6381 92.9035 31.6381 97.9035 21.1381C103.504 38.0381 110.304 64.2381 98.1035 80.4381Z" fill="#6DB33F"/>
</svg>
