<svg width="917" height="917" viewBox="0 0 917 917" fill="none" xmlns="http://www.w3.org/2000/svg">
<path d="M245.355 439.9C313.786 460.884 385.979 470.986 458.5 469.725C531.023 470.978 603.215 460.868 671.645 439.875C725.06 421.7 744.002 401.5 744.002 389.875V301C725.327 311.91 705.292 320.935 684.283 327.9C611.881 350.518 535.393 361.544 458.5 360.45C381.613 361.524 305.133 350.515 232.717 327.95C211.697 320.984 191.66 311.942 172.998 301V389.75C172.998 401.6 191.997 421.7 245.355 439.9Z" fill="#78C1EC"/>
<path d="M245.355 607.525C269.529 615.568 294.458 621.766 319.861 626.05C365.54 633.759 411.974 637.552 458.5 637.375C505.025 637.561 551.459 633.776 597.139 626.075C622.542 621.791 647.47 615.593 671.645 607.55C725.06 589.375 744.002 569.175 744.002 557.55V472.8C728.566 480.904 712.341 487.805 695.516 493.425C619.456 516.919 539.173 528.292 458.5 527C377.818 528.252 297.535 516.837 221.484 493.3C204.666 487.666 188.443 480.765 172.998 472.675V557.5C172.998 569.15 191.997 589.275 245.355 607.525Z" fill="#78C1EC"/>
<path d="M458.5 808.5C616.109 808.5 744.002 764.9 744.002 711.15V640.225C729.959 647.61 715.248 653.981 700.015 659.275L695.516 660.85C619.47 684.414 539.187 695.854 458.5 694.625C377.81 695.89 297.519 684.448 221.484 660.85C219.937 660.35 218.447 659.775 216.985 659.275C201.752 653.981 187.041 647.61 172.998 640.225V711.15C172.998 764.9 300.891 808.5 458.5 808.5Z" fill="#78C1EC"/>
<path d="M458.5 303.2C616.179 303.2 744.002 259.615 744.002 205.85C744.002 152.085 616.179 108.5 458.5 108.5C300.821 108.5 172.998 152.085 172.998 205.85C172.998 259.615 300.821 303.2 458.5 303.2Z" fill="#78C1EC"/>
</svg>
