<svg width="106" height="106" viewBox="0 0 106 106" fill="none" xmlns="http://www.w3.org/2000/svg">
<path d="M74.4751 16.1313H19.572C17.799 16.1363 16.1001 16.8428 14.8465 18.0965C13.5928 19.3501 12.8863 21.049 12.8813 22.822V83.372C12.8863 85.1449 13.5928 86.8438 14.8465 88.0975C16.1001 89.3511 17.799 90.0576 19.572 90.0626H55.7345C55.322 72.0688 61.4688 37.1501 74.4751 16.1313Z" fill="#0F80CC"/>
<path d="M72.4813 18.0845H19.572C18.316 18.0861 17.112 18.5858 16.2239 19.4739C15.3358 20.362 14.8361 21.566 14.8345 22.822V78.9532C28.4083 73.8337 42.7369 70.9995 57.2376 70.5657C61.0729 52.7339 66.1669 35.1962 72.4813 18.0845Z" fill="url(#paint0_linear_129_3634)"/>
<path d="M87.2814 14.1502C83.5314 10.7971 78.9689 12.144 74.4689 16.1315C73.8033 16.7252 73.1376 17.3815 72.4751 18.0846C64.0098 28.0964 58.1563 40.0492 55.4376 52.8752C56.2768 54.7061 56.9402 56.6126 57.4189 58.569C57.5314 59.0065 57.6345 59.419 57.7314 59.769C57.9251 60.5971 58.0439 61.1346 58.0439 61.1346C58.0439 61.1346 57.9751 60.8752 57.6908 60.0533L57.5064 59.5221C57.4751 59.4377 57.4345 59.3377 57.3876 59.2283C56.8876 58.0627 55.5126 55.6033 54.8876 54.5408C54.3658 56.0815 53.9033 57.5221 53.5189 58.8252C54.8164 61.6159 55.7692 64.5542 56.3564 67.5752C56.3564 67.5752 56.2626 67.2158 55.822 65.9658C54.9754 64.1402 54.0367 62.3588 53.0095 60.6283C52.3452 62.3426 52.0637 64.1813 52.1845 66.0158C52.8728 67.3881 53.3902 68.8395 53.7251 70.3377C54.7689 74.3471 55.4939 79.2315 55.4939 79.2315C55.4939 79.2315 55.5189 79.544 55.5564 80.0533C55.4192 83.3929 55.487 86.7377 55.7595 90.069C55.9144 93.3673 56.5287 96.6279 57.5845 99.7565L58.147 99.444C56.8377 94.7418 56.3326 89.852 56.6533 84.9815C57.2415 74.6556 59.2803 64.464 62.7095 54.7065C68.9908 38.119 77.7095 24.8065 85.6783 18.4565C78.4095 25.019 68.572 46.269 65.6251 54.1377C62.522 62.2396 60.1643 70.6076 58.5814 79.1377C60.4654 74.3771 64.154 70.5537 68.8439 68.5002C68.8439 68.5002 72.697 63.7471 77.2001 56.9596C74.2909 57.5664 71.4169 58.331 68.5908 59.2502C66.4033 60.169 65.8126 60.4815 65.8126 60.4815C69.9884 57.9667 74.4 55.8661 78.9845 54.2096C87.347 41.0377 96.4595 22.3346 87.2845 14.1346" fill="#003B57"/>
<defs>
<linearGradient id="paint0_linear_129_3634" x1="43.5909" y1="19.4578" x2="43.5909" y2="75.7033" gradientUnits="userSpaceOnUse">
<stop stop-color="#97D9F6"/>
<stop offset="0.92" stop-color="#0F80CC"/>
<stop offset="1" stop-color="#0F80CC"/>
</linearGradient>
</defs>
</svg>
