<svg width="40" height="40" viewBox="0 0 40 40" fill="none" xmlns="http://www.w3.org/2000/svg">
<rect width="40" height="40" rx="20" fill="#161D2D"/>
<path d="M20 10.4026C15.7332 10.4026 13.0666 12.5354 11.9998 16.8006C13.6 14.6678 15.4667 13.8683 17.5999 14.4013C18.8172 14.7054 19.6871 15.5885 20.6502 16.5657C22.2188 18.1575 24.0343 19.9998 28.0002 19.9998C32.2666 19.9998 34.9336 17.867 36 13.6014C34.4002 15.7342 32.5335 16.5341 30.3999 16.0011C29.183 15.697 28.3131 14.8138 27.35 13.8367C25.7814 12.2449 23.9655 10.4026 20 10.4026V10.4026ZM11.9998 19.9998C7.7334 19.9998 5.0664 22.1326 4 26.3982C5.5998 24.2654 7.4665 23.4655 9.6001 23.9989C10.817 24.3034 11.6869 25.1861 12.65 26.1629C14.2186 27.7547 16.0345 29.5974 20 29.5974C24.2668 29.5974 26.9334 27.4646 28.0002 23.199C26.4 25.3318 24.5333 26.1317 22.4001 25.5983C21.1828 25.2945 20.3129 24.411 19.3498 23.4343C17.7812 21.8425 15.9657 19.9998 11.9998 19.9998V19.9998Z" fill="#16BECB"/>
</svg>
