<svg width="160" height="160" viewBox="0 0 160 160" fill="none" xmlns="http://www.w3.org/2000/svg">
<path d="M112.059 57.3329C112.163 64.2494 112.235 71.1658 112.284 78.0829C112.305 80.4356 112.333 82.7881 112.368 85.1406C112.418 88.5239 112.442 91.9065 112.46 95.2901C112.481 96.3404 112.502 97.3907 112.524 98.4729C112.526 105.761 112.526 105.761 110.248 109.653C108.13 111.533 106.166 113.066 103.718 114.483C102.9 114.965 102.081 115.446 101.238 115.942C100.367 116.442 99.4961 116.941 98.5987 117.456C96.7607 118.531 94.9233 119.607 93.0864 120.684C92.1531 121.229 91.2197 121.773 90.2581 122.334C85.0141 125.428 79.8512 128.657 74.6901 131.888C69.2106 135.274 69.2106 135.274 66.9349 135.274C66.9349 117.676 66.9349 100.078 66.9349 81.946C87.9667 69.9279 87.9667 69.9279 89.8463 68.8564C93.1506 66.9716 96.4481 65.076 99.7354 63.1617C100.393 62.7806 101.051 62.3995 101.728 62.0068C102.987 61.277 104.244 60.5438 105.498 59.8067C109.777 57.3329 109.777 57.3329 112.059 57.3329Z" fill="#7469F2"/>
<path d="M12.581 57.3329C21.117 61.4683 29.3542 65.9624 37.5146 70.7932C39.6257 72.0353 41.7369 73.2772 43.8482 74.5188C44.7634 75.0597 45.6786 75.6005 46.6216 76.1578C49.9595 78.1125 53.321 80.0269 56.6795 81.946C56.6795 99.5444 56.6795 117.143 56.6795 135.274C52.6918 133.679 49.4744 132.102 45.8392 129.91C44.7499 129.255 43.6605 128.6 42.5382 127.925C41.4092 127.241 40.2802 126.557 39.117 125.852C37.4593 124.856 37.4593 124.856 35.768 123.839C32.4745 121.853 29.1916 119.851 25.9131 117.84C24.8347 117.182 23.7563 116.524 22.6452 115.847C21.6322 115.218 20.6192 114.59 19.5756 113.942C18.6715 113.384 17.7674 112.826 16.8359 112.25C14.6321 110.661 14.6321 110.661 12.581 107.585C12.3344 105.307 12.3344 105.307 12.3482 102.622C12.3483 101.617 12.3485 100.611 12.3486 99.5744C12.3592 98.4911 12.3698 97.4078 12.3807 96.2917C12.3836 95.1806 12.3865 94.0696 12.3895 92.9249C12.401 89.372 12.4267 85.8193 12.4528 82.2665C12.4631 79.8595 12.4725 77.4526 12.4809 75.0456C12.5035 69.1413 12.5378 63.2371 12.581 57.3329Z" fill="#7368F2"/>
<path d="M60.7816 24.5153C65.3799 24.9519 68.6825 26.2239 72.6756 28.4933C73.7458 29.0966 74.8161 29.6999 75.9187 30.3215C77.0364 30.9648 78.1541 31.6081 79.3056 32.271C81.0188 33.2439 81.0188 33.2439 82.7666 34.2364C90.5823 38.6953 98.3267 43.2511 105.906 48.1028C102.827 50.5243 99.6519 52.4712 96.2271 54.3683C95.1391 54.9738 94.0511 55.5792 92.9301 56.2031C91.7972 56.8297 90.6642 57.4563 89.497 58.1019C87.2743 59.3346 85.0523 60.5685 82.8309 61.8035C81.731 62.411 80.6311 63.0184 79.4979 63.6443C77.2295 64.9325 74.9863 66.2661 72.7677 67.6383C71.689 68.3039 70.6102 68.9696 69.4988 69.6553C68.0552 70.572 68.0552 70.572 66.5824 71.5071C63.3593 72.9374 62.0298 72.796 58.7305 71.6904C56.4021 70.4859 54.1787 69.254 51.9363 67.9087C50.6535 67.1574 49.3703 66.4069 48.0865 65.6573C47.4557 65.2868 46.825 64.9163 46.1751 64.5346C41.8717 62.0308 37.4745 59.694 33.0919 57.3328C32.2109 56.8576 32.2109 56.8576 31.3122 56.3728C27.4631 54.2967 23.6121 52.224 19.7598 50.1539C21.0483 46.2883 22.0374 46.1255 25.5846 44.3091C26.6061 43.7745 27.6277 43.24 28.6802 42.6892C29.7976 42.1067 30.9151 41.5242 32.0663 40.924C34.4446 39.6207 36.819 38.3121 39.1891 36.9941C40.4095 36.3176 41.63 35.6413 42.8506 34.965C43.7618 34.4595 43.7618 34.4595 44.6914 33.9437C45.9498 33.2459 47.2088 32.5489 48.4681 31.8526C50.3114 30.8333 52.1536 29.8118 53.9954 28.7897C55.0783 28.1898 56.1612 27.5898 57.2769 26.9717C59.6281 25.7573 59.6281 25.7573 60.7816 24.5153Z" fill="#7469F2"/>
<path d="M121.289 57.3329C127.286 59.7318 132.716 62.7626 138.339 65.9218C139.415 66.5141 140.491 67.1063 141.6 67.7165C142.631 68.2956 143.662 68.8746 144.724 69.4712C145.664 69.9952 146.603 70.5192 147.571 71.0591C150.095 72.7777 151.532 74.198 153.081 76.8183C153.273 80.2795 153.273 80.2795 152.055 83.9971C146.821 89.0289 140.056 92.544 133.788 96.1114C132.921 96.6131 132.055 97.1148 131.162 97.6317C124.794 101.289 124.794 101.289 121.289 102.457C121.289 87.566 121.289 72.6751 121.289 57.3329Z" fill="#766BF2"/>
<path d="M24.8875 0.927727C27.9619 2.31332 27.9619 2.31332 30.9727 4.06045C32.06 4.69104 33.1474 5.32164 34.2677 5.97134C35.3815 6.63366 36.4952 7.29597 37.6428 7.97836C38.7843 8.63275 39.9259 9.28714 41.102 9.96135C47.3546 13.6339 47.3546 13.6339 49.5007 15.2854C49.5007 16.3007 49.5007 17.316 49.5007 18.362C48.7359 18.8012 47.9711 19.2403 47.1832 19.6928C44.3078 21.3449 41.4332 22.9984 38.5592 24.6528C37.3223 25.3644 36.0851 26.0755 34.8476 26.786C26.3405 31.6615 26.3405 31.6615 17.9971 36.8099C14.6321 38.873 14.6321 38.873 12.581 38.873C12.4541 33.9824 12.3611 29.0927 12.2993 24.2008C12.2735 22.5375 12.2386 20.8743 12.1941 19.2113C12.1318 16.8181 12.1028 14.4264 12.0802 12.0325C12.0537 11.2909 12.0273 10.5494 12 9.7854C11.9979 6.0686 12.3455 4.29141 14.7275 1.38742C18.6771 -0.580259 20.6565 -0.191054 24.8875 0.927727Z" fill="#746AF2"/>
<path d="M12.5809 121.942C16.835 123.483 20.5846 125.604 24.4187 127.971C25.044 128.353 25.6692 128.735 26.3134 129.128C28.2974 130.34 30.2781 131.557 32.2586 132.775C34.2507 133.995 36.2434 135.214 38.2367 136.432C39.4735 137.189 40.7097 137.947 41.945 138.706C44.0944 140.024 46.2184 141.325 48.475 142.453C48.475 143.13 48.475 143.807 48.475 144.504C44.7101 147.226 40.6249 149.467 36.6171 151.811C35.5034 152.487 34.3896 153.162 33.242 153.858C32.1547 154.497 31.0674 155.135 29.9471 155.793C28.9535 156.382 27.9599 156.97 26.9363 157.577C23.2021 159.138 20.6938 159.381 16.6831 158.862C14.2083 157.285 14.2083 157.285 12.5809 154.76C12.1152 151.282 12.1152 151.282 12.1803 147.18C12.1861 146.458 12.1919 145.735 12.1979 144.991C12.2208 142.691 12.2722 140.394 12.3245 138.095C12.3451 136.532 12.3638 134.97 12.3806 133.408C12.4257 129.585 12.4965 125.764 12.5809 121.942Z" fill="#7469F2"/>
</svg>
