<svg width="1104" height="1103" viewBox="0 0 1104 1103" fill="none" xmlns="http://www.w3.org/2000/svg">
<path d="M321.254 1052.68C311.615 1047.97 301.934 1044.08 293.04 1038.86C273.973 1027.66 254.868 1016.42 236.619 1003.97C221.197 993.448 206.461 981.765 192.335 969.54C177.545 956.739 163.056 943.401 149.874 928.984C134.131 911.765 119.305 893.614 105.189 875.026C87.4137 851.62 72.5415 826.312 59.3753 799.976C47.6396 776.502 37.2016 752.528 28.9005 727.639C20.0686 701.158 12.8033 674.264 8.62383 646.624C6.53148 632.786 4.54796 618.919 3.07793 605.005C1.9338 594.177 1.57583 583.26 1.02556 572.375C0.565542 563.275 -0.296518 554.133 0.130789 545.062C1.02331 526.116 2.45482 507.188 4.0223 488.282C6.12749 462.892 11.5276 438.08 17.7673 413.426C25.2912 383.697 35.2904 354.852 47.9988 326.939C60.8601 298.689 74.9319 271.072 92.8469 245.663C104.369 229.321 116.047 212.973 129.042 197.817C144.458 179.838 160.505 162.208 177.867 146.144C195.03 130.263 213.881 116.14 232.519 101.937C258.058 82.4744 286.031 66.8905 314.95 53.0878C342.594 39.8935 370.992 28.4842 400.773 21.0249C422.22 15.6529 443.746 10.4747 465.439 6.25026C478.139 3.77715 491.207 2.76963 504.161 2.12317C526.684 0.999141 549.253 0.00209627 571.79 0.225052C587.726 0.38271 603.654 2.51543 619.565 3.9895C646.122 6.4499 672.225 11.7688 697.731 19.2257C720.124 25.7724 742.143 33.7743 763.921 42.1869C778.886 47.968 793.421 55.0385 807.678 62.4379C835.073 76.6552 860.914 93.3587 885.625 111.931C911.805 131.607 935.517 153.936 957.916 177.642C976.327 197.128 993.329 217.961 1007.7 240.628C1021.28 262.063 1034.66 283.745 1046.32 306.256C1062.06 336.641 1074.44 368.57 1082.98 401.8C1087.96 421.202 1092.64 440.711 1096.51 460.359C1098.93 472.65 1100.09 485.257 1100.9 497.781C1102.31 519.574 1103.8 541.415 1103.74 563.232C1103.7 580.328 1101.48 597.429 1100.02 614.51C1097.69 641.706 1092.42 668.432 1084.83 694.566C1078.45 716.508 1071.25 738.302 1062.84 759.534C1055.24 778.696 1046.14 797.345 1036.54 815.611C1023.72 840.008 1008.18 862.751 991.729 884.896C972.497 910.781 950.477 934.116 927.093 956.131C914.545 967.945 900.895 978.651 887.239 989.206C874.934 998.716 862.172 1007.68 849.207 1016.28C824.812 1032.46 799.111 1046.36 771.987 1057.37C752.446 1065.31 732.841 1073.4 712.654 1079.34C689.747 1086.09 666.27 1091.08 642.825 1095.75C628.706 1098.56 614.218 1100.07 599.824 1100.84C575.645 1102.12 551.405 1102.93 527.198 1102.78C512.932 1102.69 498.587 1100.99 484.443 1098.89C463.343 1095.76 442.185 1092.54 421.423 1087.74C393.228 1081.23 365.698 1072.26 339.132 1060.59C333.28 1058.02 327.422 1055.46 321.254 1052.68ZM313.08 358.647C325.37 351.423 337.663 344.206 349.948 336.974C379.503 319.576 409.072 302.199 438.604 284.761C475.391 263.038 512.129 241.234 548.977 219.616C550.373 218.797 553.105 218.851 554.522 219.68C586.401 238.339 618.175 257.177 649.986 275.952C681.087 294.307 712.214 312.62 743.319 330.969C758.98 340.209 774.617 349.49 790.77 359.05C790.855 357.529 790.953 356.6 790.953 355.671C790.961 311.017 790.934 266.363 791.02 221.709C791.025 218.79 790.021 217.196 787.47 215.895C783.649 213.945 780.042 211.574 776.341 209.387C752.797 195.472 729.261 181.543 705.705 167.648C676.854 150.628 647.974 133.657 619.128 116.627C598.154 104.244 577.236 91.7658 556.235 79.4292C553.962 78.0939 551.816 76.4382 548.529 78.3971C513.387 99.3418 478.126 120.088 442.906 140.903C399.4 166.614 355.902 192.339 311.931 218.749C311.621 220.516 311.041 222.283 311.039 224.05C310.99 267.009 310.98 309.969 311.068 352.928C311.072 354.961 312.036 356.994 313.08 358.647ZM438.092 792.747C438.155 792.497 438.129 792.249 437.891 791.357C437.89 790.924 437.89 790.49 438.303 789.33C438.535 787.533 438.969 785.736 438.97 783.939C439.003 684.374 439.006 584.81 438.954 485.245C438.953 483.149 438.275 481.053 437.276 478.423C436.46 478.308 435.644 478.091 434.828 478.09C395.176 478.073 355.523 478.066 315.871 478.109C314.618 478.111 313.365 478.651 311.683 479.661C311.456 481.458 311.03 483.256 311.03 485.054C310.998 593.3 310.994 701.547 311.06 809.793C311.061 811.843 311.934 813.894 312.869 816.633C313.58 824.688 314.011 832.779 315.061 840.79C317.527 859.606 321.85 877.954 328.964 895.643C342.295 928.793 363.413 955.831 391.82 977.366C418.747 997.778 448.824 1011.32 481.701 1018.65C501.733 1023.11 522.083 1025.56 542.611 1025.9C552.527 1026.06 562.476 1025.59 572.376 1024.91C582.715 1024.2 593.108 1023.45 603.311 1021.73C630.58 1017.14 656.808 1009.16 681.241 995.888C711.323 979.549 737.105 958.389 756.097 929.517C768.389 910.831 776.371 890.476 782.286 868.908C787.836 848.667 790.595 828.078 790.701 807.453C791.256 699.467 790.96 591.477 790.96 483.488C790.96 481.744 790.96 480.001 790.96 478.394C748.888 478.394 707.633 478.394 666 478.394C666 480.185 666.004 481.656 665.999 483.127C665.668 587.891 665.534 692.657 664.735 797.418C664.643 809.572 662.338 822.187 658.509 833.743C648.045 865.322 626.928 887.897 596 900.503C562.316 914.232 528.492 912.82 496.822 895.604C456.758 873.823 438.305 838.273 438.092 792.747Z" fill="#BE32F5"/>
<path d="M312.112 478.94C313.365 478.651 314.618 478.111 315.871 478.109C355.523 478.066 395.176 478.073 434.828 478.09C435.644 478.091 436.46 478.308 437.513 479.156C437.734 582.449 437.719 685.011 437.711 787.572C437.711 788.4 437.827 789.229 437.889 790.057C437.89 790.49 437.89 790.924 437.862 791.928C437.895 792.665 437.956 792.83 438.018 792.994C438.305 838.273 456.758 873.823 496.822 895.604C528.492 912.82 562.316 914.232 596 900.503C626.928 887.897 648.045 865.322 658.509 833.743C662.338 822.187 664.643 809.572 664.735 797.418C665.534 692.657 665.668 587.891 665.999 483.127C666.004 481.656 666 480.185 666 478.394C707.633 478.394 748.888 478.394 790.96 478.394C790.96 480.001 790.96 481.744 790.96 483.488C790.96 591.477 791.256 699.467 790.701 807.453C790.595 828.078 787.836 848.667 782.286 868.908C776.371 890.476 768.389 910.831 756.097 929.517C737.105 958.389 711.323 979.549 681.241 995.888C656.808 1009.16 630.58 1017.14 603.311 1021.73C593.108 1023.45 582.715 1024.2 572.376 1024.91C562.476 1025.59 552.527 1026.06 542.611 1025.9C522.083 1025.56 501.733 1023.11 481.701 1018.65C448.824 1011.32 418.747 997.778 391.82 977.366C363.413 955.83 342.295 928.793 328.964 895.643C321.85 877.954 317.527 859.606 315.061 840.79C314.011 832.779 313.58 824.688 312.594 815.825C312.311 705.151 312.302 595.286 312.284 485.421C312.283 483.261 312.171 481.101 312.112 478.94Z" fill="white"/>
<path d="M312.401 218.058C355.902 192.339 399.4 166.614 442.906 140.902C478.126 120.088 513.387 99.3416 548.529 78.3969C551.816 76.438 553.962 78.0937 556.235 79.4289C577.236 91.7655 598.154 104.244 619.128 116.627C647.974 133.657 676.854 150.628 705.705 167.647C729.261 181.543 752.797 195.472 776.341 209.387C780.042 211.574 783.649 213.945 787.47 215.895C790.02 217.196 791.025 218.789 791.02 221.709C790.934 266.363 790.961 311.017 790.953 355.671C790.953 356.6 790.855 357.529 790.77 359.05C774.617 349.489 758.98 340.208 743.319 330.969C712.214 312.619 681.087 294.307 649.986 275.952C618.175 257.177 586.401 238.338 554.522 219.68C553.105 218.85 550.373 218.797 548.977 219.616C512.129 241.234 475.391 263.038 438.604 284.76C409.072 302.199 379.503 319.576 349.948 336.974C337.663 344.206 325.37 351.423 312.714 358.367C312.365 311.41 312.383 264.734 312.401 218.058Z" fill="#FFFEFF"/>
<path d="M311.897 479.3C312.171 481.1 312.283 483.261 312.284 485.421C312.302 595.286 312.311 705.151 312.361 815.48C311.934 813.893 311.061 811.843 311.06 809.792C310.994 701.546 310.998 593.3 311.03 485.054C311.03 483.256 311.456 481.458 311.897 479.3Z" fill="#B10BF3"/>
<path d="M438.096 789.693C437.827 789.229 437.711 788.4 437.711 787.572C437.719 685.01 437.734 582.449 437.832 479.423C438.275 481.053 438.953 483.149 438.954 485.245C439.006 584.81 439.003 684.374 438.97 783.939C438.969 785.736 438.535 787.533 438.096 789.693Z" fill="#B310F3"/>
<path d="M312.166 218.403C312.383 264.734 312.365 311.41 312.45 358.556C312.036 356.993 311.072 354.961 311.068 352.927C310.98 309.968 310.99 267.009 311.039 224.05C311.041 222.283 311.621 220.516 312.166 218.403Z" fill="#B20BF3"/>
<path d="M438.055 792.871C437.956 792.83 437.895 792.665 437.923 792.252C438.129 792.249 438.155 792.497 438.055 792.871Z" fill="#B310F3"/>
</svg>
