<svg width="400" height="400" viewBox="0 0 400 400" fill="none" xmlns="http://www.w3.org/2000/svg">
<path d="M75.4908 41.8658C76.3906 41.8613 77.2905 41.8569 78.2177 41.8523C79.6948 41.8525 79.6948 41.8525 81.2017 41.8528C82.7755 41.8473 82.7755 41.8473 84.3811 41.8417C87.9085 41.8306 91.4358 41.8268 94.9631 41.823C97.4877 41.8167 100.012 41.8101 102.537 41.8031C110.122 41.7838 117.706 41.7732 125.291 41.7643C128.865 41.76 132.44 41.7546 136.014 41.7494C147.901 41.7323 159.788 41.7179 171.676 41.7106C174.759 41.7087 177.843 41.7068 180.927 41.7048C182.077 41.7041 182.077 41.7041 183.25 41.7034C195.658 41.6951 208.066 41.6697 220.474 41.6372C233.222 41.6041 245.969 41.5862 258.717 41.583C265.871 41.5808 273.025 41.5721 280.179 41.5465C286.912 41.5225 293.644 41.519 300.377 41.5293C302.845 41.5298 305.312 41.5234 307.78 41.5097C311.157 41.492 314.533 41.4991 317.909 41.5122C318.879 41.5013 319.848 41.4903 320.846 41.479C329.739 41.5621 338.312 43.9421 345.313 49.625C346.072 50.2154 346.831 50.8058 347.613 51.4141C356.258 60.7803 359.608 73.2202 363.75 85C364.486 87.0684 365.224 89.1364 365.962 91.2041C367.515 95.5555 369.063 99.9089 370.606 104.264C374.19 114.364 377.829 124.444 381.464 134.526C382.593 137.661 383.72 140.797 384.847 143.934C385.557 145.909 386.266 147.884 386.977 149.859C387.315 150.802 387.654 151.745 388.004 152.716C390.574 159.853 393.19 166.973 395.85 174.077C399.916 185.01 400.987 196.548 396.309 207.523C391.456 216.708 383.694 223.243 376 230C375.274 230.639 374.549 231.279 373.801 231.937C372.534 233.047 371.265 234.154 369.992 235.258C367.64 237.315 365.32 239.406 363 241.5C357.677 246.299 352.311 251.041 346.848 255.68C340.267 261.274 333.802 266.957 327.48 272.844C324.026 276.06 320.526 279.205 316.957 282.293C314.614 284.336 312.307 286.417 310 288.5C304.677 293.299 299.311 298.041 293.848 302.68C287.267 308.274 280.802 313.957 274.48 319.844C271.026 323.06 267.526 326.205 263.957 329.293C261.614 331.336 259.307 333.417 257 335.5C252.702 339.375 248.376 343.213 244 347C243.484 347.448 242.968 347.896 242.436 348.357C238.85 351.465 235.249 354.555 231.627 357.621C230.23 358.805 228.839 359.995 227.449 361.188C217.675 369.243 208.374 371.14 195.955 370.236C186.014 369.034 178.305 362.459 171.063 356.062C169.731 354.897 168.399 353.732 167.066 352.566C166.391 351.974 165.716 351.381 165.02 350.77C161.858 348 158.679 345.25 155.5 342.5C154.25 341.417 153 340.333 151.75 339.25C151.131 338.714 150.513 338.178 149.875 337.625C84.25 280.75 84.25 280.75 82.3748 279.125C81.1256 278.042 79.8764 276.96 78.6272 275.877C75.4887 273.158 72.351 270.437 69.2149 267.715C67.9558 266.622 66.6967 265.53 65.4375 264.437C64.8198 263.902 64.2021 263.366 63.5657 262.813C58.7049 258.601 53.8162 254.421 48.9243 250.245C45.5061 247.317 42.1412 244.342 38.8125 241.312C35.5633 238.359 32.2413 235.555 28.8125 232.812C2.32998 211.196 2.32998 211.196 0.656259 195.848C0.325043 187.824 1.21889 181.21 3.90626 173.637C4.21499 172.74 4.52372 171.843 4.84181 170.919C9.05024 158.8 13.5338 146.776 18 134.75C19.6333 130.344 21.2655 125.937 22.8968 121.53C23.3635 120.269 23.8304 119.008 24.2975 117.748C27.4068 109.354 30.4743 100.946 33.4961 92.5195C34.175 90.6337 34.854 88.748 35.5332 86.8623C36.4737 84.2505 37.4109 81.6378 38.3362 79.0206C47.6891 52.5716 47.6891 52.5716 60.3711 45.7187C65.4058 43.4039 69.9155 41.8786 75.4908 41.8658Z" fill="url(#paint0_linear_133_2)"/>
<path d="M97.4054 74.6124C98.3206 74.607 99.2358 74.6016 100.179 74.596C103.229 74.5818 106.278 74.5889 109.328 74.596C111.521 74.5903 113.715 74.5833 115.908 74.5752C121.854 74.5573 127.801 74.5584 133.747 74.5641C138.715 74.5672 143.682 74.5611 148.65 74.5551C161.041 74.5402 173.431 74.5439 185.821 74.556C196.569 74.5659 207.316 74.5529 218.063 74.529C229.114 74.5046 240.164 74.4954 251.215 74.5017C257.413 74.505 263.611 74.5026 269.809 74.4854C275.638 74.4699 281.466 74.4739 287.294 74.4927C289.431 74.4964 291.567 74.4933 293.703 74.4828C296.625 74.4696 299.546 74.4812 302.468 74.4988C303.308 74.4892 304.147 74.4796 305.013 74.4697C313.696 74.5772 320.885 77.8846 327 84C329.946 88.7102 332.013 93.3637 333.758 98.6407C335.999 105.204 338.38 111.697 340.867 118.172C341.867 120.809 342.864 123.447 343.861 126.085C344.541 127.872 345.227 129.655 345.921 131.436C355.014 154.843 355.014 154.843 350.562 166.375C344.757 175.906 332.346 181.173 323.059 186.754C319.664 188.809 316.325 190.949 312.984 193.09C295.738 204.128 278.374 214.991 260.945 225.738C259.506 226.626 259.506 226.626 258.039 227.532C256.226 228.648 254.413 229.764 252.598 230.877C251.787 231.376 250.976 231.876 250.141 232.391C249.435 232.824 248.728 233.258 248.001 233.704C245.936 235.041 243.968 236.524 242 238C262.79 238.33 283.58 238.66 305 239C302.99 243.02 301.364 244.746 298.062 247.688C297.572 248.126 297.082 248.565 296.577 249.017C293.376 251.857 290.089 254.572 286.75 257.25C280.709 262.121 275.115 267.427 269.469 272.742C266.777 275.276 264.072 277.79 261.312 280.25C260.752 280.75 260.191 281.25 259.613 281.766C257.838 283.124 256.026 284.064 254 285C254 285.66 254 286.32 254 287C252.602 288.41 252.602 288.41 250.625 290.063C247.371 292.828 244.166 295.633 241 298.5C237.429 301.724 233.826 304.904 230.188 308.051C227.973 310.024 225.826 312.062 223.675 314.105C209.783 327.17 209.783 327.17 200.375 327.688C191.346 327.105 185.992 321.27 179.629 315.383C177.031 313.028 174.359 310.82 171.625 308.625C167.071 304.944 162.764 301.072 158.481 297.086C155.248 294.096 151.933 291.262 148.5 288.5C143.388 284.384 138.574 280.008 133.762 275.551C129.188 271.327 124.483 267.266 119.75 263.223C118.542 262.19 117.333 261.158 116.125 260.125C115.217 259.35 115.217 259.35 114.292 258.559C109.841 254.746 105.472 250.852 101.133 246.914C98.4799 244.533 95.7618 242.253 93 240C97.8157 235.859 103.179 232.648 108.562 229.313C109.604 228.664 110.646 228.016 111.72 227.347C121.146 221.496 130.624 215.729 140.117 209.988C146.681 206.018 153.226 202.019 159.756 197.994C165.217 194.637 170.704 191.321 176.188 188C186.536 181.727 196.86 175.416 207.155 169.057C218.072 162.319 229.04 155.671 240 149C176.97 148.67 113.94 148.34 49 148C49.7353 144.324 50.5385 141.191 51.7625 137.694C52.3039 136.142 52.3039 136.142 52.8562 134.558C53.2479 133.45 53.6395 132.341 54.043 131.199C54.449 130.049 54.8551 128.899 55.2735 127.713C56.1347 125.281 56.9981 122.849 57.8635 120.418C59.1774 116.716 60.4725 113.008 61.7676 109.299C62.6082 106.932 63.45 104.565 64.293 102.199C64.6745 101.097 65.056 99.9946 65.449 98.8588C68.4624 90.5049 72.3232 82.9351 80 78C86.0275 75.335 90.857 74.5656 97.4054 74.6124Z" fill="#91BCFE"/>
<path d="M97.4054 74.6124C98.3206 74.607 99.2358 74.6016 100.179 74.596C103.229 74.5818 106.278 74.5889 109.328 74.596C111.521 74.5903 113.715 74.5833 115.908 74.5752C121.854 74.5573 127.801 74.5584 133.747 74.5641C138.715 74.5672 143.682 74.5611 148.65 74.5551C161.041 74.5402 173.431 74.5439 185.821 74.556C196.569 74.5659 207.316 74.5529 218.063 74.529C229.114 74.5046 240.164 74.4954 251.215 74.5017C257.413 74.505 263.611 74.5026 269.809 74.4854C275.638 74.4699 281.466 74.4739 287.294 74.4927C289.431 74.4964 291.567 74.4933 293.703 74.4828C296.625 74.4696 299.546 74.4812 302.468 74.4988C303.308 74.4892 304.147 74.4796 305.013 74.4697C313.696 74.5772 320.885 77.8846 327 84C329.988 88.7745 332.048 93.4341 333.82 98.7618C334.336 100.268 334.854 101.774 335.372 103.279C335.77 104.442 335.77 104.442 336.177 105.629C337.545 109.569 338.989 113.481 340.43 117.395C341.003 118.962 341.576 120.529 342.148 122.096C343.021 124.482 343.895 126.868 344.775 129.251C345.645 131.609 346.507 133.97 347.367 136.332C347.633 137.046 347.898 137.759 348.172 138.494C349.408 141.909 350 144.316 350 148C336.188 148.034 322.375 148.052 308.562 148.063C306.904 148.064 306.904 148.064 305.212 148.065C250.078 148.102 194.946 147.798 139.812 147.5C138.705 147.494 137.597 147.488 136.456 147.482C107.638 147.326 78.8188 147.166 50 147C51.06 139.302 51.06 139.302 52.2275 136.123C52.4716 135.448 52.7157 134.773 52.9671 134.077C53.2306 133.37 53.4941 132.662 53.7656 131.934C54.0409 131.178 54.3162 130.422 54.5998 129.643C55.4768 127.239 56.3631 124.838 57.25 122.438C57.8301 120.854 58.4095 119.27 58.9883 117.686C59.8419 115.349 60.6967 113.014 61.5568 110.68C62.8777 107.093 64.1819 103.502 65.4316 99.8897C66.0765 98.032 66.0765 98.032 66.7344 96.1368C67.1027 95.0574 67.4711 93.9781 67.8506 92.866C70.8945 85.2763 76.1057 79.7219 83.5762 76.4188C88.229 74.7266 92.4936 74.5773 97.4054 74.6124Z" fill="#FEFEFF"/>
<path d="M93 239C162.96 239 233.92 239 306 239C298.062 247.688 306 239 298.062 247.688C297.327 248.345 297.327 248.345 296.577 249.017C293.376 251.857 290.089 254.572 286.75 257.25C280.709 262.121 275.115 267.427 269.469 272.742C266.777 275.276 264.072 277.789 261.312 280.25C260.752 280.75 260.191 281.25 259.613 281.766C257.838 283.124 259.613 281.766 256 285C254 287 256 285 254 287C252.602 288.41 256 285 250.625 290.062C247.371 292.828 244.166 295.633 241 298.5C237.429 301.724 233.826 304.904 230.188 308.051C227.973 310.024 225.826 312.062 223.675 314.105C209.783 327.17 209.783 327.17 200.375 327.688C191.346 327.105 185.992 321.27 179.629 315.383C177.031 313.028 174.359 310.82 171.625 308.625C167.071 304.944 162.764 301.072 158.481 297.086C155.248 294.096 151.933 291.262 148.5 288.5C143.388 284.383 138.574 280.008 133.762 275.551C129.188 271.327 124.483 267.266 119.75 263.223C118.542 262.19 117.333 261.158 116.125 260.125C115.52 259.608 114.915 259.091 114.292 258.559C109.84 254.746 105.469 250.853 101.133 246.91C99.2489 245.223 97.3338 243.599 95.375 242C94.5913 241.34 93.8075 240.68 93 240C93 239.67 93 239.34 93 239Z" fill="url(#paint1_linear_133_2)"/>
<defs>
<linearGradient id="paint0_linear_133_2" x1="197.928" y1="370.443" x2="202.046" y2="41.479" gradientUnits="userSpaceOnUse">
<stop stop-color="#3B6DFF"/>
<stop offset="0.8" stop-color="#45A8FE"/>
</linearGradient>
<linearGradient id="paint1_linear_133_2" x1="93" y1="282.456" x2="306" y2="284.232" gradientUnits="userSpaceOnUse">
<stop stop-color="white"/>
<stop offset="1" stop-color="white" stop-opacity="0"/>
</linearGradient>
</defs>
</svg>
