<svg width="108" height="85" viewBox="0 0 108 85" fill="none" xmlns="http://www.w3.org/2000/svg">
<path d="M58.839 75.2772C58.839 75.2772 64.5193 77.4616 77.1206 60.3773C89.7219 43.293 84.7872 15.307 84.7872 15.307M64.4178 75.4364C64.4178 75.4364 63.7914 78.5834 68.1505 80.8784C72.5097 83.1734 79.928 79.1461 79.928 79.1461C79.928 79.1461 76.0058 74.3617 71.4731 73.1959C66.9403 72.0301 64.4178 75.4364 64.4178 75.4364ZM73.1872 68.8895C73.1872 68.8895 73.3911 72.0101 78.0735 73.0713C82.756 74.1324 88.7239 68.4704 88.7239 68.4704C88.7239 68.4704 83.825 64.9555 79.2639 65.0011C74.7029 65.0467 73.1872 68.8895 73.1872 68.8895ZM59.8282 73.3809C59.8282 73.3809 56.7011 73.3497 55.383 68.733C54.0649 64.1162 59.3888 57.8448 59.3888 57.8448C59.3888 57.8448 63.1688 62.5421 63.3751 67.0987C63.5814 71.6554 59.8282 73.3809 59.8282 73.3809ZM79.9043 60.0002C79.9043 60.0002 80.3669 63.0098 84.9988 63.6417C89.6308 64.2737 94.939 58.2752 94.939 58.2752C94.939 58.2752 89.8889 55.2816 85.4687 55.7128C81.0484 56.1441 79.9043 60.0002 79.9043 60.0002ZM69.0813 65.8752C69.0813 65.8752 66.0973 66.4809 63.9039 62.3525C61.7105 58.2241 65.5057 51.1703 65.5057 51.1703C65.5057 51.1703 70.0598 54.8751 71.1822 59.1722C72.3046 63.4693 69.0813 65.8752 69.0813 65.8752ZM84.3298 50.6931C84.3298 50.6931 85.2815 53.4987 89.8265 53.3216C94.3716 53.1446 98.4444 46.5 98.4444 46.5C98.4444 46.5 93.0997 44.4848 88.9371 45.6449C84.7745 46.805 84.3298 50.6931 84.3298 50.6931ZM76.4535 56.1841C76.4535 56.1841 73.7654 57.4295 70.7594 54.0158C67.7535 50.602 69.7572 43.0705 69.7572 43.0705C69.7572 43.0705 74.9022 45.5517 76.9325 49.3663C78.9627 53.1809 76.4535 56.1841 76.4535 56.1841ZM86.682 41.4718C86.682 41.4718 88.0669 43.9974 92.3887 43.0605C96.7105 42.1237 99.4882 35.0742 99.4882 35.0742C99.4882 35.0742 94.0307 34.0471 90.241 35.8606C86.4514 37.674 86.682 41.4718 86.682 41.4718ZM81.3781 45.383C81.3781 45.383 78.9599 46.9479 75.6015 44.071C72.2431 41.1941 73.1465 33.6711 73.1465 33.6711C73.1465 33.6711 78.4371 35.359 80.9108 38.7547C83.3846 42.1504 81.3781 45.383 81.3781 45.383ZM87.6368 31.4639C87.6368 31.4639 89.3877 33.6464 93.3642 32.0212C97.3407 30.3959 98.8089 23.1833 98.8089 23.1833C98.8089 23.1833 93.4146 23.1213 90.0951 25.4954C86.7755 27.8696 87.6368 31.4639 87.6368 31.4639ZM82.752 33.7725C82.752 33.7725 80.5622 35.5142 77.0431 33.0505C73.5239 30.5868 73.6855 23.2281 73.6855 23.2281C73.6855 23.2281 78.9602 24.3594 81.6732 27.4083C84.3861 30.4572 82.752 33.7725 82.752 33.7725ZM87.213 21.3498C87.213 21.3498 89.2544 23.1408 92.7814 20.9171C96.3084 18.6934 96.4962 11.5519 96.4962 11.5519C96.4962 11.5519 91.3296 12.4017 88.5568 15.2305C85.784 18.0593 87.213 21.3498 87.213 21.3498ZM82.7054 22.4643C82.7054 22.4643 80.607 24.1882 77.154 21.8513C73.7009 19.5144 73.7449 12.3705 73.7449 12.3705C73.7449 12.3705 78.8812 13.3875 81.5608 16.3047C84.2404 19.2219 82.7054 22.4643 82.7054 22.4643ZM84.6405 15.389C84.6405 15.389 87.3438 15.1297 88.1413 11.0372C88.9388 6.94469 83.8664 1.91395 83.8664 1.91395C83.8664 1.91395 80.9448 6.25906 81.1048 10.217C81.2648 14.1749 84.6405 15.389 84.6405 15.389Z" stroke="#344665" stroke-width="0.4"/>
<path d="M49.1611 75.2772C49.1611 75.2772 43.4808 77.4616 30.8795 60.3773C18.2782 43.293 23.2129 15.307 23.2129 15.307M43.5823 75.4364C43.5823 75.4364 44.2088 78.5834 39.8496 80.8784C35.4904 83.1734 28.0721 79.1461 28.0721 79.1461C28.0721 79.1461 31.9943 74.3617 36.5271 73.1959C41.0598 72.0301 43.5823 75.4364 43.5823 75.4364ZM34.8129 68.8895C34.8129 68.8895 34.6091 72.0101 29.9266 73.0713C25.2441 74.1325 19.2763 68.4704 19.2763 68.4704C19.2763 68.4704 24.1751 64.9555 28.7362 65.0011C33.2973 65.0467 34.8129 68.8895 34.8129 68.8895ZM48.172 73.381C48.172 73.381 51.299 73.3497 52.6171 68.733C53.9353 64.1162 48.6114 57.8448 48.6114 57.8448C48.6114 57.8448 44.8314 62.5421 44.625 67.0988C44.4187 71.6554 48.172 73.381 48.172 73.381ZM28.0958 60.0002C28.0958 60.0002 27.6332 63.0098 23.0013 63.6417C18.3693 64.2737 13.0611 58.2752 13.0611 58.2752C13.0611 58.2752 18.1112 55.2816 22.5315 55.7129C26.9517 56.1442 28.0958 60.0002 28.0958 60.0002ZM38.9188 65.8752C38.9188 65.8752 41.9029 66.4809 44.0962 62.3525C46.2896 58.2241 42.4944 51.1703 42.4944 51.1703C42.4944 51.1703 37.9404 54.8751 36.8179 59.1722C35.6955 63.4693 38.9188 65.8752 38.9188 65.8752ZM23.6704 50.6931C23.6704 50.6931 22.7186 53.4987 18.1736 53.3217C13.6285 53.1446 9.55569 46.5 9.55569 46.5C9.55569 46.5 14.9004 44.4848 19.063 45.6449C23.2256 46.805 23.6704 50.6931 23.6704 50.6931ZM31.5466 56.1841C31.5466 56.1841 34.2348 57.4295 37.2407 54.0158C40.2466 50.6021 38.2429 43.0705 38.2429 43.0705C38.2429 43.0705 33.0979 45.5517 31.0677 49.3663C29.0374 53.1809 31.5466 56.1841 31.5466 56.1841ZM21.3181 41.4718C21.3181 41.4718 19.9332 43.9974 15.6115 43.0605C11.2897 42.1237 8.51189 35.0742 8.51189 35.0742C8.51189 35.0742 13.9694 34.0471 17.7591 35.8606C21.5487 37.674 21.3181 41.4718 21.3181 41.4718ZM26.6221 45.3831C26.6221 45.3831 29.0402 46.9479 32.3986 44.071C35.757 41.1941 34.8537 33.6711 34.8537 33.6711C34.8537 33.6711 29.563 35.359 27.0893 38.7547C24.6155 42.1504 26.6221 45.3831 26.6221 45.3831ZM20.3633 31.4639C20.3633 31.4639 18.6124 33.6464 14.6359 32.0212C10.6594 30.3959 9.19118 23.1833 9.19118 23.1833C9.19118 23.1833 14.5855 23.1213 17.905 25.4954C21.2246 27.8696 20.3633 31.4639 20.3633 31.4639ZM25.2481 33.7725C25.2481 33.7725 27.4379 35.5142 30.9571 33.0505C34.4762 30.5868 34.3146 23.2281 34.3146 23.2281C34.3146 23.2281 29.0399 24.3594 26.3269 27.4083C23.614 30.4572 25.2481 33.7725 25.2481 33.7725ZM20.7871 21.3498C20.7871 21.3498 18.7457 23.1408 15.2187 20.9171C11.6917 18.6934 11.5039 11.5519 11.5039 11.5519C11.5039 11.5519 16.6705 12.4017 19.4433 15.2305C22.2161 18.0593 20.7871 21.3498 20.7871 21.3498ZM25.2947 22.4643C25.2947 22.4643 27.3931 24.1882 30.8462 21.8513C34.2992 19.5144 34.2553 12.3705 34.2553 12.3705C34.2553 12.3705 29.119 13.3875 26.4394 16.3047C23.7597 19.2219 25.2947 22.4643 25.2947 22.4643ZM23.3596 15.389C23.3596 15.389 20.6563 15.1297 19.8588 11.0372C19.0613 6.94469 24.1337 1.91395 24.1337 1.91395C24.1337 1.91395 27.0553 6.25906 26.8953 10.217C26.7353 14.1749 23.3596 15.389 23.3596 15.389Z" stroke="#344665" stroke-width="0.4"/>
</svg>
