<svg width="254" height="256" viewBox="0 0 254 256" fill="none" xmlns="http://www.w3.org/2000/svg">
<g clip-path="url(#clip0_91_23)">
<path d="M1 43.4541C10.2315 46.6376 19.8755 44.8517 29.3245 44.9158C61.6319 45.1349 93.9418 44.9998 127.003 44.9998C127.003 48.2534 127.09 51.3393 126.983 54.4185C126.83 58.8142 129.982 57.9613 132.525 57.9796C135.103 57.9982 138.178 58.7357 138.024 54.3681C137.894 50.6899 137.997 47.0033 137.997 43.3205C138.913 43.2648 139.828 43.209 140.744 43.1533C141.162 46.1102 141.829 49.0573 141.945 52.026C142.151 57.3284 147.033 60.3751 151.517 57.6115C152.373 57.084 152.833 55.4377 152.934 54.2613C153.145 51.7827 152.998 49.2735 152.998 46.3892C171.854 46.3892 190.575 46.3892 209.649 46.3892C209.649 64.9481 209.649 83.6659 209.649 103C207.258 103 204.813 103.15 202.395 102.965C198.857 102.693 196.697 103.323 196.896 107.715C197.071 111.594 197.748 114.248 202.374 114.027C205.35 113.886 208.339 114.001 211.533 114.001C212.444 116.736 212.118 118.206 208.919 118.024C206.594 117.892 204.232 118.212 201.929 117.953C197.788 117.487 196.871 119.388 196.886 123.181C196.9 126.877 198.054 128.096 201.785 128.08C212.001 128.036 212.002 128.188 212.002 138.389C212.002 167.044 211.914 195.698 212.048 224.352C212.097 234.941 212.667 245.528 213 256.558C209.969 257 206.939 257 203.454 257C203.72 254.76 204.457 252.526 205.151 250.278C205.478 249.218 205.964 248.132 205.964 247.058C205.975 209.4 205.938 171.743 205.899 134.085C205.899 133.939 205.776 133.794 205.539 133.268C204.48 133.189 203.207 133.167 201.957 132.987C197.862 132.397 196.906 134.32 196.927 138.155C197.067 164.149 197 190.144 196.999 216.139C196.999 219.638 197.098 223.143 196.914 226.632C196.872 227.422 195.842 228.159 195.267 228.92C194.847 228.169 194.156 227.45 194.065 226.661C193.875 225.016 194 223.335 194 221.669C194 192.355 194 163.042 194 133.785C185.84 131.78 185.001 132.383 185 140.049C184.999 158.378 184.994 176.708 185.006 195.037C185.008 197.438 185.361 200.096 181 198.479C181 190.011 181 181.382 181 172.754C181 160.256 181.127 147.756 180.879 135.264C180.836 133.097 179.74 130.434 178.224 128.893C161.509 111.914 144.574 95.1509 127.816 78.2129C125.55 75.9227 123.321 74.9 120.051 74.925C100.389 75.0754 80.7259 75.0081 61.0633 74.9885C58.6513 74.9861 55.6754 75.6116 56.2146 71.0015C58.0001 71.0015 59.7989 71.0015 61.5977 71.0015C80.0939 71.0014 98.5902 70.9721 117.086 71.0297C120.227 71.0394 122.689 70.5794 123.018 66.7527C123.3 63.4763 122.361 61.547 118.652 61.9829C117.665 62.0988 116.654 61.9998 115.654 61.9998C87.4934 61.9998 59.3325 62 31.1715 61.9989C30.0052 61.9989 28.7668 62.2276 27.6942 61.9072C26.7446 61.6234 25.9795 60.7222 25.1329 60.0935C25.9171 59.405 26.6032 58.3684 27.5095 58.1126C28.7465 57.7636 30.1514 58.0013 31.4843 58.0013C60.3117 57.9997 89.1392 57.9963 117.967 58.0063C120.522 58.0072 123.046 58.3537 123.066 54.4317C123.081 51.3141 122.228 49.8596 118.828 49.9456C111.667 50.1267 104.499 49.9999 97.3339 49.9999C70.506 49.9997 43.6782 49.9892 16.8503 50.009C11.6506 50.0129 6.20333 48.8921 1.40396 52.9983C1 49.9694 1 46.9388 1 43.4541ZM191.404 58C183.988 58 176.572 58 169.248 58C169.248 68.3603 169.248 77.9624 169.248 87.7051C178.884 87.7051 188.271 87.7051 197.659 87.7051C197.659 77.6869 197.659 67.9671 197.659 58C195.67 58 194.023 58 191.404 58ZM152.636 92.1022C153.561 92.7663 154.486 93.4305 155.719 94.3153C155.719 84.1413 155.719 74.7795 155.719 65.9315C147.374 65.9315 139.295 65.9315 129.713 65.9315C131.313 68.957 131.993 71.3127 133.492 72.8887C139.551 79.2586 145.862 85.3882 152.636 92.1022ZM181.508 120.986C183.621 122.564 185.733 124.142 188.723 126.375C188.723 116.815 188.723 109.096 188.723 101.347C180.142 101.347 171.841 101.347 163.293 101.347C169.414 107.906 175.243 114.152 181.508 120.986Z" fill="#CFAF3D"/>
</g>
<defs>
<clipPath id="clip0_91_23">
<rect width="254" height="256" />
</clipPath>
</defs>
</svg>
